<svg width="72" height="72" viewBox="0 0 72 72" fill="none" xmlns="http://www.w3.org/2000/svg">
<g clip-path="url(#clip0_9660_727)">
<path d="M54.7753 12.2937C54.7753 10.6045 54.1161 9.01434 52.9213 7.81959L46.9557 1.854C45.7776 0.675703 44.1051 0 42.4407 0H42.0781V12.6562H54.7754L54.7753 12.2937Z" fill="url(#paint0_linear_9660_727)"/>
<path d="M38.5224 43.5286C38.9261 42.303 39.6307 41.1618 40.5494 40.2369L54.8315 26.0122V16.875H40.0096C38.8437 16.875 37.9688 15.9315 37.9688 14.7656V0H6.32812C2.83866 0 0 2.83866 0 6.32812V65.6719C0 69.1613 2.83866 72 6.32812 72H48.4471C51.9366 72 54.8315 69.1613 54.8315 65.6719V49.9288L52.5135 52.1906C51.5742 53.1217 50.4743 53.7993 49.2341 54.2135L42.527 56.4526L41.5052 56.5083C39.816 56.5083 38.2175 55.6864 37.2247 54.3104C36.24 52.9405 35.9723 51.1649 36.5078 49.5602L38.5224 43.5286ZM10.5469 37.9688H31.5721C32.7381 37.9688 33.6815 38.9122 33.6815 40.0781C33.6815 41.244 32.7381 42.1875 31.5721 42.1875H10.5469C9.38095 42.1875 8.4375 41.244 8.4375 40.0781C8.4375 38.9122 9.38095 37.9688 10.5469 37.9688ZM8.4375 31.6406C8.4375 30.4747 9.38095 29.5312 10.5469 29.5312H31.5721C32.7381 29.5312 33.6815 30.4747 33.6815 31.6406C33.6815 32.8065 32.7381 33.75 31.5721 33.75H10.5469C9.38095 33.75 8.4375 32.8065 8.4375 31.6406ZM8.4375 48.5156C8.4375 47.3497 9.38095 46.4062 10.5469 46.4062H31.5721C32.7381 46.4062 33.6815 47.3497 33.6815 48.5156C33.6815 49.6815 32.7381 50.625 31.5721 50.625H10.5469C9.38095 50.625 8.4375 49.6815 8.4375 48.5156ZM40.0096 59.0625C41.1756 59.0625 42.119 60.006 42.119 61.1719C42.119 62.3378 41.1757 63.2812 40.0096 63.2812H27.3534C26.1875 63.2812 25.244 62.3378 25.244 61.1719C25.244 60.006 26.1875 59.0625 27.3534 59.0625H40.0096ZM10.5469 25.3125C9.38095 25.3125 8.4375 24.369 8.4375 23.2031C8.4375 22.0372 9.38095 21.0938 10.5469 21.0938H40.0096C41.1756 21.0938 42.119 22.0372 42.119 23.2031C42.119 24.369 41.1756 25.3125 40.0096 25.3125H10.5469Z" fill="url(#paint1_linear_9660_727)"/>
<path d="M42.3443 45.3955L40.5091 50.9011C40.2341 51.7259 41.0189 52.5104 41.8437 52.2349L47.346 50.3973L42.3443 45.3955Z" fill="url(#paint2_linear_9660_727)"/>
<path d="M58.7281 28.0273L44.8359 41.9195L50.8273 47.9109C53.9671 44.7704 60.0766 38.6601 64.7188 34.018L58.7281 28.0273Z" fill="url(#paint3_linear_9660_727)"/>
<path d="M70.7624 21.9768C70.0209 21.2311 68.9291 20.8047 67.7713 20.8047C66.6135 20.8047 65.5219 21.2311 64.7761 21.9789L61.7109 25.0441L67.7013 31.0345C69.3794 29.3562 70.5392 28.1964 70.7668 27.969C72.4145 26.3187 72.4143 23.6308 70.7624 21.9768Z" fill="url(#paint4_linear_9660_727)"/>
<path d="M70.7656 27.9684L70.7659 27.9681C70.7713 27.9628 70.7736 27.9604 70.778 27.9561C70.7736 27.9606 70.7712 27.9629 70.7656 27.9684Z" fill="url(#paint5_linear_9660_727)"/>
<path d="M70.7812 27.9562C70.788 27.9495 70.7959 27.9416 70.8 27.9375C70.7957 27.9417 70.788 27.9495 70.7812 27.9562Z" fill="url(#paint6_linear_9660_727)"/>
<path d="M70.7969 27.9371C70.8105 27.9235 70.8108 27.9232 70.7969 27.9371V27.9371Z" fill="url(#paint7_linear_9660_727)"/>
</g>
<defs>
<linearGradient id="paint0_linear_9660_727" x1="43.2324" y1="9.49219" x2="53.314" y2="3.13463" gradientUnits="userSpaceOnUse">
<stop stop-color="#03159D"/>
<stop offset="1" stop-color="#7084FF"/>
</linearGradient>
<linearGradient id="paint1_linear_9660_727" x1="4.98468" y1="54" x2="54.4897" y2="30.3025" gradientUnits="userSpaceOnUse">
<stop stop-color="#03159D"/>
<stop offset="1" stop-color="#7084FF"/>
</linearGradient>
<linearGradient id="paint2_linear_9660_727" x1="41.0798" y1="50.5672" x2="46.564" y2="47.1213" gradientUnits="userSpaceOnUse">
<stop stop-color="#03159D"/>
<stop offset="1" stop-color="#7084FF"/>
</linearGradient>
<linearGradient id="paint3_linear_9660_727" x1="46.6435" y1="42.94" x2="62.4597" y2="32.9987" gradientUnits="userSpaceOnUse">
<stop stop-color="#03159D"/>
<stop offset="1" stop-color="#7084FF"/>
</linearGradient>
<linearGradient id="paint4_linear_9660_727" x1="62.6465" y1="28.477" x2="70.8048" y2="23.3182" gradientUnits="userSpaceOnUse">
<stop stop-color="#03159D"/>
<stop offset="1" stop-color="#7084FF"/>
</linearGradient>
<linearGradient id="paint5_linear_9660_727" x1="70.7668" y1="27.9653" x2="70.7766" y2="27.9591" gradientUnits="userSpaceOnUse">
<stop stop-color="#03159D"/>
<stop offset="1" stop-color="#7084FF"/>
</linearGradient>
<linearGradient id="paint6_linear_9660_727" x1="70.783" y1="27.9515" x2="70.7978" y2="27.9422" gradientUnits="userSpaceOnUse">
<stop stop-color="#03159D"/>
<stop offset="1" stop-color="#7084FF"/>
</linearGradient>
<linearGradient id="paint7_linear_9660_727" x1="70.7978" y1="27.9345" x2="70.806" y2="27.9293" gradientUnits="userSpaceOnUse">
<stop stop-color="#03159D"/>
<stop offset="1" stop-color="#7084FF"/>
</linearGradient>
<clipPath id="clip0_9660_727">
<rect width="72" height="72" fill="white"/>
</clipPath>
</defs>
</svg>
