<svg width="72" height="72" viewBox="0 0 72 72" fill="none" xmlns="http://www.w3.org/2000/svg">
<path d="M27.7112 16.083H39.6159C42.3362 16.083 44.3184 13.509 43.6232 10.8787L43.1507 9.0945C42.6242 7.10325 41.0514 5.517 39.0354 5.0985C37.2399 4.72725 35.4512 4.52475 33.6624 4.5C31.8737 4.52475 30.0849 4.72725 28.2894 5.10075C26.2734 5.51925 24.7007 7.1055 24.1742 9.09675L23.7017 10.881C23.0087 13.509 24.9909 16.083 27.7112 16.083Z" fill="url(#paint0_linear_9660_2909)"/>
<path d="M52.1684 37.7171C54.4679 37.7171 56.6414 38.2526 58.5944 39.1796V21.9828C58.5944 16.2678 53.9594 11.6328 48.2444 11.6328H47.7966C47.8731 13.5273 47.2971 15.3926 46.1069 16.9383C44.5431 18.9678 42.1761 20.1333 39.6134 20.1333H27.7086C25.1459 20.1333 22.7811 18.9678 21.2174 16.9383C20.0271 15.3948 19.4511 13.5296 19.5276 11.6328H19.0844C13.3694 11.6328 8.73438 16.2678 8.73438 21.9828V52.1778C8.73438 57.8928 13.3694 62.5278 19.0844 62.5278H40.1894C38.3534 59.6906 37.0124 56.4618 37.0124 53.0171C37.0124 44.5796 43.8119 37.7171 52.1684 37.7171ZM22.2659 51.5118H20.4006C19.2824 51.5118 18.3756 50.6051 18.3756 49.4868C18.3756 48.3686 19.2824 47.4618 20.4006 47.4618H22.2659C23.3841 47.4618 24.2909 48.3686 24.2909 49.4868C24.2909 50.6051 23.3841 51.5118 22.2659 51.5118ZM22.2659 41.3171H20.4006C19.2824 41.3171 18.3756 40.4103 18.3756 39.2921C18.3756 38.1738 19.2824 37.2671 20.4006 37.2671H22.2659C23.3841 37.2671 24.2909 38.1738 24.2909 39.2921C24.2909 40.4103 23.3841 41.3171 22.2659 41.3171ZM22.2659 31.1426H20.4006C19.2824 31.1426 18.3756 30.2358 18.3756 29.1176C18.3756 27.9993 19.2824 27.0926 20.4006 27.0926H22.2659C23.3841 27.0926 24.2909 27.9993 24.2909 29.1176C24.2909 30.2358 23.3841 31.1426 22.2659 31.1426ZM38.9744 41.3103H30.1094C28.9911 41.3103 28.0844 40.4036 28.0844 39.2853C28.0844 38.1671 28.9911 37.2603 30.1094 37.2603H38.9744C40.0926 37.2603 40.9994 38.1671 40.9994 39.2853C40.9994 40.4036 40.0926 41.3103 38.9744 41.3103ZM30.1004 27.0903H46.9236C48.0419 27.0903 48.9486 27.9971 48.9486 29.1153C48.9486 30.2336 48.0419 31.1403 46.9236 31.1403H30.1004C28.9821 31.1403 28.0754 30.2336 28.0754 29.1153C28.0754 27.9971 28.9821 27.0903 30.1004 27.0903ZM33.5294 51.5051H30.1094C28.9911 51.5051 28.0844 50.5983 28.0844 49.4801C28.0844 48.3618 28.9911 47.4551 30.1094 47.4551H33.5294C34.6476 47.4551 35.5544 48.3618 35.5544 49.4801C35.5544 50.5983 34.6476 51.5051 33.5294 51.5051Z" fill="url(#paint1_linear_9660_2909)"/>
<path d="M52.1685 41.7676C46.035 41.7676 41.0625 46.8053 41.0625 53.0176C41.0625 58.1543 45.2587 63.0481 48.492 66.0586C50.5598 67.9846 53.7773 67.9846 55.845 66.0586C59.0783 63.0481 63.2745 58.1543 63.2745 53.0176C63.2723 46.8031 58.302 41.7676 52.1685 41.7676ZM54.1913 52.9478C54.1913 54.0661 53.2845 54.9728 52.1663 54.9728C51.048 54.9728 50.1413 54.0661 50.1413 52.9478C50.1413 51.8296 51.048 50.8396 52.1663 50.8396C53.2845 50.8396 54.1913 51.6631 54.1913 52.7813V52.9478Z" fill="url(#paint2_linear_9660_2909)"/>
<defs>
<linearGradient id="paint0_linear_9660_2909" x1="25.3989" y1="13.1872" x2="35.5808" y2="2.02565" gradientUnits="userSpaceOnUse">
<stop stop-color="#03159D"/>
<stop offset="1" stop-color="#7084FF"/>
</linearGradient>
<linearGradient id="paint1_linear_9660_2909" x1="13.2671" y1="49.8041" x2="53.3859" y2="25.0994" gradientUnits="userSpaceOnUse">
<stop stop-color="#03159D"/>
<stop offset="1" stop-color="#7084FF"/>
</linearGradient>
<linearGradient id="paint2_linear_9660_2909" x1="43.0818" y1="61.0692" x2="62.1262" y2="50.7374" gradientUnits="userSpaceOnUse">
<stop stop-color="#03159D"/>
<stop offset="1" stop-color="#7084FF"/>
</linearGradient>
</defs>
</svg>
