<svg width="72" height="72" viewBox="0 0 72 72" fill="none" xmlns="http://www.w3.org/2000/svg">
<path d="M35.9998 22.2832C28.4352 22.2832 22.2812 28.4372 22.2812 36.0012C22.2812 43.5659 28.4352 49.7198 35.9998 49.7198C43.5639 49.7198 49.7179 43.5659 49.7179 36.0012C49.7179 28.4372 43.5639 22.2832 35.9998 22.2832ZM44.1445 33.4178L34.3167 43.2456C33.9042 43.6581 33.3631 43.8647 32.8226 43.8647C32.2821 43.8647 31.7416 43.6587 31.329 43.2456L27.5733 39.4899C26.7483 38.6654 26.7483 37.3278 27.5733 36.5028C28.3979 35.6777 29.7355 35.6777 30.5605 36.5028L32.8226 38.7648L41.1574 30.4306C41.9819 29.6056 43.3195 29.6056 44.1445 30.4306C44.9696 31.2552 44.9696 32.5927 44.1445 33.4178Z" fill="url(#paint0_linear_9660_1436)"/>
<path d="M66.5841 19.5354L66.5819 19.4794C66.5506 18.7878 66.5297 18.0561 66.5171 17.242C66.4583 13.2721 63.3025 9.98833 59.332 9.76641C51.0539 9.30443 44.6499 6.6051 39.1782 1.2718L39.1315 1.22731C37.3468 -0.409102 34.6546 -0.409102 32.8693 1.22731L32.8226 1.2718C27.3509 6.6051 20.947 9.30443 12.6688 9.76696C8.69894 9.98833 5.54258 13.2721 5.4838 17.2426C5.47171 18.0512 5.45029 18.7829 5.41898 19.4794L5.41568 19.6096C5.25474 28.0509 5.05478 38.5565 8.5693 48.0921C10.5018 53.3359 13.4285 57.8941 17.2677 61.641C21.6402 65.908 27.3674 69.2957 34.2899 71.7094C34.5151 71.7879 34.7491 71.8516 34.9875 71.8994C35.3237 71.9664 35.6621 71.9999 36.0004 71.9999C36.3388 71.9999 36.6777 71.9664 37.0134 71.8994C37.2518 71.8516 37.4874 71.7874 37.7137 71.7083C44.628 69.2902 50.3491 65.9009 54.7178 61.6344C58.5553 57.8864 61.4821 53.3271 63.4162 48.0822C66.9439 38.5181 66.7445 27.9927 66.5841 19.5354ZM35.9993 53.9445C26.1051 53.9445 18.056 45.8954 18.056 36.0011C18.056 26.1069 26.1051 18.0578 35.9993 18.0578C45.893 18.0578 53.9427 26.1069 53.9427 36.0011C53.9427 45.8954 45.893 53.9445 35.9993 53.9445Z" fill="url(#paint1_linear_9660_1436)"/>
<defs>
<linearGradient id="paint0_linear_9660_1436" x1="24.7755" y1="42.8607" x2="46.6001" y2="29.1424" gradientUnits="userSpaceOnUse">
<stop stop-color="#03159D"/>
<stop offset="1" stop-color="#7084FF"/>
</linearGradient>
<linearGradient id="paint1_linear_9660_1436" x1="10.9175" y1="54" x2="63.8051" y2="25.6912" gradientUnits="userSpaceOnUse">
<stop stop-color="#03159D"/>
<stop offset="1" stop-color="#7084FF"/>
</linearGradient>
</defs>
</svg>
