<svg width="72" height="72" viewBox="0 0 72 72" fill="none" xmlns="http://www.w3.org/2000/svg">
<path d="M6.75 60.75C5.50635 60.75 4.5 59.7426 4.5 58.5V6.75C4.5 5.50745 5.50635 4.5 6.75 4.5H36C37.2437 4.5 38.25 5.50745 38.25 6.75C38.25 7.99255 37.2437 9 36 9H9V58.5C9 59.7426 7.99365 60.75 6.75 60.75Z" fill="url(#paint0_linear_9660_583)"/>
<path d="M63 45C63 36.3153 55.9336 29.25 47.25 29.25C38.5664 29.25 31.5 36.3153 31.5 45C29.0193 45 27 47.0182 27 49.5V54C27 56.4818 29.0193 58.5 31.5 58.5H36C37.2437 58.5 38.25 57.4926 38.25 56.25V47.25C38.25 46.0074 37.2437 45 36 45C36 38.7971 41.0471 33.75 47.25 33.75C53.4529 33.75 58.5 38.7971 58.5 45C57.2563 45 56.25 46.0074 56.25 47.25V56.25C56.25 60.9796 52.4575 62.4331 49.4956 62.8473C49.4165 61.6761 48.4409 60.75 47.25 60.75H45C43.7563 60.75 42.75 61.7574 42.75 63V65.25C42.75 66.4926 43.7563 67.5 45 67.5H47.25C54.5072 67.5 59.475 64.0329 60.5257 58.5H63C65.4807 58.5 67.5 56.4818 67.5 54V49.5C67.5 47.0182 65.4807 45 63 45Z" fill="url(#paint1_linear_9660_583)"/>
<path d="M53.3408 20.9092L44.3408 11.9092C43.9189 11.4873 43.3477 11.25 42.75 11.25H13.5C12.2563 11.25 11.25 12.2574 11.25 13.5V65.25C11.25 66.4926 12.2563 67.5 13.5 67.5H37.9605C35.2425 65.9465 33.2479 63.652 32.2471 60.75H31.5H19.125C18.5032 60.75 18 60.2468 18 59.625C18 59.0032 18.5032 58.5 19.125 58.5H26.5056C25.4262 57.303 24.75 55.735 24.75 54V51.75H19.125C18.5032 51.75 18 51.2468 18 50.625C18 50.0032 18.5032 49.5 19.125 49.5H24.75C24.75 46.5293 26.6792 44.0013 29.3489 43.1016C29.3614 42.9826 29.3879 42.8682 29.4027 42.75H19.125C18.5032 42.75 18 42.2468 18 41.625C18 41.0032 18.5032 40.5 19.125 40.5H29.8386C30.486 37.9984 31.6509 35.7074 33.2242 33.75H19.125C18.5032 33.75 18 33.2468 18 32.625C18 32.0032 18.5032 31.5 19.125 31.5H35.3703C38.5433 28.7047 42.6992 27 47.25 27C49.6371 27 51.9136 27.4738 54 28.3212V22.5C54 21.9034 53.7627 21.3311 53.3408 20.9092ZM46.125 24.75H19.125C18.5032 24.75 18 24.2468 18 23.625C18 23.0032 18.5032 22.5 19.125 22.5H46.125C46.7468 22.5 47.25 23.0032 47.25 23.625C47.25 24.2468 46.7468 24.75 46.125 24.75Z" fill="url(#paint2_linear_9660_583)"/>
<defs>
<linearGradient id="paint0_linear_9660_583" x1="7.56818" y1="46.6875" x2="40.358" y2="34.3211" gradientUnits="userSpaceOnUse">
<stop stop-color="#03159D"/>
<stop offset="1" stop-color="#7084FF"/>
</linearGradient>
<linearGradient id="paint1_linear_9660_583" x1="30.6818" y1="57.9375" x2="61.8294" y2="37.2073" gradientUnits="userSpaceOnUse">
<stop stop-color="#03159D"/>
<stop offset="1" stop-color="#7084FF"/>
</linearGradient>
<linearGradient id="paint2_linear_9660_583" x1="15.1364" y1="53.4375" x2="53.7628" y2="34.9851" gradientUnits="userSpaceOnUse">
<stop stop-color="#03159D"/>
<stop offset="1" stop-color="#7084FF"/>
</linearGradient>
</defs>
</svg>
