<svg width="64" height="64" viewBox="0 0 64 64" fill="none" xmlns="http://www.w3.org/2000/svg">
<g filter="url(#filter0_i_9256_11103)">
<rect width="64" height="64" rx="16" fill="#020E6A"/>
<rect width="64" height="64" rx="16" fill="url(#paint0_linear_9256_11103)"/>
<path d="M37.3307 44V41.3333C37.3307 39.9188 36.7688 38.5623 35.7686 37.5621C34.7684 36.5619 33.4119 36 31.9974 36H23.9974C22.5829 36 21.2264 36.5619 20.2262 37.5621C19.226 38.5623 18.6641 39.9188 18.6641 41.3333V44" stroke="white" stroke-width="2.66667" stroke-linecap="round" stroke-linejoin="round"/>
<path d="M27.9974 30.6667C30.9429 30.6667 33.3307 28.2789 33.3307 25.3333C33.3307 22.3878 30.9429 20 27.9974 20C25.0519 20 22.6641 22.3878 22.6641 25.3333C22.6641 28.2789 25.0519 30.6667 27.9974 30.6667Z" stroke="white" stroke-width="2.66667" stroke-linecap="round" stroke-linejoin="round"/>
<path d="M45.3359 44V41.3333C45.3351 40.1516 44.9417 39.0037 44.2178 38.0698C43.4938 37.1358 42.4801 36.4688 41.3359 36.1733" stroke="white" stroke-width="2.66667" stroke-linecap="round" stroke-linejoin="round"/>
<path d="M37.3359 20.1733C38.4832 20.4671 39.5 21.1343 40.2261 22.0698C40.9523 23.0052 41.3464 24.1558 41.3464 25.34C41.3464 26.5242 40.9523 27.6748 40.2261 28.6103C39.5 29.5457 38.4832 30.2129 37.3359 30.5067" stroke="white" stroke-width="2.66667" stroke-linecap="round" stroke-linejoin="round"/>
</g>
<defs>
<filter id="filter0_i_9256_11103" x="0" y="0" width="64" height="65" filterUnits="userSpaceOnUse" color-interpolation-filters="sRGB">
<feFlood flood-opacity="0" result="BackgroundImageFix"/>
<feBlend mode="normal" in="SourceGraphic" in2="BackgroundImageFix" result="shape"/>
<feColorMatrix in="SourceAlpha" type="matrix" values="0 0 0 0 0 0 0 0 0 0 0 0 0 0 0 0 0 0 127 0" result="hardAlpha"/>
<feOffset dy="1"/>
<feGaussianBlur stdDeviation="0.5"/>
<feComposite in2="hardAlpha" operator="arithmetic" k2="-1" k3="1"/>
<feColorMatrix type="matrix" values="0 0 0 0 0.811765 0 0 0 0 0.905882 0 0 0 0 1 0 0 0 0.2 0"/>
<feBlend mode="normal" in2="shape" result="effect1_innerShadow_9256_11103"/>
</filter>
<linearGradient id="paint0_linear_9256_11103" x1="0" y1="32" x2="64" y2="32" gradientUnits="userSpaceOnUse">
<stop stop-color="#7084FF"/>
<stop offset="1" stop-color="#03159D"/>
</linearGradient>
</defs>
</svg>
