<svg width="72" height="48" viewBox="0 0 72 48" fill="none" xmlns="http://www.w3.org/2000/svg">
<rect width="72" height="48" rx="8" fill="url(#paint0_linear_9660_3066)"/>
<path d="M37.5757 29.2706L32.4657 26.4836C31.9752 26.9705 31.3515 27.3013 30.6733 27.4342C29.9951 27.5672 29.2927 27.4964 28.6546 27.2307C28.0166 26.9651 27.4715 26.5164 27.0881 25.9414C26.7046 25.3664 26.5 24.6908 26.5 23.9996C26.5 23.3085 26.7046 22.6328 27.0881 22.0578C27.4715 21.4828 28.0166 21.0342 28.6546 20.7685C29.2927 20.5029 29.9951 20.432 30.6733 20.565C31.3515 20.6979 31.9752 21.0287 32.4657 21.5156L37.5757 18.7286C37.4005 17.9064 37.527 17.0485 37.9323 16.3119C38.3376 15.5753 38.9945 15.0092 39.7828 14.7171C40.5712 14.425 41.4383 14.4264 42.2257 14.7211C43.0131 15.0158 43.6681 15.5841 44.0709 16.3221C44.4737 17.06 44.5975 17.9183 44.4195 18.74C44.2415 19.5617 43.7737 20.2918 43.1016 20.7969C42.4295 21.302 41.5981 21.5483 40.7593 21.4908C39.9206 21.4333 39.1305 21.0758 38.5337 20.4836L33.4237 23.2706C33.5259 23.7509 33.5259 24.2473 33.4237 24.7276L38.5337 27.5156C39.1305 26.9235 39.9206 26.566 40.7593 26.5084C41.5981 26.4509 42.4295 26.6972 43.1016 27.2023C43.7737 27.7074 44.2415 28.4376 44.4195 29.2593C44.5975 30.0809 44.4737 30.9392 44.0709 31.6772C43.6681 32.4151 43.0131 32.9834 42.2257 33.2781C41.4383 33.5728 40.5712 33.5743 39.7828 33.2822C38.9945 32.9901 38.3376 32.424 37.9323 31.6874C37.527 30.9508 37.4005 30.0929 37.5757 29.2706Z" fill="white"/>
<defs>
<linearGradient id="paint0_linear_9660_3066" x1="6.54545" y1="36" x2="48.8441" y2="-3.88159" gradientUnits="userSpaceOnUse">
<stop stop-color="#03159D"/>
<stop offset="1" stop-color="#7084FF"/>
</linearGradient>
</defs>
</svg>
