<svg width="72" height="72" viewBox="0 0 72 72" fill="none" xmlns="http://www.w3.org/2000/svg">
<path fill-rule="evenodd" clip-rule="evenodd" d="M42.75 4.5C56.4098 4.5 67.5 15.5903 67.5 29.25C67.5 42.9098 56.4098 54 42.75 54C29.0903 54 18 42.9098 18 29.25C18 15.5903 29.0903 4.5 42.75 4.5ZM42.75 8.29688C31.1861 8.29688 21.7969 17.6861 21.7969 29.25C21.7969 40.8139 31.1861 50.2031 42.75 50.2031C54.3139 50.2031 63.7031 40.8139 63.7031 29.25C63.7031 17.6861 54.3139 8.29688 42.75 8.29688ZM45 48.6686C44.2609 48.753 43.5105 48.7969 42.75 48.7969C31.9613 48.7969 23.2031 40.0387 23.2031 29.25C23.2031 18.4613 31.9613 9.70312 42.75 9.70312C53.5387 9.70312 62.2969 18.4613 62.2969 29.25C62.2969 37.6661 56.9666 44.847 49.5 47.5988V20.25C49.5 19.0069 48.4931 18 47.25 18H40.5C40.1119 18 39.7969 18.315 39.7969 18.7031C39.7969 19.0913 40.1119 19.4062 40.5 19.4062H45V22.5H36C35.6119 22.5 35.2969 22.815 35.2969 23.2031C35.2969 23.5912 35.6119 23.9062 36 23.9062H45V27H40.5C40.1119 27 39.7969 27.315 39.7969 27.7031C39.7969 28.0912 40.1119 28.4062 40.5 28.4062H45V48.6686Z" fill="url(#paint0_linear_9687_6743)"/>
<path fill-rule="evenodd" clip-rule="evenodd" d="M49.5 57.0938H54C55.6313 57.0938 56.9531 58.4156 56.9531 60.0469C56.9531 61.6781 55.6313 63 54 63H52.0155C52.2934 63.45 52.4531 63.9799 52.4531 64.5469C52.4531 66.1781 51.1313 67.5 49.5 67.5C48.1252 67.5 46.3748 67.5 45 67.5C43.3688 67.5 42.0469 66.1781 42.0469 64.5469C42.0469 63.9799 42.2066 63.45 42.4845 63H40.5C38.8687 63 37.5469 61.6781 37.5469 60.0469C37.5469 58.4156 38.8687 57.0938 40.5 57.0938H45V55.3106C46.5424 55.179 48.0454 54.9135 49.5 54.5254V57.0938ZM49.5 63H45C44.1461 63 43.4531 63.693 43.4531 64.5469C43.4531 65.4008 44.1461 66.0938 45 66.0938H49.5C50.3539 66.0938 51.0469 65.4008 51.0469 64.5469C51.0469 63.693 50.3539 63 49.5 63ZM54 58.5H49.5C48.6461 58.5 47.9531 59.193 47.9531 60.0469C47.9531 60.9008 48.6461 61.5938 49.5 61.5938H54C54.8539 61.5938 55.5469 60.9008 55.5469 60.0469C55.5469 59.193 54.8539 58.5 54 58.5ZM45 61.5938C45.8539 61.5938 46.5469 60.9008 46.5469 60.0469C46.5469 59.193 45.8539 58.5 45 58.5C43.6252 58.5 41.8748 58.5 40.5 58.5C39.6461 58.5 38.9531 59.193 38.9531 60.0469C38.9531 60.9008 39.6461 61.5938 40.5 61.5938H45Z" fill="url(#paint1_linear_9687_6743)"/>
<path fill-rule="evenodd" clip-rule="evenodd" d="M20.25 47.25L22.1445 45.3555C23.4585 47.0328 24.9716 48.5471 26.6501 49.8588L24.7523 51.7522L25.4093 52.4092C25.8311 52.8311 26.0685 53.4037 26.0685 54C26.0685 54.5962 25.8311 55.1688 25.4093 55.5907C21.8385 59.1615 13.5 67.5 13.5 67.5L4.5 58.5C4.5 58.5 12.8385 50.1615 16.4093 46.5907C16.8311 46.1688 17.4038 45.9315 18 45.9315C18.5962 45.9315 19.1689 46.1688 19.5907 46.5907L20.25 47.25Z" fill="url(#paint2_linear_9687_6743)"/>
<defs>
<linearGradient id="paint0_linear_9687_6743" x1="22.5" y1="41.625" x2="61.875" y2="16.875" gradientUnits="userSpaceOnUse">
<stop stop-color="#03159D"/>
<stop offset="1" stop-color="#7084FF"/>
</linearGradient>
<linearGradient id="paint1_linear_9687_6743" x1="39.3111" y1="64.2564" x2="50.7426" y2="53.5089" gradientUnits="userSpaceOnUse">
<stop stop-color="#03159D"/>
<stop offset="1" stop-color="#7084FF"/>
</linearGradient>
<linearGradient id="paint2_linear_9687_6743" x1="6.51365" y1="61.9638" x2="24.1305" y2="50.8876" gradientUnits="userSpaceOnUse">
<stop stop-color="#03159D"/>
<stop offset="1" stop-color="#7084FF"/>
</linearGradient>
</defs>
</svg>
