<svg width="72" height="72" viewBox="0 0 72 72" fill="none" xmlns="http://www.w3.org/2000/svg">
<path d="M19.7213 18.09C19.8986 18.1891 20.1002 18.2364 20.3031 18.2265C20.506 18.2165 20.702 18.1497 20.8688 18.0338L23.625 16.2L26.3813 18.0338C26.5503 18.146 26.7466 18.2103 26.9493 18.2199C27.1519 18.2295 27.3534 18.1839 27.5323 18.0882C27.7112 17.9924 27.8607 17.8499 27.9651 17.6759C28.0695 17.5019 28.1247 17.3029 28.125 17.1V5.625C28.1241 5.32691 28.0053 5.04127 27.7945 4.83049C27.5838 4.6197 27.2981 4.50089 27 4.5H20.25C19.9519 4.50089 19.6663 4.6197 19.4555 4.83049C19.2447 5.04127 19.1259 5.32691 19.125 5.625V17.1C19.1236 17.3039 19.1785 17.5043 19.2837 17.679C19.3889 17.8537 19.5403 17.9959 19.7213 18.09Z" fill="url(#paint0_linear_9687_8405)"/>
<path d="M36.0038 35.4375C35.1908 35.4349 34.3854 35.5936 33.6341 35.9045C32.8829 36.2154 32.2009 36.6723 31.6276 37.2488C31.6073 37.2804 31.5804 37.3072 31.5488 37.3275C30.8461 38.0555 30.3325 38.9447 30.0531 39.9173C29.7737 40.8898 29.737 41.916 29.9462 42.906C30.1555 43.896 30.6042 44.8196 31.2532 45.596C31.9022 46.3723 32.7316 46.9777 33.6688 47.3591C34.606 47.7406 35.6225 47.8864 36.6291 47.7839C37.6358 47.6813 38.602 47.3335 39.443 46.771C40.2841 46.2084 40.9744 45.4482 41.4536 44.557C41.9327 43.6658 42.186 42.6706 42.1913 41.6588C42.1959 40.0123 41.5488 38.4309 40.3913 37.26C39.8173 36.6806 39.1338 36.2211 38.3806 35.9082C37.6274 35.5954 36.8194 35.4354 36.0038 35.4375Z" fill="url(#paint1_linear_9687_8405)"/>
<path d="M48.5922 39.2508C48.2384 39.1443 47.9151 38.9551 47.6491 38.6988C47.383 38.4425 47.1818 38.1265 47.0622 37.777C46.9138 37.3512 46.741 36.9342 46.5447 36.5283C46.3835 36.198 46.3025 35.8343 46.3084 35.4667C46.3142 35.0992 46.4068 34.7383 46.5784 34.4133L47.5909 32.5683L45.1047 30.0483L43.2259 31.0495C42.8989 31.2212 42.5361 31.3137 42.1668 31.3196C41.7975 31.3255 41.432 31.2445 41.0997 31.0833C40.6934 30.8877 40.2765 30.715 39.8509 30.5658C39.5024 30.4444 39.1874 30.2426 38.9313 29.9768C38.6753 29.711 38.4855 29.3886 38.3772 29.0358L37.8484 27.2358C37.8294 27.1461 37.791 27.0616 37.7359 26.9883L34.2484 26.9995L33.6297 29.0358C33.5214 29.3886 33.3316 29.711 33.0755 29.9768C32.8195 30.2426 32.5045 30.4444 32.1559 30.5658C31.7304 30.715 31.3135 30.8877 30.9071 31.0833C30.5748 31.2445 30.2093 31.3255 29.84 31.3196C29.4707 31.3137 29.108 31.2212 28.7809 31.0495L26.9472 30.037L26.9022 30.0482L24.4272 32.5232L25.4172 34.4132C25.5933 34.7365 25.6893 35.0972 25.6972 35.4652C25.705 35.8333 25.6244 36.1978 25.4622 36.5282C25.2658 36.9342 25.093 37.3511 24.9447 37.777C24.8256 38.125 24.626 38.4399 24.3621 38.696C24.0981 38.9521 23.7773 39.1422 23.4259 39.2507L21.6147 39.7795C21.525 39.7985 21.4405 39.8369 21.3672 39.892L21.3784 43.3795L23.4147 44.0095C23.7678 44.1136 24.091 44.3007 24.3571 44.5551C24.6233 44.8095 24.8247 45.1239 24.9447 45.472C25.089 45.8993 25.2619 46.3165 25.4622 46.7207C25.6244 47.0531 25.705 47.4195 25.6972 47.7893C25.6893 48.1591 25.5933 48.5217 25.4172 48.847L24.4159 50.6807L26.9022 53.2007L28.7809 52.2107C29.1145 52.0248 29.4903 51.9279 29.8722 51.9295C30.2306 51.9287 30.5846 52.0095 30.9072 52.1657C31.3123 52.3641 31.7294 52.5369 32.156 52.6832C32.5045 52.8046 32.8195 53.0064 33.0756 53.2722C33.3316 53.538 33.5215 53.8604 33.6297 54.2132L34.1585 56.0245C34.1788 56.1103 34.2171 56.1909 34.271 56.2607L37.7585 56.2495L38.3772 54.2132C38.4855 53.8604 38.6754 53.538 38.9314 53.2722C39.1874 53.0064 39.5025 52.8046 39.851 52.6832C40.2776 52.5369 40.6947 52.3641 41.0997 52.1657C41.4321 52.0034 41.7985 51.9229 42.1683 51.9307C42.5381 51.9385 42.9008 52.0345 43.226 52.2107L45.0597 53.212L47.5797 50.7257L46.5897 48.847C46.4136 48.5217 46.3177 48.1591 46.3099 47.7893C46.302 47.4195 46.3826 47.0532 46.5447 46.7207C46.745 46.3165 46.9179 45.8993 47.0622 45.472C47.1822 45.1239 47.3837 44.8095 47.6498 44.5551C47.916 44.3007 48.2391 44.1136 48.5922 44.0095L50.3922 43.4807C50.4842 43.4621 50.5696 43.4194 50.6397 43.357L50.6284 39.8808L48.5922 39.2508ZM41.9772 47.5983C40.3941 49.1815 38.2471 50.0712 36.0082 50.0718C33.7693 50.0724 31.6218 49.1838 30.0379 47.6014C28.454 46.019 27.5633 43.8723 27.5618 41.6334C27.5603 39.3945 28.448 37.2466 30.0297 35.662C30.0605 35.6289 30.0944 35.5988 30.1309 35.572C31.7189 34.0272 33.8516 33.1704 36.0669 33.1872C38.2822 33.2041 40.4017 34.0933 41.9659 35.662C43.5487 37.2442 44.4389 39.3899 44.441 41.6278C44.4431 43.8658 43.557 46.0131 41.9772 47.5983Z" fill="url(#paint2_linear_9687_8405)"/>
<path d="M57.3751 4.50002H30.1726C30.3088 4.85934 30.3774 5.24074 30.3751 5.62502V17.1C30.3782 17.7187 30.2095 18.3261 29.8877 18.8544C29.5659 19.3828 29.1037 19.8115 28.5525 20.0925C28.0747 20.3465 27.5412 20.4779 27.0001 20.475C26.3261 20.4712 25.6683 20.2676 25.1101 19.89L23.6251 18.9L22.1175 19.9013C21.5695 20.2813 20.9169 20.4817 20.2501 20.475C19.3564 20.4704 18.5006 20.1134 17.8686 19.4814C17.2367 18.8495 16.8796 17.9937 16.8751 17.1V5.62502C16.8727 5.24074 16.9413 4.85934 17.0776 4.50002H14.6251C14.0312 4.49818 13.4479 4.6576 12.9376 4.96127C12.4226 5.25297 11.9947 5.67676 11.6981 6.18894C11.4014 6.70112 11.2468 7.28315 11.2501 7.87502V64.125C11.2527 65.0193 11.6091 65.8762 12.2415 66.5086C12.8738 67.141 13.7308 67.4974 14.6251 67.5H57.3751C58.2694 67.4974 59.1263 67.141 59.7586 66.5086C60.391 65.8762 60.7474 65.0193 60.7501 64.125V7.87502C60.7474 6.98071 60.391 6.12378 59.7587 5.49141C59.1263 4.85904 58.2694 4.50262 57.3751 4.50002ZM52.8751 43.38C52.8633 43.9086 52.6754 44.4181 52.3412 44.8277C52.007 45.2374 51.5455 45.5237 51.0301 45.6413L49.2188 46.17C49.0163 46.71 48.8026 47.2163 48.5663 47.7L49.5563 49.6013C49.7941 50.0358 49.8854 50.5354 49.8164 51.0259C49.7475 51.5164 49.5221 51.9716 49.1738 52.3238L46.6988 54.7988C46.3463 55.1462 45.892 55.3718 45.4022 55.4426C44.9124 55.5135 44.4128 55.4258 43.9763 55.1925L42.1426 54.18C41.6359 54.4159 41.1178 54.6262 40.5901 54.81L39.9488 56.8575C39.8074 57.3302 39.5179 57.7451 39.123 58.0408C38.728 58.3365 38.2485 58.4975 37.7551 58.5H34.2451C33.7174 58.4896 33.2085 58.302 32.8004 57.9673C32.3923 57.6327 32.1086 57.1704 31.9951 56.655L31.4663 54.8438C30.9409 54.6549 30.4264 54.4371 29.9251 54.1913L28.0238 55.1925C27.5873 55.4258 27.0877 55.5135 26.5979 55.4426C26.1081 55.3718 25.6538 55.1462 25.3013 54.7988L22.8263 52.3238C22.478 51.9716 22.2526 51.5164 22.1837 51.0259C22.1147 50.5354 22.206 50.0358 22.4438 49.6013L23.4451 47.7675C23.1976 47.2163 22.9838 46.71 22.8151 46.215L20.7675 45.5738C20.294 45.4339 19.8782 45.1448 19.5823 44.7495C19.2863 44.3542 19.1259 43.8738 19.1251 43.38V39.8813C19.1334 39.3518 19.3201 38.8406 19.6549 38.4303C19.9897 38.0199 20.453 37.7345 20.97 37.62L22.7813 37.0913C22.9722 36.5667 23.19 36.0522 23.4338 35.55L22.4438 33.6488C22.206 33.2162 22.1147 32.7182 22.1837 32.2295C22.2526 31.7407 22.4781 31.2874 22.8263 30.9375L25.3013 28.4513C25.6549 28.1053 26.1099 27.8816 26.5997 27.8127C27.0896 27.7439 27.5886 27.8336 28.0238 28.0688L29.8576 29.07C30.4089 28.8225 30.9038 28.62 31.4101 28.44L32.0513 26.4038C32.1901 25.9286 32.4786 25.511 32.8739 25.2131C33.2692 24.9151 33.7501 24.7527 34.2451 24.75H37.7551C38.2843 24.7608 38.7945 24.9499 39.2029 25.2868C39.6112 25.6237 39.8939 26.0887 40.0051 26.6063L40.5338 28.4063C41.0963 28.62 41.5912 28.8225 42.0751 29.0588L43.9763 28.0688C44.4121 27.8327 44.9123 27.7435 45.4028 27.8145C45.8933 27.8854 46.3478 28.1127 46.6988 28.4625L49.1738 30.9375C49.5225 31.2895 49.7481 31.7447 49.817 32.2353C49.886 32.7259 49.7945 33.2256 49.5563 33.66L48.555 35.4938C48.7908 35.9966 49.0011 36.511 49.1851 37.035L51.2326 37.6763C51.7069 37.8186 52.1227 38.11 52.4185 38.5071C52.7143 38.9042 52.8744 39.3861 52.8751 39.8813V43.38Z" fill="url(#paint3_linear_9687_8405)"/>
<defs>
<linearGradient id="paint0_linear_9687_8405" x1="19.9432" y1="14.7958" x2="28.481" y2="11.2774" gradientUnits="userSpaceOnUse">
<stop stop-color="#03159D"/>
<stop offset="1" stop-color="#7084FF"/>
</linearGradient>
<linearGradient id="paint1_linear_9687_8405" x1="30.9379" y1="44.7212" x2="40.7844" y2="38.5316" gradientUnits="userSpaceOnUse">
<stop stop-color="#03159D"/>
<stop offset="1" stop-color="#7084FF"/>
</linearGradient>
<linearGradient id="paint2_linear_9687_8405" x1="24.0283" y1="48.9426" x2="47.3133" y2="34.3063" gradientUnits="userSpaceOnUse">
<stop stop-color="#03159D"/>
<stop offset="1" stop-color="#7084FF"/>
</linearGradient>
<linearGradient id="paint3_linear_9687_8405" x1="15.75" y1="51.75" x2="59.9107" y2="29.94" gradientUnits="userSpaceOnUse">
<stop stop-color="#03159D"/>
<stop offset="1" stop-color="#7084FF"/>
</linearGradient>
</defs>
</svg>
