<svg width="72" height="72" viewBox="0 0 72 72" fill="none" xmlns="http://www.w3.org/2000/svg">
<path d="M35.9502 23.1162C39.1285 23.1162 41.7051 20.5397 41.7051 17.3613C41.7051 14.183 39.1285 11.6064 35.9502 11.6064C32.7719 11.6064 30.1953 14.183 30.1953 17.3613C30.1953 20.5397 32.7719 23.1162 35.9502 23.1162Z" fill="url(#paint0_linear_9687_8413)"/>
<path fill-rule="evenodd" clip-rule="evenodd" d="M35.9527 3.93262C31.4621 3.93262 27.3985 5.38475 24.453 8.42655C21.5285 11.4462 19.6953 16.0486 19.6953 22.4097C19.6953 31.1931 24.8923 41.6881 29.8373 47.1925C31.1382 48.6403 32.425 49.7462 33.5956 50.4028C34.4448 50.8793 35.2433 51.1236 35.9527 51.1236C36.6625 51.1236 37.461 50.8793 38.3101 50.4028C39.4805 49.7462 40.7676 48.6403 42.0684 47.1925C47.0135 41.6881 52.2105 31.1931 52.2105 22.4097C52.2105 16.0486 50.3773 11.4462 47.4528 8.42655C44.5073 5.38475 40.4434 3.93262 35.9527 3.93262ZM35.9527 9.27734C42.2658 9.27734 47.3913 14.4028 47.3913 20.7159C47.3913 27.029 42.2658 32.1545 35.9527 32.1545C29.6397 32.1545 24.5142 27.029 24.5142 20.7159C24.5142 14.4028 29.6397 9.27734 35.9527 9.27734Z" fill="url(#paint1_linear_9687_8413)"/>
<path fill-rule="evenodd" clip-rule="evenodd" d="M35.8799 64.6804C36.6587 64.6847 37.4372 64.6192 38.2157 64.4841C38.5212 64.431 38.7259 64.1397 38.673 63.8345C38.6199 63.529 38.3287 63.324 38.0231 63.3771C37.311 63.5009 36.5985 63.5608 35.8861 63.557C35.5762 63.5551 35.323 63.8056 35.3214 64.1155C35.3195 64.4256 35.57 64.6788 35.8799 64.6804ZM31.2932 63.8474C32.0444 64.1165 32.7957 64.3201 33.547 64.4588C33.8517 64.5151 34.1451 64.3131 34.2015 64.0084C34.2576 63.7034 34.0559 63.41 33.7509 63.3539C33.0578 63.2261 32.3648 63.0379 31.6718 62.7895C31.38 62.6852 31.058 62.8373 30.9537 63.129C30.849 63.4211 31.0011 63.7428 31.2932 63.8474ZM40.476 63.8946C41.1874 63.6471 41.899 63.341 42.6104 62.9759C42.8862 62.8343 42.9952 62.4953 42.8536 62.2195C42.712 61.9436 42.3731 61.8347 42.0972 61.9762C41.4338 62.3168 40.7702 62.6027 40.1068 62.8335C39.814 62.9354 39.6589 63.2558 39.7609 63.5486C39.8628 63.8415 40.1831 63.9965 40.476 63.8946ZM27.1865 61.7236C27.8466 62.1704 28.507 62.5663 29.1671 62.9114C29.4419 63.0552 29.7817 62.9486 29.9254 62.6739C30.0689 62.3991 29.9627 62.0593 29.6876 61.9156C29.0639 61.5895 28.4401 61.2152 27.8164 60.7932C27.5594 60.6193 27.2099 60.6867 27.0363 60.9434C26.8623 61.2001 26.9298 61.5499 27.1865 61.7236ZM44.5997 61.8004C45.2153 61.3889 45.8312 60.9329 46.4469 60.4321C46.6874 60.2364 46.7238 59.8823 46.5283 59.6418C46.3325 59.4012 45.9785 59.3648 45.7379 59.5603C45.1503 60.0382 44.5627 60.4737 43.9751 60.8663C43.7173 61.0386 43.648 61.3878 43.8204 61.6456C43.9927 61.9034 44.3419 61.9727 44.5997 61.8004ZM24.9076 59.978C25.054 60.1032 25.2004 60.2259 25.3468 60.3461C25.5866 60.5427 25.9409 60.5079 26.1375 60.2682C26.3343 60.0287 26.2993 59.6744 26.0598 59.4775C25.9191 59.3621 25.7786 59.2443 25.6378 59.124C25.4021 58.9226 25.0472 58.9501 24.8458 59.1858C24.6441 59.4214 24.6719 59.7763 24.9076 59.978Z" fill="url(#paint2_linear_9687_8413)"/>
<path fill-rule="evenodd" clip-rule="evenodd" d="M36.5143 62.995V60.7479C36.5143 60.4378 36.2624 60.1859 35.9523 60.1859C35.6425 60.1859 35.3906 60.4378 35.3906 60.7479V62.995C35.3906 63.3051 35.6425 63.5567 35.9523 63.5567C36.2624 63.5567 36.5143 63.3051 36.5143 62.995ZM36.5143 58.5005V56.2534C36.5143 55.9433 36.2624 55.6917 35.9523 55.6917C35.6425 55.6917 35.3906 55.9433 35.3906 56.2534V58.5005C35.3906 58.8107 35.6425 59.0625 35.9523 59.0625C36.2624 59.0625 36.5143 58.8107 36.5143 58.5005ZM36.5143 54.0063V51.759C36.5143 51.4489 36.2624 51.1973 35.9523 51.1973C35.6425 51.1973 35.3906 51.4489 35.3906 51.759V54.0063C35.3906 54.3162 35.6425 54.5681 35.9523 54.5681C36.2624 54.5681 36.5143 54.3162 36.5143 54.0063Z" fill="url(#paint3_linear_9687_8413)"/>
<path fill-rule="evenodd" clip-rule="evenodd" d="M26.6328 25.1353C27.0263 23.2611 28.1952 21.6035 29.8885 20.6149C31.0502 22.7719 33.3296 24.2394 35.9491 24.2394C38.5724 24.2394 40.8548 22.7679 42.0147 20.6055C43.7187 21.5843 44.8933 23.2444 45.2816 25.1229C43.6275 28.6142 40.0709 31.0309 35.9543 31.0309C31.8422 31.0309 28.2891 28.6193 26.6328 25.1353ZM38.9667 27.7208H42.1624C42.4725 27.7208 42.7241 27.4692 42.7241 27.1591C42.7241 26.849 42.4725 26.5974 42.1624 26.5974H38.9667C38.6565 26.5974 38.405 26.849 38.405 27.1591C38.405 27.4692 38.6565 27.7208 38.9667 27.7208Z" fill="url(#paint4_linear_9687_8413)"/>
<path d="M15.1613 51.6869C18.9093 51.6869 21.9477 48.6486 21.9477 44.9006C21.9477 41.1526 18.9093 38.1143 15.1613 38.1143C11.4133 38.1143 8.375 41.1526 8.375 44.9006C8.375 48.6486 11.4133 51.6869 15.1613 51.6869Z" fill="url(#paint5_linear_9687_8413)"/>
<path d="M56.7395 51.6869C60.4875 51.6869 63.5258 48.6486 63.5258 44.9006C63.5258 41.1526 60.4875 38.1143 56.7395 38.1143C52.9915 38.1143 49.9531 41.1526 49.9531 44.9006C49.9531 48.6486 52.9915 51.6869 56.7395 51.6869Z" fill="url(#paint6_linear_9687_8413)"/>
<path fill-rule="evenodd" clip-rule="evenodd" d="M22.0826 48.7266C20.7338 51.1605 18.1377 52.8101 15.1596 52.8101C12.1852 52.8101 9.59209 51.1649 8.24135 48.7355C5.1316 50.3847 3.40198 53.893 4.07344 57.424C4.51191 59.7302 4.99272 62.2588 5.36405 64.2122C5.78256 66.4124 7.7058 68.0045 9.94535 68.0045H20.3738C22.6133 68.0045 24.5365 66.4124 24.9548 64.2122C25.3302 62.238 25.8174 59.6762 26.2597 57.3504C26.9276 53.8367 25.1929 50.3459 22.0826 48.7266ZM18.7763 57.2058H22.6066C22.9167 57.2058 23.1685 56.9543 23.1685 56.6441C23.1685 56.334 22.9167 56.0824 22.6066 56.0824H18.7763C18.4662 56.0824 18.2146 56.334 18.2146 56.6441C18.2146 56.9543 18.4662 57.2058 18.7763 57.2058Z" fill="url(#paint7_linear_9687_8413)"/>
<path fill-rule="evenodd" clip-rule="evenodd" d="M63.6607 48.7266C62.3116 51.1605 59.7158 52.8101 56.7377 52.8101C53.7633 52.8101 51.1702 51.1649 49.8195 48.7355C46.7097 50.3847 44.9801 53.893 45.6516 57.424C46.09 59.7302 46.5708 62.2588 46.9422 64.2122C47.3604 66.4124 49.2837 68.0045 51.5235 68.0045H61.9519C64.1914 68.0045 66.1147 66.4124 66.5329 64.2122C66.9083 62.238 67.3953 59.6762 67.8375 57.3504C68.5058 53.8367 66.771 50.3459 63.6607 48.7266ZM60.3544 57.2058H64.1847C64.4948 57.2058 64.7464 56.9543 64.7464 56.6441C64.7464 56.334 64.4948 56.0824 64.1847 56.0824H60.3544C60.0443 56.0824 59.7924 56.334 59.7924 56.6441C59.7924 56.9543 60.0443 57.2058 60.3544 57.2058Z" fill="url(#paint8_linear_9687_8413)"/>
<defs>
<linearGradient id="paint0_linear_9687_8413" x1="31.2417" y1="20.2388" x2="40.3971" y2="14.4839" gradientUnits="userSpaceOnUse">
<stop stop-color="#03159D"/>
<stop offset="1" stop-color="#7084FF"/>
</linearGradient>
<linearGradient id="paint1_linear_9687_8413" x1="22.6512" y1="39.3259" x2="53.0354" y2="26.1667" gradientUnits="userSpaceOnUse">
<stop stop-color="#03159D"/>
<stop offset="1" stop-color="#7084FF"/>
</linearGradient>
<linearGradient id="paint2_linear_9687_8413" x1="26.7058" y1="63.2578" x2="30.2487" y2="54.6716" gradientUnits="userSpaceOnUse">
<stop stop-color="#03159D"/>
<stop offset="1" stop-color="#7084FF"/>
</linearGradient>
<linearGradient id="paint3_linear_9687_8413" x1="35.4928" y1="60.4669" x2="36.7357" y2="60.3958" gradientUnits="userSpaceOnUse">
<stop stop-color="#03159D"/>
<stop offset="1" stop-color="#7084FF"/>
</linearGradient>
<linearGradient id="paint4_linear_9687_8413" x1="28.3282" y1="28.4245" x2="37.4683" y2="18.1476" gradientUnits="userSpaceOnUse">
<stop stop-color="#03159D"/>
<stop offset="1" stop-color="#7084FF"/>
</linearGradient>
<linearGradient id="paint5_linear_9687_8413" x1="9.60888" y1="48.2938" x2="20.4053" y2="41.5074" gradientUnits="userSpaceOnUse">
<stop stop-color="#03159D"/>
<stop offset="1" stop-color="#7084FF"/>
</linearGradient>
<linearGradient id="paint6_linear_9687_8413" x1="51.187" y1="48.2938" x2="61.9835" y2="41.5074" gradientUnits="userSpaceOnUse">
<stop stop-color="#03159D"/>
<stop offset="1" stop-color="#7084FF"/>
</linearGradient>
<linearGradient id="paint7_linear_9687_8413" x1="5.97261" y1="63.185" x2="22.1992" y2="51.2955" gradientUnits="userSpaceOnUse">
<stop stop-color="#03159D"/>
<stop offset="1" stop-color="#7084FF"/>
</linearGradient>
<linearGradient id="paint8_linear_9687_8413" x1="47.5507" y1="63.185" x2="63.7772" y2="51.2956" gradientUnits="userSpaceOnUse">
<stop stop-color="#03159D"/>
<stop offset="1" stop-color="#7084FF"/>
</linearGradient>
</defs>
</svg>
