<svg width="64" height="64" viewBox="0 0 64 64" fill="none" xmlns="http://www.w3.org/2000/svg">
<path d="M0 32C0 14.3269 14.3269 0 32 0C49.6731 0 64 14.3269 64 32C64 49.6731 49.6731 64 32 64C14.3269 64 0 49.6731 0 32Z" fill="#EFF6FF"/>
<path d="M35.9987 18.6665H23.9987C23.2915 18.6665 22.6132 18.9475 22.1131 19.4476C21.613 19.9476 21.332 20.6259 21.332 21.3332V42.6665C21.332 43.3737 21.613 44.052 22.1131 44.5521C22.6132 45.0522 23.2915 45.3332 23.9987 45.3332H39.9987C40.7059 45.3332 41.3842 45.0522 41.8843 44.5521C42.3844 44.052 42.6654 43.3737 42.6654 42.6665V25.3332L35.9987 18.6665Z" stroke="#155DFC" stroke-width="2.66667" stroke-linecap="round" stroke-linejoin="round"/>
<path d="M34.668 18.6665V23.9998C34.668 24.7071 34.9489 25.3854 35.449 25.8855C35.9491 26.3856 36.6274 26.6665 37.3346 26.6665H42.668" stroke="#155DFC" stroke-width="2.66667" stroke-linecap="round" stroke-linejoin="round"/>
<path d="M29.3346 28H26.668" stroke="#155DFC" stroke-width="2.66667" stroke-linecap="round" stroke-linejoin="round"/>
<path d="M37.3346 33.3335H26.668" stroke="#155DFC" stroke-width="2.66667" stroke-linecap="round" stroke-linejoin="round"/>
<path d="M37.3346 38.6665H26.668" stroke="#155DFC" stroke-width="2.66667" stroke-linecap="round" stroke-linejoin="round"/>
</svg>
