<svg width="64" height="64" viewBox="0 0 64 64" fill="none" xmlns="http://www.w3.org/2000/svg">
<path d="M0 32C0 14.3269 14.3269 0 32 0C49.6731 0 64 14.3269 64 32C64 49.6731 49.6731 64 32 64C14.3269 64 0 49.6731 0 32Z" fill="#FAF5FF"/>
<path d="M32 25.3335V44.0002" stroke="#9810FA" stroke-width="2.66667" stroke-linecap="round" stroke-linejoin="round"/>
<path d="M20.0013 40C19.6477 40 19.3085 39.8595 19.0585 39.6095C18.8084 39.3594 18.668 39.0203 18.668 38.6667V21.3333C18.668 20.9797 18.8084 20.6406 19.0585 20.3905C19.3085 20.1405 19.6477 20 20.0013 20H26.668C28.0825 20 29.439 20.5619 30.4392 21.5621C31.4394 22.5623 32.0013 23.9188 32.0013 25.3333C32.0013 23.9188 32.5632 22.5623 33.5634 21.5621C34.5636 20.5619 35.9201 20 37.3346 20H44.0013C44.3549 20 44.6941 20.1405 44.9441 20.3905C45.1942 20.6406 45.3346 20.9797 45.3346 21.3333V38.6667C45.3346 39.0203 45.1942 39.3594 44.9441 39.6095C44.6941 39.8595 44.3549 40 44.0013 40H36.0013C34.9404 40 33.923 40.4214 33.1729 41.1716C32.4227 41.9217 32.0013 42.9391 32.0013 44C32.0013 42.9391 31.5799 41.9217 30.8297 41.1716C30.0796 40.4214 29.0622 40 28.0013 40H20.0013Z" stroke="#9810FA" stroke-width="2.66667" stroke-linecap="round" stroke-linejoin="round"/>
</svg>
