<svg width="64" height="64" viewBox="0 0 64 64" fill="none" xmlns="http://www.w3.org/2000/svg">
<path d="M0 32C0 14.3269 14.3269 0 32 0C49.6731 0 64 14.3269 64 32C64 49.6731 49.6731 64 32 64C14.3269 64 0 49.6731 0 32Z" fill="#F1F5FF"/>
<path d="M44 36V41.3333C44 42.0406 43.719 42.7189 43.219 43.219C42.7189 43.719 42.0406 44 41.3333 44H22.6667C21.9594 44 21.2811 43.719 20.781 43.219C20.281 42.7189 20 42.0406 20 41.3333V36" stroke="#020E6A" stroke-width="2.66667" stroke-linecap="round" stroke-linejoin="round"/>
<path d="M25.332 29.3335L31.9987 36.0002L38.6654 29.3335" stroke="#020E6A" stroke-width="2.66667" stroke-linecap="round" stroke-linejoin="round"/>
<path d="M32 36V20" stroke="#020E6A" stroke-width="2.66667" stroke-linecap="round" stroke-linejoin="round"/>
</svg>
