<svg width="64" height="64" viewBox="0 0 64 64" fill="none" xmlns="http://www.w3.org/2000/svg">
<path d="M0 32C0 14.3269 14.3269 0 32 0C49.6731 0 64 14.3269 64 32C64 49.6731 49.6731 64 32 64C14.3269 64 0 49.6731 0 32Z" fill="#FEF2F2"/>
<path d="M32.0013 45.3332C39.3651 45.3332 45.3346 39.3636 45.3346 31.9998C45.3346 24.636 39.3651 18.6665 32.0013 18.6665C24.6375 18.6665 18.668 24.636 18.668 31.9998C18.668 39.3636 24.6375 45.3332 32.0013 45.3332Z" stroke="#E7000B" stroke-width="2.66667" stroke-linecap="round" stroke-linejoin="round"/>
<path d="M29.332 26.6665L37.332 31.9998L29.332 37.3332V26.6665Z" stroke="#E7000B" stroke-width="2.66667" stroke-linecap="round" stroke-linejoin="round"/>
</svg>
