<svg width="52" height="52" viewBox="0 0 52 52" fill="none" xmlns="http://www.w3.org/2000/svg">
<g filter="url(#filter0_i_8951_6615)">
<rect width="52" height="52" rx="12" fill="#020E6A"/>
<rect width="52" height="52" rx="12" fill="url(#paint0_linear_8951_6615)"/>
<path d="M29.4974 14.3335H18.9974C18.3786 14.3335 17.7851 14.5793 17.3475 15.0169C16.9099 15.4545 16.6641 16.048 16.6641 16.6668V35.3335C16.6641 35.9523 16.9099 36.5458 17.3475 36.9834C17.7851 37.421 18.3786 37.6668 18.9974 37.6668H32.9974C33.6162 37.6668 34.2097 37.421 34.6473 36.9834C35.0849 36.5458 35.3307 35.9523 35.3307 35.3335V20.1668L29.4974 14.3335Z" stroke="white" stroke-width="2.33333" stroke-linecap="round" stroke-linejoin="round"/>
<path d="M28.3359 14.3335V19.0002C28.3359 19.619 28.5818 20.2125 29.0194 20.6501C29.4569 21.0877 30.0504 21.3335 30.6693 21.3335H35.3359" stroke="white" stroke-width="2.33333" stroke-linecap="round" stroke-linejoin="round"/>
<path d="M22.5 29.4998L24.8333 31.8332L29.5 27.1665" stroke="white" stroke-width="2.33333" stroke-linecap="round" stroke-linejoin="round"/>
</g>
<defs>
<filter id="filter0_i_8951_6615" x="0" y="0" width="52" height="53" filterUnits="userSpaceOnUse" color-interpolation-filters="sRGB">
<feFlood flood-opacity="0" result="BackgroundImageFix"/>
<feBlend mode="normal" in="SourceGraphic" in2="BackgroundImageFix" result="shape"/>
<feColorMatrix in="SourceAlpha" type="matrix" values="0 0 0 0 0 0 0 0 0 0 0 0 0 0 0 0 0 0 127 0" result="hardAlpha"/>
<feOffset dy="1"/>
<feGaussianBlur stdDeviation="0.5"/>
<feComposite in2="hardAlpha" operator="arithmetic" k2="-1" k3="1"/>
<feColorMatrix type="matrix" values="0 0 0 0 0.811765 0 0 0 0 0.905882 0 0 0 0 1 0 0 0 0.2 0"/>
<feBlend mode="normal" in2="shape" result="effect1_innerShadow_8951_6615"/>
</filter>
<linearGradient id="paint0_linear_8951_6615" x1="0" y1="26" x2="52" y2="26" gradientUnits="userSpaceOnUse">
<stop stop-color="#7084FF"/>
<stop offset="1" stop-color="#03159D"/>
</linearGradient>
</defs>
</svg>
