<svg width="52" height="52" viewBox="0 0 52 52" fill="none" xmlns="http://www.w3.org/2000/svg">
<g filter="url(#filter0_i_8951_6588)">
<rect width="52" height="52" rx="12" fill="#020E6A"/>
<rect width="52" height="52" rx="12" fill="url(#paint0_linear_8951_6588)"/>
<path d="M35.3307 27.1669C35.3307 33.0002 31.2474 35.9169 26.3941 37.6085C26.1399 37.6947 25.8639 37.6905 25.6124 37.5969C20.7474 35.9169 16.6641 33.0002 16.6641 27.1669V19.0002C16.6641 18.6908 16.787 18.394 17.0058 18.1752C17.2246 17.9564 17.5213 17.8335 17.8307 17.8335C20.1641 17.8335 23.0807 16.4335 25.1107 14.6602C25.3579 14.449 25.6723 14.333 25.9974 14.333C26.3225 14.333 26.6369 14.449 26.8841 14.6602C28.9257 16.4452 31.8307 17.8335 34.1641 17.8335C34.4735 17.8335 34.7702 17.9564 34.989 18.1752C35.2078 18.394 35.3307 18.6908 35.3307 19.0002V27.1669Z" stroke="white" stroke-width="2.33333" stroke-linecap="round" stroke-linejoin="round"/>
<path d="M22.5 25.9998L24.8333 28.3332L29.5 23.6665" stroke="white" stroke-width="2.33333" stroke-linecap="round" stroke-linejoin="round"/>
</g>
<defs>
<filter id="filter0_i_8951_6588" x="0" y="0" width="52" height="53" filterUnits="userSpaceOnUse" color-interpolation-filters="sRGB">
<feFlood flood-opacity="0" result="BackgroundImageFix"/>
<feBlend mode="normal" in="SourceGraphic" in2="BackgroundImageFix" result="shape"/>
<feColorMatrix in="SourceAlpha" type="matrix" values="0 0 0 0 0 0 0 0 0 0 0 0 0 0 0 0 0 0 127 0" result="hardAlpha"/>
<feOffset dy="1"/>
<feGaussianBlur stdDeviation="0.5"/>
<feComposite in2="hardAlpha" operator="arithmetic" k2="-1" k3="1"/>
<feColorMatrix type="matrix" values="0 0 0 0 0.811765 0 0 0 0 0.905882 0 0 0 0 1 0 0 0 0.2 0"/>
<feBlend mode="normal" in2="shape" result="effect1_innerShadow_8951_6588"/>
</filter>
<linearGradient id="paint0_linear_8951_6588" x1="0" y1="26" x2="52" y2="26" gradientUnits="userSpaceOnUse">
<stop stop-color="#7084FF"/>
<stop offset="1" stop-color="#03159D"/>
</linearGradient>
</defs>
</svg>
