<svg width="72" height="72" viewBox="0 0 72 72" fill="none" xmlns="http://www.w3.org/2000/svg">
<path d="M42.75 4.5H29.25C28.629 4.5 28.125 5.004 28.125 5.625V9C28.125 10.2409 29.1341 11.25 30.375 11.25H32.8174C33.282 12.5595 34.533 13.5 36 13.5C37.467 13.5 38.718 12.5595 39.1826 11.25H41.625C42.8659 11.25 43.875 10.2409 43.875 9V5.625C43.875 5.004 43.371 4.5 42.75 4.5Z" fill="url(#paint0_linear_9660_6873)"/>
<path d="M56.25 6.75H45V9C45 10.8608 43.4858 12.375 41.625 12.375H39.8959C39.1163 13.7194 37.6616 14.625 36 14.625C34.3384 14.625 32.8826 13.7194 32.1041 12.375H30.375C28.5142 12.375 27 10.8608 27 9V6.75H15.75C13.8892 6.75 12.375 8.26425 12.375 10.125V64.125C12.375 65.9857 13.8892 67.5 15.75 67.5H56.25C58.1107 67.5 59.625 65.9857 59.625 64.125V10.125C59.625 8.26425 58.1107 6.75 56.25 6.75ZM18 33.1875H23.1593L22.6935 32.7218C22.2536 32.2819 22.2536 31.5709 22.6935 31.131C23.1334 30.6911 23.8444 30.6911 24.2843 31.131L26.6704 33.5171C26.7739 33.6206 26.856 33.7455 26.9134 33.8827C27.027 34.1584 27.027 34.4678 26.9134 34.7423C26.856 34.8795 26.7739 35.0044 26.6704 35.1079L24.2843 37.494C24.0649 37.7134 23.7769 37.8236 23.4889 37.8236C23.2009 37.8236 22.9129 37.7134 22.6935 37.494C22.2536 37.0541 22.2536 36.3431 22.6935 35.9032L23.1593 35.4375H18C17.379 35.4375 16.875 34.9335 16.875 34.3125C16.875 33.6915 17.379 33.1875 18 33.1875ZM23.0625 55.125H23.1593L22.6935 54.6592C22.2536 54.2194 22.2536 53.5084 22.6935 53.0685C23.1334 52.6286 23.8444 52.6286 24.2843 53.0685L26.6704 55.4546C26.7739 55.5581 26.856 55.683 26.9134 55.8203C27.027 56.0959 27.027 56.4053 26.9134 56.6797C26.856 56.817 26.7739 56.9419 26.6704 57.0454L24.2843 59.4315C24.0649 59.6509 23.7769 59.7611 23.4889 59.7611C23.2009 59.7611 22.9129 59.6509 22.6935 59.4315C22.2536 58.9916 22.2536 58.2806 22.6935 57.8408L23.1593 57.375H23.0625C19.6504 57.375 16.875 54.5996 16.875 51.1875C16.875 47.7754 19.6504 45 23.0625 45H25.875C26.496 45 27 45.504 27 46.125C27 46.746 26.496 47.25 25.875 47.25H23.0625C20.8912 47.25 19.125 49.0163 19.125 51.1875C19.125 53.3587 20.8912 55.125 23.0625 55.125ZM25.875 19.125C25.875 18.504 26.379 18 27 18H45C45.621 18 46.125 18.504 46.125 19.125C46.125 19.746 45.621 20.25 45 20.25H27C26.379 20.25 25.875 19.746 25.875 19.125ZM41.625 59.625C41.625 60.246 41.121 60.75 40.5 60.75H31.5C30.879 60.75 30.375 60.246 30.375 59.625V54C30.375 53.379 30.879 52.875 31.5 52.875H40.5C41.121 52.875 41.625 53.379 41.625 54V59.625ZM41.625 48.375C41.625 48.996 41.121 49.5 40.5 49.5H31.5C30.879 49.5 30.375 48.996 30.375 48.375V42.75C30.375 42.129 30.879 41.625 31.5 41.625H40.5C41.121 41.625 41.625 42.129 41.625 42.75V48.375ZM41.625 37.125C41.625 37.746 41.121 38.25 40.5 38.25H31.5C30.879 38.25 30.375 37.746 30.375 37.125V31.5C30.375 30.879 30.879 30.375 31.5 30.375H40.5C41.121 30.375 41.625 30.879 41.625 31.5V37.125ZM41.625 24.75H30.375C29.754 24.75 29.25 24.246 29.25 23.625C29.25 23.004 29.754 22.5 30.375 22.5H41.625C42.246 22.5 42.75 23.004 42.75 23.625C42.75 24.246 42.246 24.75 41.625 24.75ZM55.0384 57.2422C54.981 57.3795 54.8989 57.5044 54.7954 57.6079L52.4092 59.994C52.1899 60.2134 51.9019 60.3236 51.6139 60.3236C51.3259 60.3236 51.0379 60.2134 50.8185 59.994C50.3786 59.5541 50.3786 58.8431 50.8185 58.4033L51.2842 57.9375H46.125C45.504 57.9375 45 57.4335 45 56.8125C45 56.1915 45.504 55.6875 46.125 55.6875H51.2842L50.8185 55.2217C50.3786 54.7819 50.3786 54.0709 50.8185 53.631C51.2584 53.1911 51.9694 53.1911 52.4092 53.631L54.7954 56.0171C54.8989 56.1206 54.981 56.2455 55.0384 56.3828C55.152 56.6584 55.152 56.9678 55.0384 57.2422ZM48.9375 46.125H48.8408L49.3065 46.5908C49.7464 47.0306 49.7464 47.7416 49.3065 48.1815C49.0871 48.4009 48.7991 48.5111 48.5111 48.5111C48.2231 48.5111 47.9351 48.4009 47.7158 48.1815L45.3296 45.7954C45.2261 45.6919 45.144 45.567 45.0866 45.4297C44.973 45.1541 44.973 44.8447 45.0866 44.5703C45.144 44.433 45.2261 44.3081 45.3296 44.2046L47.7158 41.8185C48.1556 41.3786 48.8666 41.3786 49.3065 41.8185C49.7464 42.2584 49.7464 42.9694 49.3065 43.4092L48.8408 43.875H48.9375C51.1087 43.875 52.875 42.1087 52.875 39.9375C52.875 37.7663 51.1087 36 48.9375 36H46.125C45.504 36 45 35.496 45 34.875C45 34.254 45.504 33.75 46.125 33.75H48.9375C52.3496 33.75 55.125 36.5254 55.125 39.9375C55.125 43.3496 52.3496 46.125 48.9375 46.125Z" fill="url(#paint1_linear_9660_6873)"/>
<defs>
<linearGradient id="paint0_linear_9660_6873" x1="29.5568" y1="11.25" x2="37.4656" y2="2.55034" gradientUnits="userSpaceOnUse">
<stop stop-color="#03159D"/>
<stop offset="1" stop-color="#7084FF"/>
</linearGradient>
<linearGradient id="paint1_linear_9660_6873" x1="16.6705" y1="52.3125" x2="58.9906" y2="31.6226" gradientUnits="userSpaceOnUse">
<stop stop-color="#03159D"/>
<stop offset="1" stop-color="#7084FF"/>
</linearGradient>
</defs>
</svg>
