<svg width="48" height="48" viewBox="0 0 48 48" fill="none" xmlns="http://www.w3.org/2000/svg">
<g filter="url(#filter0_i_8951_6558)">
<rect width="48" height="48" rx="12" fill="#020E6A"/>
<rect width="48" height="48" rx="12" fill="url(#paint0_linear_8951_6558)"/>
<path d="M18 34C17.4696 34 16.9609 33.7893 16.5858 33.4142C16.2107 33.0391 16 32.5304 16 32V16C16 15.4696 16.2107 14.9609 16.5858 14.5858C16.9609 14.2107 17.4696 14 18 14H26C26.3166 13.9995 26.6301 14.0616 26.9225 14.1828C27.215 14.3039 27.4806 14.4818 27.704 14.706L31.292 18.294C31.5168 18.5175 31.6952 18.7833 31.8167 19.0762C31.9382 19.369 32.0005 19.683 32 20V32C32 32.5304 31.7893 33.0391 31.4142 33.4142C31.0391 33.7893 30.5304 34 30 34H18Z" stroke="white" stroke-width="2" stroke-linecap="round" stroke-linejoin="round"/>
<path d="M26 14V19C26 19.2652 26.1054 19.5196 26.2929 19.7071C26.4804 19.8946 26.7348 20 27 20H32" stroke="white" stroke-width="2" stroke-linecap="round" stroke-linejoin="round"/>
<path d="M21 27L23 29L27 25" stroke="white" stroke-width="2" stroke-linecap="round" stroke-linejoin="round"/>
</g>
<defs>
<filter id="filter0_i_8951_6558" x="0" y="0" width="48" height="49" filterUnits="userSpaceOnUse" color-interpolation-filters="sRGB">
<feFlood flood-opacity="0" result="BackgroundImageFix"/>
<feBlend mode="normal" in="SourceGraphic" in2="BackgroundImageFix" result="shape"/>
<feColorMatrix in="SourceAlpha" type="matrix" values="0 0 0 0 0 0 0 0 0 0 0 0 0 0 0 0 0 0 127 0" result="hardAlpha"/>
<feOffset dy="1"/>
<feGaussianBlur stdDeviation="0.5"/>
<feComposite in2="hardAlpha" operator="arithmetic" k2="-1" k3="1"/>
<feColorMatrix type="matrix" values="0 0 0 0 0.811765 0 0 0 0 0.905882 0 0 0 0 1 0 0 0 0.2 0"/>
<feBlend mode="normal" in2="shape" result="effect1_innerShadow_8951_6558"/>
</filter>
<linearGradient id="paint0_linear_8951_6558" x1="0" y1="24" x2="48" y2="24" gradientUnits="userSpaceOnUse">
<stop stop-color="#7084FF"/>
<stop offset="1" stop-color="#03159D"/>
</linearGradient>
</defs>
</svg>
