<svg width="72" height="72" viewBox="0 0 72 72" fill="none" xmlns="http://www.w3.org/2000/svg">
<path fill-rule="evenodd" clip-rule="evenodd" d="M22.2466 23.209C22.2466 15.5292 28.4723 9.30361 36.1519 9.30361C43.8317 9.30361 50.0573 15.5293 50.0573 23.209C50.0573 30.8886 43.8316 37.1143 36.1519 37.1143C28.4723 37.1143 22.2466 30.8886 22.2466 23.209ZM46.8719 45.7928H56.9733C57.0466 45.7928 57.1062 45.8525 57.1062 45.9258V48.7178C57.1062 48.771 57.1355 48.8165 57.1838 48.8387C57.2322 48.8608 57.2858 48.8532 57.326 48.8185L67.4277 40.1216C67.4581 40.0954 67.4739 40.061 67.4739 40.0208C67.4739 39.9808 67.4581 39.9462 67.4277 39.92L57.326 31.2231C57.2857 31.1884 57.2321 31.1808 57.1838 31.203C57.1355 31.2252 57.1062 31.2707 57.1062 31.3238V34.1158C57.1062 34.1891 57.0465 34.2487 56.9733 34.2487H53.5903C53.5352 34.2487 53.4882 34.2803 53.4673 34.3314C51.8293 38.3308 49.4484 42.0606 46.7663 45.5789C46.7349 45.6201 46.7299 45.6721 46.7529 45.7186C46.7757 45.7653 46.82 45.7928 46.8719 45.7928ZM38.812 54.943C38.0428 55.7967 37.204 56.4018 36.0026 56.4018C34.7943 56.4018 33.897 55.7832 33.1476 54.891C32.2544 53.8275 31.3572 52.7686 30.4657 51.7058C30.4291 51.6622 30.3719 51.6468 30.3183 51.6664C30.2648 51.6858 30.2308 51.7344 30.2308 51.7914V57.2961C30.2308 57.3694 30.171 57.4291 30.0979 57.4291H27.3059C27.2527 57.4291 27.2072 57.4584 27.185 57.5067C27.1629 57.5551 27.1705 57.6087 27.2052 57.6489L35.9021 67.7506C35.9283 67.781 35.9627 67.7968 36.0029 67.7968C36.0429 67.7968 36.0775 67.781 36.1037 67.7506L44.8006 57.6489C44.8353 57.6086 44.8429 57.555 44.8207 57.5067C44.7985 57.4584 44.753 57.4291 44.6999 57.4291H41.9079C41.8346 57.4291 41.775 57.3694 41.775 57.2961V51.9741C41.775 51.9177 41.7417 51.8696 41.689 51.8497C41.6362 51.8298 41.5796 51.8439 41.5423 51.8863C40.6299 52.9218 39.7153 53.9403 38.812 54.943ZM24.499 44.1788C22.2869 41.1211 20.23 37.8312 18.7219 34.3294C18.7004 34.2795 18.6541 34.249 18.5998 34.249H15.0319C14.9586 34.249 14.899 34.1893 14.899 34.1161V31.3241C14.899 31.271 14.8697 31.2254 14.8213 31.2033C14.773 31.1811 14.7194 31.1887 14.6792 31.2234L4.57747 39.9202C4.54709 39.9464 4.53125 39.9808 4.53125 40.021C4.53125 40.061 4.54709 40.0956 4.57747 40.1218L14.6792 48.8186C14.7195 48.8534 14.7731 48.8608 14.8213 48.8388C14.8697 48.8166 14.899 48.7711 14.899 48.718V45.926C14.899 45.8527 14.9587 45.7929 15.0319 45.7929H25.4285C25.4802 45.7929 25.5246 45.7656 25.5476 45.7192C25.5707 45.673 25.5659 45.621 25.5347 45.5798C25.1852 45.1164 24.8397 44.6497 24.499 44.1788ZM29.1992 29.9839H41.0607C42.7661 29.9839 44.1613 28.5887 44.1613 26.8833V23.0624C44.1613 21.357 42.7661 19.9618 41.0607 19.9618H38.7039C38.6306 19.9618 38.571 19.902 38.571 19.8289V16.9709C38.571 14.8983 36.9121 13.1943 34.8565 13.1212C34.8191 13.1199 34.7864 13.1324 34.7594 13.1585C34.7324 13.1845 34.7187 13.2168 34.7187 13.2542V19.829C34.7187 19.9023 34.6589 19.9619 34.5858 19.9619H29.1992C29.1259 19.9619 29.0663 20.0217 29.0663 20.0948V29.851C29.0663 29.9241 29.1259 29.9839 29.1992 29.9839ZM18.2516 22.1281C17.7037 34.2461 27.321 44.8604 34.671 53.6113C35.0444 54.0556 35.4411 54.4123 36.0026 54.4123C36.5639 54.4123 36.9462 54.0417 37.334 53.6113C45.1705 44.9134 54.1113 34.8688 53.7663 22.4782C53.4835 12.3344 45.6386 4.20312 36.0026 4.20312C26.4776 4.20312 18.7027 12.1478 18.2516 22.1281Z" fill="url(#paint0_linear_9660_6039)"/>
<defs>
<linearGradient id="paint0_linear_9660_6039" x1="10.2533" y1="51.8984" x2="60.6119" y2="20.5685" gradientUnits="userSpaceOnUse">
<stop stop-color="#03159D"/>
<stop offset="1" stop-color="#7084FF"/>
</linearGradient>
</defs>
</svg>
