<svg width="48" height="48" viewBox="0 0 48 48" fill="none" xmlns="http://www.w3.org/2000/svg">
<g filter="url(#filter0_i_8951_6552)">
<rect width="48" height="48" rx="12" fill="#020E6A"/>
<rect width="48" height="48" rx="12" fill="url(#paint0_linear_8951_6552)"/>
<path d="M32 22C32 26.993 26.461 32.193 24.601 33.799C24.4277 33.9293 24.2168 33.9998 24 33.9998C23.7832 33.9998 23.5723 33.9293 23.399 33.799C21.539 32.193 16 26.993 16 22C16 19.8783 16.8429 17.8434 18.3431 16.3431C19.8434 14.8429 21.8783 14 24 14C26.1217 14 28.1566 14.8429 29.6569 16.3431C31.1571 17.8434 32 19.8783 32 22Z" stroke="white" stroke-width="2" stroke-linecap="round" stroke-linejoin="round"/>
<path d="M24 25C25.6569 25 27 23.6569 27 22C27 20.3431 25.6569 19 24 19C22.3431 19 21 20.3431 21 22C21 23.6569 22.3431 25 24 25Z" stroke="white" stroke-width="2" stroke-linecap="round" stroke-linejoin="round"/>
</g>
<defs>
<filter id="filter0_i_8951_6552" x="0" y="0" width="48" height="49" filterUnits="userSpaceOnUse" color-interpolation-filters="sRGB">
<feFlood flood-opacity="0" result="BackgroundImageFix"/>
<feBlend mode="normal" in="SourceGraphic" in2="BackgroundImageFix" result="shape"/>
<feColorMatrix in="SourceAlpha" type="matrix" values="0 0 0 0 0 0 0 0 0 0 0 0 0 0 0 0 0 0 127 0" result="hardAlpha"/>
<feOffset dy="1"/>
<feGaussianBlur stdDeviation="0.5"/>
<feComposite in2="hardAlpha" operator="arithmetic" k2="-1" k3="1"/>
<feColorMatrix type="matrix" values="0 0 0 0 0.811765 0 0 0 0 0.905882 0 0 0 0 1 0 0 0 0.2 0"/>
<feBlend mode="normal" in2="shape" result="effect1_innerShadow_8951_6552"/>
</filter>
<linearGradient id="paint0_linear_8951_6552" x1="0" y1="24" x2="48" y2="24" gradientUnits="userSpaceOnUse">
<stop stop-color="#7084FF"/>
<stop offset="1" stop-color="#03159D"/>
</linearGradient>
</defs>
</svg>
