<svg width="72" height="72" viewBox="0 0 72 72" fill="none" xmlns="http://www.w3.org/2000/svg">
<path d="M20.25 22.5H11.52C11.8125 21.3975 12.3975 20.4075 13.23 19.5975L19.5975 13.23C20.4075 12.3975 21.3975 11.8125 22.5 11.52V20.25C22.5 21.4875 21.4875 22.5 20.25 22.5ZM31.5 42.75C33.3675 42.75 34.875 41.2425 34.875 39.375C34.875 37.5075 33.3675 36 31.5 36C29.6325 36 28.125 37.5075 28.125 39.375C28.125 41.2425 29.6325 42.75 31.5 42.75ZM33.75 47.25H29.25C26.775 47.25 24.75 49.275 24.75 51.75H38.25C38.25 49.275 36.225 47.25 33.75 47.25ZM47.25 36C48.8025 36 50.31 35.7975 51.75 35.4375V60.75C51.75 64.4625 48.7125 67.5 45 67.5H18C14.2875 67.5 11.25 64.4625 11.25 60.75V27H20.25C23.9625 27 27 23.9625 27 20.25V11.25H30.5775C29.7225 13.3425 29.25 15.615 29.25 18C29.25 27.9225 37.3275 36 47.25 36ZM42.75 51.75C42.75 48.33 40.7925 45.36 37.9575 43.8525C38.8575 42.57 39.375 41.04 39.375 39.375C39.375 35.0325 35.8425 31.5 31.5 31.5C27.1575 31.5 23.625 35.0325 23.625 39.375C23.625 41.04 24.1425 42.57 25.0425 43.8525C22.2075 45.36 20.25 48.33 20.25 51.75C20.25 54.225 22.275 56.25 24.75 56.25H38.25C40.725 56.25 42.75 54.225 42.75 51.75ZM60.75 18C60.75 25.4452 54.6953 31.5 47.25 31.5C39.8048 31.5 33.75 25.4452 33.75 18C33.75 10.5547 39.8048 4.5 47.25 4.5C54.6953 4.5 60.75 10.5547 60.75 18ZM52.2158 14.1593C51.336 13.2795 49.914 13.2795 49.0342 14.1593L46.125 17.0685L45.4658 16.4093C44.586 15.5295 43.164 15.5295 42.2842 16.4093C41.4045 17.289 41.4045 18.711 42.2842 19.5907L44.5342 21.8407C44.973 22.2795 45.549 22.5 46.125 22.5C46.701 22.5 47.277 22.2795 47.7158 21.8407L52.2158 17.3407C53.0955 16.461 53.0955 15.039 52.2158 14.1593Z" fill="url(#paint0_linear_9660_8107)"/>
<defs>
<linearGradient id="paint0_linear_9660_8107" x1="15.75" y1="51.75" x2="59.9107" y2="29.94" gradientUnits="userSpaceOnUse">
<stop stop-color="#03159D"/>
<stop offset="1" stop-color="#7084FF"/>
</linearGradient>
</defs>
</svg>
