<svg width="72" height="72" viewBox="0 0 72 72" fill="none" xmlns="http://www.w3.org/2000/svg">
<g clip-path="url(#clip0_9660_2895)">
<path d="M19.3132 52.7321C17.877 51.295 16.5899 49.7487 15.4557 48.1138L11.5312 52.0634L19.8252 60.3635C19.8299 60.3683 19.8339 60.3736 19.8386 60.3784L23.7335 56.4586C22.1714 55.3569 20.6924 54.1125 19.3132 52.7321Z" fill="url(#paint0_linear_9660_2895)"/>
<path d="M16.8422 63.3573L8.55888 55.0679L0.654379 63.0294C-0.208342 63.8984 -0.207639 65.3009 0.656066 66.1688L5.80526 71.344C6.67641 72.2195 8.09371 72.2188 8.96402 71.3423L16.8684 63.3807C16.8598 63.3726 16.8507 63.3657 16.8422 63.3573Z" fill="url(#paint1_linear_9660_2895)"/>
<path d="M42.8878 58.2863C50.6658 58.2863 57.9784 55.2552 63.4783 49.751C74.8331 38.3878 74.8331 19.8985 63.4783 8.53527C57.9784 3.03112 50.6658 0 42.8878 0C35.1099 0 27.7973 3.03112 22.2973 8.53527C10.9426 19.8985 10.9426 38.3878 22.2973 49.751C27.7973 55.2552 35.1099 58.2863 42.8878 58.2863ZM42.8878 5.45017C55.9213 5.45017 66.5249 16.0788 66.5249 29.1432C66.5249 42.2075 55.9214 52.8361 42.8878 52.8361C29.8544 52.8361 19.2508 42.2075 19.2508 29.1432C19.2508 16.0788 29.8544 5.45017 42.8878 5.45017Z" fill="url(#paint2_linear_9660_2895)"/>
<path d="M51.1978 39.4676C51.1978 37.7029 49.9072 36.2349 48.2206 35.9556C46.6794 36.9428 44.8502 37.5182 42.888 37.5182C40.9259 37.5182 39.0965 36.943 37.5554 35.9556C35.8688 36.2349 34.5781 37.7031 34.5781 39.4676V46.7433C37.0988 47.9452 39.9163 48.619 42.888 48.619C45.8597 48.619 48.6771 47.9452 51.1978 46.7433V39.4676Z" fill="url(#paint3_linear_9660_2895)"/>
<path d="M42.8885 9.66748C32.1804 9.66748 23.4688 18.4042 23.4688 29.1432C23.4688 35.0983 26.1486 40.4365 30.3612 44.0118V39.4674C30.3612 36.5461 31.981 33.997 34.3687 32.6676C33.4833 31.184 32.9727 29.4519 32.9727 27.6023C32.9727 22.1348 37.4209 17.6867 42.8883 17.6867C48.3558 17.6867 52.8039 22.1348 52.8039 27.6023C52.8039 29.452 52.2935 31.184 51.408 32.6676C53.7958 33.9969 55.4154 36.5459 55.4154 39.4674V44.012C59.6281 40.4367 62.3079 35.0983 62.3079 29.1432C62.3082 18.4042 53.5965 9.66748 42.8885 9.66748Z" fill="url(#paint4_linear_9660_2895)"/>
<path d="M46.9064 31.6327C49.1314 29.4077 49.1314 25.8003 46.9064 23.5753C44.6814 21.3503 41.074 21.3503 38.849 23.5753C36.624 25.8003 36.624 29.4077 38.849 31.6327C41.074 33.8577 44.6814 33.8577 46.9064 31.6327Z" fill="url(#paint5_linear_9660_2895)"/>
</g>
<defs>
<linearGradient id="paint0_linear_9660_2895" x1="12.6405" y1="57.3122" x2="22.3748" y2="51.2247" gradientUnits="userSpaceOnUse">
<stop stop-color="#03159D"/>
<stop offset="1" stop-color="#7084FF"/>
</linearGradient>
<linearGradient id="paint1_linear_9660_2895" x1="1.54059" y1="67.7671" x2="14.9846" y2="59.3524" gradientUnits="userSpaceOnUse">
<stop stop-color="#03159D"/>
<stop offset="1" stop-color="#7084FF"/>
</linearGradient>
<linearGradient id="paint2_linear_9660_2895" x1="19.0734" y1="43.7147" x2="65.4122" y2="14.624" gradientUnits="userSpaceOnUse">
<stop stop-color="#03159D"/>
<stop offset="1" stop-color="#7084FF"/>
</linearGradient>
<linearGradient id="paint3_linear_9660_2895" x1="36.089" y1="45.4532" x2="47.0638" y2="36.3995" gradientUnits="userSpaceOnUse">
<stop stop-color="#03159D"/>
<stop offset="1" stop-color="#7084FF"/>
</linearGradient>
<linearGradient id="paint4_linear_9660_2895" x1="26.9996" y1="35.4259" x2="55.633" y2="15.0723" gradientUnits="userSpaceOnUse">
<stop stop-color="#03159D"/>
<stop offset="1" stop-color="#7084FF"/>
</linearGradient>
<linearGradient id="paint5_linear_9660_2895" x1="41.5958" y1="32.9145" x2="43.9764" y2="22.4766" gradientUnits="userSpaceOnUse">
<stop stop-color="#03159D"/>
<stop offset="1" stop-color="#7084FF"/>
</linearGradient>
<clipPath id="clip0_9660_2895">
<rect width="72" height="72" fill="white"/>
</clipPath>
</defs>
</svg>
