<svg width="72" height="72" viewBox="0 0 72 72" fill="none" xmlns="http://www.w3.org/2000/svg">
<path d="M53.9081 36.0137C51.2207 36.0137 48.5936 36.8106 46.3591 38.3036C44.1246 39.7967 42.383 41.9188 41.3546 44.4016C40.3262 46.8844 40.0571 49.6165 40.5814 52.2523C41.1057 54.888 42.3998 57.3091 44.3001 59.2094C46.2004 61.1097 48.6215 62.4038 51.2572 62.9281C53.893 63.4524 56.625 63.1833 59.1079 62.1549C61.5907 61.1264 63.7128 59.3849 65.2059 57.1504C66.6989 54.9159 67.4958 52.2888 67.4958 49.6014C67.4919 45.9989 66.0591 42.5451 63.5118 39.9977C60.9644 37.4503 57.5106 36.0175 53.9081 36.0137ZM53.9081 61.8943C53.2419 61.8943 52.5907 61.6968 52.0368 61.3266C51.4829 60.9565 51.0511 60.4305 50.7962 59.815C50.5413 59.1996 50.4746 58.5223 50.6045 57.8689C50.7345 57.2156 51.0553 56.6154 51.5264 56.1443C51.9974 55.6733 52.5976 55.3525 53.251 55.2225C53.9043 55.0926 54.5816 55.1593 55.197 55.4142C55.8125 55.6691 56.3386 56.1008 56.7087 56.6547C57.0788 57.2087 57.2763 57.8599 57.2763 58.526C57.2745 59.4188 56.9191 60.2745 56.2878 60.9058C55.6565 61.5371 54.8008 61.8925 53.9081 61.8943ZM54.8947 54.1397C54.7978 54.3169 54.6551 54.4648 54.4814 54.5678C54.3077 54.6708 54.1095 54.7251 53.9075 54.7251C53.7056 54.7251 53.5073 54.6708 53.3336 54.5678C53.1599 54.4648 53.0172 54.3169 52.9203 54.1397C52.1486 52.7278 48.2977 45.5503 48.2977 42.9189C48.2977 42.1822 48.4428 41.4526 48.7248 40.7719C49.0067 40.0912 49.42 39.4728 49.9409 38.9518C50.4619 38.4308 51.0804 38.0176 51.7611 37.7356C52.4418 37.4537 53.1713 37.3085 53.9081 37.3085C54.6448 37.3085 55.3744 37.4537 56.0551 37.7356C56.7357 38.0176 57.3542 38.4308 57.8752 38.9518C58.3962 39.4728 58.8094 40.0912 59.0914 40.7719C59.3733 41.4526 59.5184 42.1822 59.5184 42.9189C59.5184 45.5503 55.6653 52.7278 54.8947 54.1397Z" fill="black"/>
<path d="M53.9081 36.0137C51.2207 36.0137 48.5936 36.8106 46.3591 38.3036C44.1246 39.7967 42.383 41.9188 41.3546 44.4016C40.3262 46.8844 40.0571 49.6165 40.5814 52.2523C41.1057 54.888 42.3998 57.3091 44.3001 59.2094C46.2004 61.1097 48.6215 62.4038 51.2572 62.9281C53.893 63.4524 56.625 63.1833 59.1079 62.1549C61.5907 61.1264 63.7128 59.3849 65.2059 57.1504C66.6989 54.9159 67.4958 52.2888 67.4958 49.6014C67.4919 45.9989 66.0591 42.5451 63.5118 39.9977C60.9644 37.4503 57.5106 36.0175 53.9081 36.0137ZM53.9081 61.8943C53.2419 61.8943 52.5907 61.6968 52.0368 61.3266C51.4829 60.9565 51.0511 60.4305 50.7962 59.815C50.5413 59.1996 50.4746 58.5223 50.6045 57.8689C50.7345 57.2156 51.0553 56.6154 51.5264 56.1443C51.9974 55.6733 52.5976 55.3525 53.251 55.2225C53.9043 55.0926 54.5816 55.1593 55.197 55.4142C55.8125 55.6691 56.3386 56.1008 56.7087 56.6547C57.0788 57.2087 57.2763 57.8599 57.2763 58.526C57.2745 59.4188 56.9191 60.2745 56.2878 60.9058C55.6565 61.5371 54.8008 61.8925 53.9081 61.8943ZM54.8947 54.1397C54.7978 54.3169 54.6551 54.4648 54.4814 54.5678C54.3077 54.6708 54.1095 54.7251 53.9075 54.7251C53.7056 54.7251 53.5073 54.6708 53.3336 54.5678C53.1599 54.4648 53.0172 54.3169 52.9203 54.1397C52.1486 52.7278 48.2977 45.5503 48.2977 42.9189C48.2977 42.1822 48.4428 41.4526 48.7248 40.7719C49.0067 40.0912 49.42 39.4728 49.9409 38.9518C50.4619 38.4308 51.0804 38.0176 51.7611 37.7356C52.4418 37.4537 53.1713 37.3085 53.9081 37.3085C54.6448 37.3085 55.3744 37.4537 56.0551 37.7356C56.7357 38.0176 57.3542 38.4308 57.8752 38.9518C58.3962 39.4728 58.8094 40.0912 59.0914 40.7719C59.3733 41.4526 59.5184 42.1822 59.5184 42.9189C59.5184 45.5503 55.6653 52.7278 54.8947 54.1397Z" fill="url(#paint0_linear_9660_4220)"/>
<path d="M13.6245 8.81055C13.0076 8.81144 12.4163 9.0568 11.98 9.49288C11.5437 9.92896 11.2981 10.5202 11.2969 11.137V13.4613H15.9521V11.137C15.9509 10.5202 15.7053 9.92896 15.269 9.49288C14.8327 9.0568 14.2414 8.81144 13.6245 8.81055Z" fill="black"/>
<path d="M13.6245 8.81055C13.0076 8.81144 12.4163 9.0568 11.98 9.49288C11.5437 9.92896 11.2981 10.5202 11.2969 11.137V13.4613H15.9521V11.137C15.9509 10.5202 15.7053 9.92896 15.269 9.49288C14.8327 9.0568 14.2414 8.81144 13.6245 8.81055Z" fill="url(#paint1_linear_9660_4220)"/>
<path d="M53.3779 33.79V22.7402H4.5V51.2196C4.50209 51.9726 4.80283 52.694 5.33623 53.2255C5.86964 53.757 6.59212 54.0552 7.34512 54.0546H38.7225C38.0378 51.7383 37.8935 49.2958 38.3006 46.915C38.7078 44.5342 39.6555 42.2785 41.0709 40.3213C42.4863 38.3641 44.3318 36.7576 46.4653 35.6253C48.5989 34.4931 50.9637 33.8652 53.3779 33.79ZM9.29025 26.6912H28.3421C28.6405 26.6912 28.9266 26.8098 29.1376 27.0207C29.3486 27.2317 29.4671 27.5179 29.4671 27.8162C29.4671 28.1146 29.3486 28.4008 29.1376 28.6117C28.9266 28.8227 28.6405 28.9412 28.3421 28.9412H9.29025C8.99188 28.9412 8.70573 28.8227 8.49476 28.6117C8.28378 28.4008 8.16525 28.1146 8.16525 27.8162C8.16525 27.5179 8.28378 27.2317 8.49476 27.0207C8.70573 26.8098 8.99188 26.6912 9.29025 26.6912ZM25.5476 32.4974C25.5476 32.7957 25.4291 33.0819 25.2181 33.2929C25.0071 33.5038 24.721 33.6224 24.4226 33.6224H21.7024C21.404 33.6224 21.1179 33.5038 20.9069 33.2929C20.6959 33.0819 20.5774 32.7957 20.5774 32.4974C20.5774 32.199 20.6959 31.9128 20.9069 31.7019C21.1179 31.4909 21.404 31.3724 21.7024 31.3724H24.4226C24.721 31.3724 25.0071 31.4909 25.2181 31.7019C25.4291 31.9128 25.5476 32.199 25.5476 32.4974ZM9.29025 31.3724H17.0764C17.3747 31.3724 17.6609 31.4909 17.8719 31.7019C18.0828 31.9128 18.2014 32.199 18.2014 32.4974C18.2014 32.7957 18.0828 33.0819 17.8719 33.2929C17.6609 33.5038 17.3747 33.6224 17.0764 33.6224H9.29025C8.99188 33.6224 8.70573 33.5038 8.49476 33.2929C8.28378 33.0819 8.16525 32.7957 8.16525 32.4974C8.16525 32.199 8.28378 31.9128 8.49476 31.7019C8.70573 31.4909 8.99188 31.3724 9.29025 31.3724ZM33.9851 49.8977C33.9851 50.1961 33.8666 50.4823 33.6556 50.6932C33.4446 50.9042 33.1585 51.0227 32.8601 51.0227H9.29025C8.99188 51.0227 8.70573 50.9042 8.49476 50.6932C8.28378 50.4823 8.16525 50.1961 8.16525 49.8977V39.7199C8.16525 39.4215 8.28378 39.1353 8.49476 38.9244C8.70573 38.7134 8.99188 38.5949 9.29025 38.5949H32.8601C33.1585 38.5949 33.4446 38.7134 33.6556 38.9244C33.8666 39.1353 33.9851 39.4215 33.9851 39.7199V49.8977Z" fill="black"/>
<path d="M53.3779 33.79V22.7402H4.5V51.2196C4.50209 51.9726 4.80283 52.694 5.33623 53.2255C5.86964 53.757 6.59212 54.0552 7.34512 54.0546H38.7225C38.0378 51.7383 37.8935 49.2958 38.3006 46.915C38.7078 44.5342 39.6555 42.2785 41.0709 40.3213C42.4863 38.3641 44.3318 36.7576 46.4653 35.6253C48.5989 34.4931 50.9637 33.8652 53.3779 33.79ZM9.29025 26.6912H28.3421C28.6405 26.6912 28.9266 26.8098 29.1376 27.0207C29.3486 27.2317 29.4671 27.5179 29.4671 27.8162C29.4671 28.1146 29.3486 28.4008 29.1376 28.6117C28.9266 28.8227 28.6405 28.9412 28.3421 28.9412H9.29025C8.99188 28.9412 8.70573 28.8227 8.49476 28.6117C8.28378 28.4008 8.16525 28.1146 8.16525 27.8162C8.16525 27.5179 8.28378 27.2317 8.49476 27.0207C8.70573 26.8098 8.99188 26.6912 9.29025 26.6912ZM25.5476 32.4974C25.5476 32.7957 25.4291 33.0819 25.2181 33.2929C25.0071 33.5038 24.721 33.6224 24.4226 33.6224H21.7024C21.404 33.6224 21.1179 33.5038 20.9069 33.2929C20.6959 33.0819 20.5774 32.7957 20.5774 32.4974C20.5774 32.199 20.6959 31.9128 20.9069 31.7019C21.1179 31.4909 21.404 31.3724 21.7024 31.3724H24.4226C24.721 31.3724 25.0071 31.4909 25.2181 31.7019C25.4291 31.9128 25.5476 32.199 25.5476 32.4974ZM9.29025 31.3724H17.0764C17.3747 31.3724 17.6609 31.4909 17.8719 31.7019C18.0828 31.9128 18.2014 32.199 18.2014 32.4974C18.2014 32.7957 18.0828 33.0819 17.8719 33.2929C17.6609 33.5038 17.3747 33.6224 17.0764 33.6224H9.29025C8.99188 33.6224 8.70573 33.5038 8.49476 33.2929C8.28378 33.0819 8.16525 32.7957 8.16525 32.4974C8.16525 32.199 8.28378 31.9128 8.49476 31.7019C8.70573 31.4909 8.99188 31.3724 9.29025 31.3724ZM33.9851 49.8977C33.9851 50.1961 33.8666 50.4823 33.6556 50.6932C33.4446 50.9042 33.1585 51.0227 32.8601 51.0227H9.29025C8.99188 51.0227 8.70573 50.9042 8.49476 50.6932C8.28378 50.4823 8.16525 50.1961 8.16525 49.8977V39.7199C8.16525 39.4215 8.28378 39.1353 8.49476 38.9244C8.70573 38.7134 8.99188 38.5949 9.29025 38.5949H32.8601C33.1585 38.5949 33.4446 38.7134 33.6556 38.9244C33.8666 39.1353 33.9851 39.4215 33.9851 39.7199V49.8977Z" fill="url(#paint2_linear_9660_4220)"/>
<path d="M10.4141 40.8457H31.7339V48.7747H10.4141V40.8457Z" fill="black"/>
<path d="M10.4141 40.8457H31.7339V48.7747H10.4141V40.8457Z" fill="url(#paint3_linear_9660_4220)"/>
<path d="M53.9151 39.5586C53.0241 39.5595 52.1699 39.9138 51.5399 40.5438C50.9099 41.1738 50.5556 42.028 50.5547 42.919C50.5547 44.2262 52.3434 48.1333 53.9151 51.1945C55.4901 48.1333 57.2754 44.2262 57.2754 42.919C57.2745 42.028 56.9202 41.1738 56.2902 40.5438C55.6602 39.9138 54.806 39.5595 53.9151 39.5586Z" fill="black"/>
<path d="M53.9151 39.5586C53.0241 39.5595 52.1699 39.9138 51.5399 40.5438C50.9099 41.1738 50.5556 42.028 50.5547 42.919C50.5547 44.2262 52.3434 48.1333 53.9151 51.1945C55.4901 48.1333 57.2754 44.2262 57.2754 42.919C57.2745 42.028 56.9202 41.1738 56.2902 40.5438C55.6602 39.9138 54.806 39.5595 53.9151 39.5586Z" fill="url(#paint4_linear_9660_4220)"/>
<path d="M10.1543 15.7129H7.34625C6.59098 15.7135 5.86686 16.014 5.33311 16.5484C4.79937 17.0828 4.4997 17.8072 4.5 18.5625V20.4964H53.3779V18.5625C53.3767 17.8082 53.0764 17.0852 52.5428 16.552C52.0092 16.0189 51.2859 15.7191 50.5316 15.7185H47.7292H47.7135H40.8071H40.7902H32.4112H32.3944H25.4891H25.4734H17.0933H17.0764H10.1711L10.1543 15.7129Z" fill="black"/>
<path d="M10.1543 15.7129H7.34625C6.59098 15.7135 5.86686 16.014 5.33311 16.5484C4.79937 17.0828 4.4997 17.8072 4.5 18.5625V20.4964H53.3779V18.5625C53.3767 17.8082 53.0764 17.0852 52.5428 16.552C52.0092 16.0189 51.2859 15.7191 50.5316 15.7185H47.7292H47.7135H40.8071H40.7902H32.4112H32.3944H25.4891H25.4734H17.0933H17.0764H10.1711L10.1543 15.7129Z" fill="url(#paint5_linear_9660_4220)"/>
<path d="M53.9151 57.4072C53.694 57.4072 53.4778 57.4728 53.2939 57.5957C53.11 57.7186 52.9666 57.8932 52.882 58.0975C52.7974 58.3019 52.7752 58.5267 52.8184 58.7436C52.8615 58.9606 52.968 59.1598 53.1244 59.3162C53.2808 59.4726 53.48 59.5791 53.697 59.6222C53.9139 59.6654 54.1387 59.6432 54.3431 59.5586C54.5474 59.474 54.722 59.3306 54.8449 59.1467C54.9678 58.9628 55.0334 58.7466 55.0334 58.5255C55.0316 58.2294 54.9132 57.946 54.7039 57.7367C54.4946 57.5274 54.2112 57.409 53.9151 57.4072Z" fill="black"/>
<path d="M53.9151 57.4072C53.694 57.4072 53.4778 57.4728 53.2939 57.5957C53.11 57.7186 52.9666 57.8932 52.882 58.0975C52.7974 58.3019 52.7752 58.5267 52.8184 58.7436C52.8615 58.9606 52.968 59.1598 53.1244 59.3162C53.2808 59.4726 53.48 59.5791 53.697 59.6222C53.9139 59.6654 54.1387 59.6432 54.3431 59.5586C54.5474 59.474 54.722 59.3306 54.8449 59.1467C54.9678 58.9628 55.0334 58.7466 55.0334 58.5255C55.0316 58.2294 54.9132 57.946 54.7039 57.7367C54.4946 57.5274 54.2112 57.409 53.9151 57.4072Z" fill="url(#paint6_linear_9660_4220)"/>
<path d="M41.9297 11.1379V13.4622H46.5861V11.1379C46.5727 10.5293 46.3215 9.95013 45.8864 9.52443C45.4512 9.09873 44.8666 8.86035 44.2579 8.86035C43.6491 8.86035 43.0646 9.09873 42.6294 9.52443C42.1942 9.95013 41.9431 10.5293 41.9297 11.1379Z" fill="black"/>
<path d="M41.9297 11.1379V13.4622H46.5861V11.1379C46.5727 10.5293 46.3215 9.95013 45.8864 9.52443C45.4512 9.09873 44.8666 8.86035 44.2579 8.86035C43.6491 8.86035 43.0646 9.09873 42.6294 9.52443C42.1942 9.95013 41.9431 10.5293 41.9297 11.1379Z" fill="url(#paint7_linear_9660_4220)"/>
<path d="M26.6172 11.1372V13.4614H31.2781V11.1372C31.2781 10.5199 31.0328 9.92783 30.5963 9.49132C30.1598 9.0548 29.5678 8.80957 28.9504 8.80957C28.3331 8.80957 27.7411 9.0548 27.3046 9.49132C26.868 9.92783 26.6228 10.5199 26.6228 11.1372H26.6172Z" fill="black"/>
<path d="M26.6172 11.1372V13.4614H31.2781V11.1372C31.2781 10.5199 31.0328 9.92783 30.5963 9.49132C30.1598 9.0548 29.5678 8.80957 28.9504 8.80957C28.3331 8.80957 27.7411 9.0548 27.3046 9.49132C26.868 9.92783 26.6228 10.5199 26.6228 11.1372H26.6172Z" fill="url(#paint8_linear_9660_4220)"/>
<defs>
<linearGradient id="paint0_linear_9660_4220" x1="42.7908" y1="56.3953" x2="64.4077" y2="42.8075" gradientUnits="userSpaceOnUse">
<stop stop-color="#03159D"/>
<stop offset="1" stop-color="#7084FF"/>
</linearGradient>
<linearGradient id="paint1_linear_9660_4220" x1="11.7201" y1="12.2986" x2="15.4211" y2="9.97001" gradientUnits="userSpaceOnUse">
<stop stop-color="#03159D"/>
<stop offset="1" stop-color="#7084FF"/>
</linearGradient>
<linearGradient id="paint2_linear_9660_4220" x1="8.94344" y1="46.226" x2="36.5811" y2="19.1101" gradientUnits="userSpaceOnUse">
<stop stop-color="#03159D"/>
<stop offset="1" stop-color="#7084FF"/>
</linearGradient>
<linearGradient id="paint3_linear_9660_4220" x1="12.3522" y1="46.7925" x2="18.4871" y2="36.4237" gradientUnits="userSpaceOnUse">
<stop stop-color="#03159D"/>
<stop offset="1" stop-color="#7084FF"/>
</linearGradient>
<linearGradient id="paint4_linear_9660_4220" x1="51.1657" y1="48.2855" x2="57.7554" y2="45.8931" gradientUnits="userSpaceOnUse">
<stop stop-color="#03159D"/>
<stop offset="1" stop-color="#7084FF"/>
</linearGradient>
<linearGradient id="paint5_linear_9660_4220" x1="8.94344" y1="19.3005" x2="10.2272" y2="11.0551" gradientUnits="userSpaceOnUse">
<stop stop-color="#03159D"/>
<stop offset="1" stop-color="#7084FF"/>
</linearGradient>
<linearGradient id="paint6_linear_9660_4220" x1="53.0002" y1="59.0846" x2="54.7792" y2="57.9664" gradientUnits="userSpaceOnUse">
<stop stop-color="#03159D"/>
<stop offset="1" stop-color="#7084FF"/>
</linearGradient>
<linearGradient id="paint7_linear_9660_4220" x1="42.353" y1="12.3117" x2="46.0321" y2="9.97173" gradientUnits="userSpaceOnUse">
<stop stop-color="#03159D"/>
<stop offset="1" stop-color="#7084FF"/>
</linearGradient>
<linearGradient id="paint8_linear_9660_4220" x1="27.0409" y1="12.2985" x2="30.7444" y2="9.96609" gradientUnits="userSpaceOnUse">
<stop stop-color="#03159D"/>
<stop offset="1" stop-color="#7084FF"/>
</linearGradient>
</defs>
</svg>
