<svg width="72" height="72" viewBox="0 0 72 72" fill="none" xmlns="http://www.w3.org/2000/svg">
<path d="M20.9025 58.264H47.5312C48.7003 58.2621 49.8209 57.7969 50.6475 56.9703C51.4741 56.1436 51.9394 55.023 51.9412 53.854V15.5703C51.9401 14.4682 51.5451 13.4029 50.8275 12.5665L45.7875 6.77275C45.3578 6.27866 44.8272 5.88241 44.2314 5.61072C43.6356 5.33903 42.9886 5.19821 42.3338 5.19775H15.9637C14.7889 5.20005 13.6628 5.66778 12.832 6.49854C12.0013 7.3293 11.5335 8.45539 11.5312 9.63025V53.854C11.5357 55.0242 12.0033 56.145 12.8318 56.9714C13.6603 57.7978 14.7823 58.2625 15.9525 58.264C16.628 58.2478 20.3422 58.2757 20.9025 58.264ZM28.0125 50.4565L24.5138 52.864C24.2675 53.0288 23.9663 53.0901 23.6752 53.0347C23.3841 52.9792 23.1265 52.8115 22.9581 52.5677C22.7896 52.3239 22.7239 52.0236 22.775 51.7317C22.8262 51.4398 22.9901 51.1798 23.2314 51.0078L25.4587 49.4778L23.1975 47.7678C22.9635 47.5876 22.8102 47.3223 22.7707 47.0297C22.7313 46.737 22.8089 46.4406 22.9868 46.2049C23.1647 45.9692 23.4285 45.8132 23.7207 45.7709C24.013 45.7286 24.3101 45.8034 24.5476 45.979L28.0575 48.634C28.1996 48.7415 28.3141 48.8812 28.3914 49.0417C28.4688 49.2021 28.5069 49.3787 28.5025 49.5568C28.4981 49.7349 28.4513 49.9094 28.3661 50.0658C28.2809 50.2223 28.1597 50.3562 28.0125 50.4565ZM34.8525 44.764L30.69 54.1915C30.5667 54.4606 30.3423 54.6703 30.0654 54.7752C29.7886 54.8801 29.4816 54.8717 29.2109 54.7519C28.9402 54.6321 28.7276 54.4105 28.6191 54.135C28.5106 53.8596 28.515 53.5525 28.6313 53.2803L32.7937 43.864C32.9159 43.5954 33.1389 43.3856 33.4145 43.28C33.6901 43.1744 33.9961 43.1815 34.2665 43.2997C34.537 43.4179 34.75 43.6378 34.8596 43.9118C34.9693 44.1857 34.9667 44.4919 34.8525 44.764ZM40.2525 51.0078C40.4914 51.1807 40.6532 51.4404 40.703 51.7311C40.7529 52.0218 40.6869 52.3205 40.5192 52.5632C40.3516 52.8059 40.0955 52.9733 39.8059 53.0295C39.5164 53.0857 39.2163 53.0263 38.97 52.864L35.4713 50.4565C35.324 50.3562 35.2028 50.2223 35.1176 50.0658C35.0324 49.9094 34.9857 49.7349 34.9813 49.5568C34.9769 49.3787 35.0149 49.2021 35.0923 49.0417C35.1697 48.8812 35.2842 48.7415 35.4263 48.634L38.9363 45.979C39.1738 45.805 39.4702 45.7315 39.7616 45.7743C40.0529 45.8171 40.3156 45.9729 40.493 46.2079C40.6703 46.443 40.7481 46.7383 40.7094 47.0302C40.6707 47.3221 40.5187 47.5871 40.2862 47.7678L38.025 49.4778L40.2525 51.0078ZM40.2975 9.67525C40.3019 9.37978 40.4223 9.09788 40.6328 8.89048C40.8433 8.68308 41.127 8.56682 41.4225 8.56682C41.718 8.56682 42.0017 8.68308 42.2122 8.89048C42.4227 9.09788 42.5431 9.37978 42.5475 9.67525V14.6253C42.5485 14.8398 42.6342 15.0452 42.7858 15.1969C42.9375 15.3486 43.143 15.4343 43.3575 15.4353H48.1725C48.4152 15.4393 48.6509 15.5178 48.8475 15.6603C49.0316 15.8044 49.1667 16.0019 49.2341 16.2258C49.3015 16.4497 49.298 16.6889 49.224 16.9108C49.1501 17.1326 49.0093 17.3261 48.8211 17.4648C48.6328 17.6034 48.4063 17.6804 48.1725 17.6853H43.3575C42.5462 17.6844 41.7684 17.3618 41.1947 16.7881C40.621 16.2144 40.2983 15.4366 40.2975 14.6253V9.67525ZM18.1912 13.1178C18.1907 12.9699 18.2195 12.8234 18.2758 12.6866C18.3322 12.5499 18.415 12.4257 18.5196 12.3211C18.6242 12.2165 18.7484 12.1337 18.8851 12.0773C19.0218 12.021 19.1684 11.9922 19.3162 11.9928H35.6513C35.9493 11.9936 36.235 12.1125 36.4458 12.3232C36.6565 12.534 36.7754 12.8197 36.7762 13.1178V22.5115C36.7754 22.8096 36.6565 23.0952 36.4458 23.306C36.235 23.5168 35.9493 23.6356 35.6513 23.6365H19.3162C19.1684 23.637 19.0218 23.6083 18.8851 23.5519C18.7484 23.4956 18.6242 23.4127 18.5196 23.3081C18.415 23.2036 18.3322 23.0794 18.2758 22.9426C18.2195 22.8059 18.1907 22.6594 18.1912 22.5115V13.1178ZM19.3162 27.5065H44.1675C44.4633 27.5105 44.7455 27.6308 44.9533 27.8413C45.161 28.0519 45.2775 28.3358 45.2775 28.6315C45.2775 28.9273 45.161 29.2112 44.9532 29.4217C44.7455 29.6323 44.4632 29.7525 44.1674 29.7565H19.3162C19.0205 29.7525 18.7382 29.6323 18.5305 29.4217C18.3227 29.2112 18.2062 28.9273 18.2062 28.6315C18.2062 28.3357 18.3227 28.0518 18.5305 27.8413C18.7382 27.6307 19.0205 27.5105 19.3162 27.5065ZM19.3162 33.1203H44.1675C44.4633 33.1242 44.7455 33.2445 44.9533 33.4551C45.161 33.6656 45.2775 33.9495 45.2775 34.2453C45.2775 34.5411 45.161 34.8249 44.9532 35.0355C44.7455 35.246 44.4632 35.3663 44.1674 35.3703H19.3162C19.0205 35.3663 18.7382 35.246 18.5305 35.0355C18.3227 34.8249 18.2062 34.541 18.2062 34.2453C18.2062 33.9495 18.3227 33.6656 18.5305 33.455C18.7382 33.2445 19.0205 33.1242 19.3162 33.1203ZM18.1912 39.859C18.1898 39.7109 18.2179 39.5639 18.2739 39.4268C18.3299 39.2896 18.4127 39.165 18.5175 39.0603C18.6223 38.9555 18.7469 38.8727 18.884 38.8167C19.0212 38.7607 19.1681 38.7325 19.3162 38.734H44.1675C44.4659 38.734 44.752 38.8525 44.963 39.0635C45.174 39.2745 45.2925 39.5606 45.2925 39.859C45.2925 40.1574 45.174 40.4435 44.963 40.6545C44.752 40.8655 44.4659 40.984 44.1675 40.984H19.3162C19.1684 40.9845 19.0218 40.9558 18.8851 40.8994C18.7484 40.8431 18.6242 40.7602 18.5196 40.6556C18.415 40.5511 18.3322 40.4269 18.2758 40.2901C18.2195 40.1534 18.1907 40.0069 18.1912 39.859Z" fill="black"/>
<path d="M20.9025 58.264H47.5312C48.7003 58.2621 49.8209 57.7969 50.6475 56.9703C51.4741 56.1436 51.9394 55.023 51.9412 53.854V15.5703C51.9401 14.4682 51.5451 13.4029 50.8275 12.5665L45.7875 6.77275C45.3578 6.27866 44.8272 5.88241 44.2314 5.61072C43.6356 5.33903 42.9886 5.19821 42.3338 5.19775H15.9637C14.7889 5.20005 13.6628 5.66778 12.832 6.49854C12.0013 7.3293 11.5335 8.45539 11.5312 9.63025V53.854C11.5357 55.0242 12.0033 56.145 12.8318 56.9714C13.6603 57.7978 14.7823 58.2625 15.9525 58.264C16.628 58.2478 20.3422 58.2757 20.9025 58.264ZM28.0125 50.4565L24.5138 52.864C24.2675 53.0288 23.9663 53.0901 23.6752 53.0347C23.3841 52.9792 23.1265 52.8115 22.9581 52.5677C22.7896 52.3239 22.7239 52.0236 22.775 51.7317C22.8262 51.4398 22.9901 51.1798 23.2314 51.0078L25.4587 49.4778L23.1975 47.7678C22.9635 47.5876 22.8102 47.3223 22.7707 47.0297C22.7313 46.737 22.8089 46.4406 22.9868 46.2049C23.1647 45.9692 23.4285 45.8132 23.7207 45.7709C24.013 45.7286 24.3101 45.8034 24.5476 45.979L28.0575 48.634C28.1996 48.7415 28.3141 48.8812 28.3914 49.0417C28.4688 49.2021 28.5069 49.3787 28.5025 49.5568C28.4981 49.7349 28.4513 49.9094 28.3661 50.0658C28.2809 50.2223 28.1597 50.3562 28.0125 50.4565ZM34.8525 44.764L30.69 54.1915C30.5667 54.4606 30.3423 54.6703 30.0654 54.7752C29.7886 54.8801 29.4816 54.8717 29.2109 54.7519C28.9402 54.6321 28.7276 54.4105 28.6191 54.135C28.5106 53.8596 28.515 53.5525 28.6313 53.2803L32.7937 43.864C32.9159 43.5954 33.1389 43.3856 33.4145 43.28C33.6901 43.1744 33.9961 43.1815 34.2665 43.2997C34.537 43.4179 34.75 43.6378 34.8596 43.9118C34.9693 44.1857 34.9667 44.4919 34.8525 44.764ZM40.2525 51.0078C40.4914 51.1807 40.6532 51.4404 40.703 51.7311C40.7529 52.0218 40.6869 52.3205 40.5192 52.5632C40.3516 52.8059 40.0955 52.9733 39.8059 53.0295C39.5164 53.0857 39.2163 53.0263 38.97 52.864L35.4713 50.4565C35.324 50.3562 35.2028 50.2223 35.1176 50.0658C35.0324 49.9094 34.9857 49.7349 34.9813 49.5568C34.9769 49.3787 35.0149 49.2021 35.0923 49.0417C35.1697 48.8812 35.2842 48.7415 35.4263 48.634L38.9363 45.979C39.1738 45.805 39.4702 45.7315 39.7616 45.7743C40.0529 45.8171 40.3156 45.9729 40.493 46.2079C40.6703 46.443 40.7481 46.7383 40.7094 47.0302C40.6707 47.3221 40.5187 47.5871 40.2862 47.7678L38.025 49.4778L40.2525 51.0078ZM40.2975 9.67525C40.3019 9.37978 40.4223 9.09788 40.6328 8.89048C40.8433 8.68308 41.127 8.56682 41.4225 8.56682C41.718 8.56682 42.0017 8.68308 42.2122 8.89048C42.4227 9.09788 42.5431 9.37978 42.5475 9.67525V14.6253C42.5485 14.8398 42.6342 15.0452 42.7858 15.1969C42.9375 15.3486 43.143 15.4343 43.3575 15.4353H48.1725C48.4152 15.4393 48.6509 15.5178 48.8475 15.6603C49.0316 15.8044 49.1667 16.0019 49.2341 16.2258C49.3015 16.4497 49.298 16.6889 49.224 16.9108C49.1501 17.1326 49.0093 17.3261 48.8211 17.4648C48.6328 17.6034 48.4063 17.6804 48.1725 17.6853H43.3575C42.5462 17.6844 41.7684 17.3618 41.1947 16.7881C40.621 16.2144 40.2983 15.4366 40.2975 14.6253V9.67525ZM18.1912 13.1178C18.1907 12.9699 18.2195 12.8234 18.2758 12.6866C18.3322 12.5499 18.415 12.4257 18.5196 12.3211C18.6242 12.2165 18.7484 12.1337 18.8851 12.0773C19.0218 12.021 19.1684 11.9922 19.3162 11.9928H35.6513C35.9493 11.9936 36.235 12.1125 36.4458 12.3232C36.6565 12.534 36.7754 12.8197 36.7762 13.1178V22.5115C36.7754 22.8096 36.6565 23.0952 36.4458 23.306C36.235 23.5168 35.9493 23.6356 35.6513 23.6365H19.3162C19.1684 23.637 19.0218 23.6083 18.8851 23.5519C18.7484 23.4956 18.6242 23.4127 18.5196 23.3081C18.415 23.2036 18.3322 23.0794 18.2758 22.9426C18.2195 22.8059 18.1907 22.6594 18.1912 22.5115V13.1178ZM19.3162 27.5065H44.1675C44.4633 27.5105 44.7455 27.6308 44.9533 27.8413C45.161 28.0519 45.2775 28.3358 45.2775 28.6315C45.2775 28.9273 45.161 29.2112 44.9532 29.4217C44.7455 29.6323 44.4632 29.7525 44.1674 29.7565H19.3162C19.0205 29.7525 18.7382 29.6323 18.5305 29.4217C18.3227 29.2112 18.2062 28.9273 18.2062 28.6315C18.2062 28.3357 18.3227 28.0518 18.5305 27.8413C18.7382 27.6307 19.0205 27.5105 19.3162 27.5065ZM19.3162 33.1203H44.1675C44.4633 33.1242 44.7455 33.2445 44.9533 33.4551C45.161 33.6656 45.2775 33.9495 45.2775 34.2453C45.2775 34.5411 45.161 34.8249 44.9532 35.0355C44.7455 35.246 44.4632 35.3663 44.1674 35.3703H19.3162C19.0205 35.3663 18.7382 35.246 18.5305 35.0355C18.3227 34.8249 18.2062 34.541 18.2062 34.2453C18.2062 33.9495 18.3227 33.6656 18.5305 33.455C18.7382 33.2445 19.0205 33.1242 19.3162 33.1203ZM18.1912 39.859C18.1898 39.7109 18.2179 39.5639 18.2739 39.4268C18.3299 39.2896 18.4127 39.165 18.5175 39.0603C18.6223 38.9555 18.7469 38.8727 18.884 38.8167C19.0212 38.7607 19.1681 38.7325 19.3162 38.734H44.1675C44.4659 38.734 44.752 38.8525 44.963 39.0635C45.174 39.2745 45.2925 39.5606 45.2925 39.859C45.2925 40.1574 45.174 40.4435 44.963 40.6545C44.752 40.8655 44.4659 40.984 44.1675 40.984H19.3162C19.1684 40.9845 19.0218 40.9558 18.8851 40.8994C18.7484 40.8431 18.6242 40.7602 18.5196 40.6556C18.415 40.5511 18.3322 40.4269 18.2758 40.2901C18.2195 40.1534 18.1907 40.0069 18.1912 39.859Z" fill="url(#paint0_linear_9660_3502)"/>
<path d="M56.0513 13.7251H53.9362C54.1082 14.325 54.1953 14.946 54.195 15.5701V53.8538C54.1951 54.7285 54.0229 55.5946 53.6882 56.4026C53.3536 57.2107 52.863 57.9449 52.2445 58.5634C51.6261 59.1819 50.8919 59.6724 50.0838 60.0071C49.2757 60.3417 48.4096 60.5139 47.535 60.5138H20.0625V62.3701C20.0622 63.5438 20.5276 64.6697 21.3565 65.5006C22.1854 66.3316 23.3101 66.7999 24.4838 66.8026H56.0513C57.2244 66.798 58.3479 66.3291 59.1764 65.4985C60.0049 64.668 60.4708 63.5432 60.4725 62.3701V18.1463C60.4685 16.975 60.0014 15.8527 59.1731 15.0245C58.3449 14.1962 57.2226 13.7291 56.0513 13.7251Z" fill="black"/>
<path d="M56.0513 13.7251H53.9362C54.1082 14.325 54.1953 14.946 54.195 15.5701V53.8538C54.1951 54.7285 54.0229 55.5946 53.6882 56.4026C53.3536 57.2107 52.863 57.9449 52.2445 58.5634C51.6261 59.1819 50.8919 59.6724 50.0838 60.0071C49.2757 60.3417 48.4096 60.5139 47.535 60.5138H20.0625V62.3701C20.0622 63.5438 20.5276 64.6697 21.3565 65.5006C22.1854 66.3316 23.3101 66.7999 24.4838 66.8026H56.0513C57.2244 66.798 58.3479 66.3291 59.1764 65.4985C60.0049 64.668 60.4708 63.5432 60.4725 62.3701V18.1463C60.4685 16.975 60.0014 15.8527 59.1731 15.0245C58.3449 14.1962 57.2226 13.7291 56.0513 13.7251Z" fill="url(#paint1_linear_9660_3502)"/>
<path d="M20.4375 14.2427H34.5225V21.3864H20.4375V14.2427Z" fill="black"/>
<path d="M20.4375 14.2427H34.5225V21.3864H20.4375V14.2427Z" fill="url(#paint2_linear_9660_3502)"/>
<defs>
<linearGradient id="paint0_linear_9660_3502" x1="15.2049" y1="44.9996" x2="51.691" y2="27.5363" gradientUnits="userSpaceOnUse">
<stop stop-color="#03159D"/>
<stop offset="1" stop-color="#7084FF"/>
</linearGradient>
<linearGradient id="paint1_linear_9660_3502" x1="23.7361" y1="53.5332" x2="60.2244" y2="36.0716" gradientUnits="userSpaceOnUse">
<stop stop-color="#03159D"/>
<stop offset="1" stop-color="#7084FF"/>
</linearGradient>
<linearGradient id="paint2_linear_9660_3502" x1="21.718" y1="19.6005" x2="27.8817" y2="11.9617" gradientUnits="userSpaceOnUse">
<stop stop-color="#03159D"/>
<stop offset="1" stop-color="#7084FF"/>
</linearGradient>
</defs>
</svg>
