<svg width="72" height="72" viewBox="0 0 72 72" fill="none" xmlns="http://www.w3.org/2000/svg">
<path d="M49.1695 22.4188V7.84514C49.1695 7.43452 49.0061 7.07579 48.743 6.82069C48.464 6.55364 48.0693 6.3901 47.6269 6.3901H38.8133V8.5906C38.8133 9.37191 38.4944 10.0815 37.9801 10.5956C37.466 11.1099 36.7564 11.4287 35.9751 11.4287H15.167C14.3857 11.4287 13.6721 11.1098 13.1579 10.5956C12.6436 10.0815 12.3248 9.37177 12.3248 8.5906V6.39024H3.51534C3.08883 6.39024 2.70211 6.56166 2.42311 6.8446C2.14411 7.1236 1.96875 7.51032 1.96875 7.93289V66.642C1.96875 67.0685 2.14411 67.4512 2.42311 67.7342C2.70211 68.0132 3.08883 68.1886 3.51534 68.1886H47.6269C48.0495 68.1886 48.436 68.0132 48.7152 67.7342C48.9981 67.4513 49.1695 67.0685 49.1695 66.642V61.7229H40.4596V64.0628C40.4596 64.6088 40.0172 65.0473 39.475 65.0473H34.7753C34.2332 65.0473 33.7908 64.6088 33.7908 64.0628V61.7229H30.1354C28.9714 61.7229 27.907 61.2445 27.1418 60.4793C26.3724 59.7099 25.8941 58.6496 25.8941 57.4816V33.5763C25.8941 32.4084 26.3724 31.3479 27.1418 30.5786C27.9072 29.8133 28.9714 29.3349 30.1354 29.3349H39.4232V26.9631C39.4232 25.7992 40.1887 24.8106 41.237 24.4677C41.2729 24.3361 41.3128 24.2086 41.3646 24.081C41.7393 23.1482 42.5843 22.4187 43.8919 22.4187L49.1695 22.4188ZM56.5002 29.3349V26.9631C56.5002 26.8197 56.4563 26.6881 56.3806 26.5805C56.4365 26.4768 56.4882 26.3693 56.5321 26.2615C56.6716 25.9108 56.7433 25.54 56.7433 25.1732C56.7433 24.9381 56.7155 24.6989 56.6556 24.4677C57.7079 24.8106 58.4693 25.7992 58.4693 26.9631V29.3349H56.5002ZM41.3924 29.3349H49.1695V27.9237H43.8917C42.7358 27.9237 41.9425 27.3577 41.5159 26.5803C41.4401 26.6879 41.3923 26.8195 41.3923 26.963L41.3924 29.3349ZM54.0008 24.388H50.1542H43.8919C43.5171 24.388 43.282 24.5753 43.1864 24.8145C43.1425 24.9221 43.1225 25.0418 43.1225 25.1732C43.1225 25.3008 43.1425 25.4244 43.1864 25.532C43.282 25.7712 43.5173 25.9585 43.8919 25.9585H50.1542H54.0008C54.3795 25.9585 54.6147 25.7712 54.7104 25.532C54.7502 25.4244 54.7743 25.3008 54.7743 25.1732C54.7743 25.0418 54.7543 24.9221 54.7104 24.8145C54.6147 24.5753 54.3794 24.388 54.0008 24.388ZM38.4903 61.7229H35.7598V63.0783H38.4903V61.7229ZM62.1367 61.7229H59.4062V63.0783H62.1367V61.7229ZM67.7572 31.3041H50.154H30.1352C29.5134 31.3041 28.9433 31.5592 28.5328 31.9737C28.1183 32.3843 27.8632 32.9543 27.8632 33.5761V57.4816C27.8632 58.1034 28.1183 58.6735 28.5328 59.0881C28.9434 59.4987 29.5134 59.7538 30.1352 59.7538H34.7752H39.4748H50.1539H58.4214H63.1171H67.7571C68.3828 59.7538 68.949 59.4987 69.3636 59.0881C69.7742 58.6735 70.0332 58.1035 70.0332 57.4816V33.5763C70.0332 32.9544 69.7742 32.3843 69.3636 31.9739C68.9491 31.5592 68.383 31.3041 67.7572 31.3041ZM15.4101 3.81104L17.4749 5.74843H33.6669L35.7278 3.81104H15.4101ZM36.8481 5.45747L34.7753 7.40274C34.5959 7.59413 34.3368 7.7176 34.0537 7.7176H17.0883V7.71366C16.8452 7.71366 16.602 7.62591 16.4146 7.44661L14.294 5.45747V8.5906C14.294 8.8298 14.3937 9.04496 14.5491 9.20443C14.7085 9.36389 14.9278 9.45952 15.167 9.45952H35.975C36.2142 9.45952 36.4295 9.36389 36.5888 9.20443C36.7481 9.04496 36.848 8.82966 36.848 8.5906L36.8481 5.45747ZM9.03614 23.5189C8.64942 23.1402 8.64548 22.5184 9.02419 22.1318C9.40289 21.7451 10.0247 21.7372 10.4115 22.1198L11.7987 23.4832L16.5503 18.7316C16.937 18.3449 17.5589 18.3449 17.9415 18.7316C18.3282 19.1143 18.3282 19.7361 17.9415 20.1228L12.5003 25.564V25.5601C12.1177 25.9427 11.4997 25.9468 11.1171 25.5681L9.03614 23.5189ZM15.2069 39.8027C15.2069 39.2567 15.6493 38.8182 16.1916 38.8182C16.7338 38.8182 17.1762 39.2567 17.1762 39.8027V43.8169C17.1762 44.3629 16.7338 44.8014 16.1916 44.8014H7.41783C6.87572 44.8014 6.43725 44.3629 6.43725 43.8169V35.0472C6.43725 34.5051 6.87572 34.0627 7.41783 34.0627H13.744C14.2861 34.0627 14.7246 34.5051 14.7246 35.0472C14.7246 35.5893 14.2861 36.0319 13.744 36.0319H8.40234V42.8363H15.2068V39.8027H15.2069ZM9.03614 54.763C8.64942 54.3803 8.64548 53.7585 9.02419 53.3757C9.40289 52.989 10.0247 52.9811 10.4115 53.3638L11.7987 54.7271L16.5503 49.9716C16.937 49.589 17.5589 49.589 17.9415 49.9716C18.3282 50.3583 18.3282 50.98 17.9415 51.3668L12.5003 56.808V56.804C12.1177 57.1867 11.4997 57.1907 11.1171 56.812L9.03614 54.763ZM15.2069 55.4246C15.2069 54.8784 15.6493 54.4401 16.1916 54.4401C16.7338 54.4401 17.1762 54.8786 17.1762 55.4246V59.4388C17.1762 59.9848 16.7338 60.4233 16.1916 60.4233H7.41783C6.87572 60.4233 6.43725 59.9848 6.43725 59.4388V50.6691C6.43725 50.127 6.87572 49.6846 7.41783 49.6846H13.744C14.2861 49.6846 14.7246 50.127 14.7246 50.6691C14.7246 51.2112 14.2861 51.6536 13.744 51.6536H8.40234V58.4541H15.2068V55.4246H15.2069ZM9.03614 39.141C8.64942 38.7583 8.64548 38.1404 9.02419 37.7537C9.40289 37.367 10.0247 37.3591 10.4115 37.7417L11.7987 39.1051L16.5503 34.3496C16.937 33.9669 17.5589 33.9669 17.9415 34.3496C18.3282 34.7363 18.3282 35.358 17.9415 35.7447L12.5003 41.1859V41.1819C12.1177 41.5645 11.4997 41.5686 11.1171 41.1899L9.03614 39.141ZM15.2069 24.1807C15.2069 23.6347 15.6493 23.1962 16.1916 23.1962C16.7338 23.1962 17.1762 23.6347 17.1762 24.1807V28.1988C17.1762 28.7409 16.7338 29.1834 16.1916 29.1834H7.41783C6.87572 29.1834 6.43725 28.741 6.43725 28.1988V19.4251C6.43725 18.8829 6.87572 18.4405 7.41783 18.4405H13.744C14.2861 18.4405 14.7246 18.8829 14.7246 19.4251C14.7246 19.9712 14.2861 20.4097 13.744 20.4097H8.40234V27.2141H15.2068V24.1807H15.2069Z" fill="black"/>
<path d="M49.1695 22.4188V7.84514C49.1695 7.43452 49.0061 7.07579 48.743 6.82069C48.464 6.55364 48.0693 6.3901 47.6269 6.3901H38.8133V8.5906C38.8133 9.37191 38.4944 10.0815 37.9801 10.5956C37.466 11.1099 36.7564 11.4287 35.9751 11.4287H15.167C14.3857 11.4287 13.6721 11.1098 13.1579 10.5956C12.6436 10.0815 12.3248 9.37177 12.3248 8.5906V6.39024H3.51534C3.08883 6.39024 2.70211 6.56166 2.42311 6.8446C2.14411 7.1236 1.96875 7.51032 1.96875 7.93289V66.642C1.96875 67.0685 2.14411 67.4512 2.42311 67.7342C2.70211 68.0132 3.08883 68.1886 3.51534 68.1886H47.6269C48.0495 68.1886 48.436 68.0132 48.7152 67.7342C48.9981 67.4513 49.1695 67.0685 49.1695 66.642V61.7229H40.4596V64.0628C40.4596 64.6088 40.0172 65.0473 39.475 65.0473H34.7753C34.2332 65.0473 33.7908 64.6088 33.7908 64.0628V61.7229H30.1354C28.9714 61.7229 27.907 61.2445 27.1418 60.4793C26.3724 59.7099 25.8941 58.6496 25.8941 57.4816V33.5763C25.8941 32.4084 26.3724 31.3479 27.1418 30.5786C27.9072 29.8133 28.9714 29.3349 30.1354 29.3349H39.4232V26.9631C39.4232 25.7992 40.1887 24.8106 41.237 24.4677C41.2729 24.3361 41.3128 24.2086 41.3646 24.081C41.7393 23.1482 42.5843 22.4187 43.8919 22.4187L49.1695 22.4188ZM56.5002 29.3349V26.9631C56.5002 26.8197 56.4563 26.6881 56.3806 26.5805C56.4365 26.4768 56.4882 26.3693 56.5321 26.2615C56.6716 25.9108 56.7433 25.54 56.7433 25.1732C56.7433 24.9381 56.7155 24.6989 56.6556 24.4677C57.7079 24.8106 58.4693 25.7992 58.4693 26.9631V29.3349H56.5002ZM41.3924 29.3349H49.1695V27.9237H43.8917C42.7358 27.9237 41.9425 27.3577 41.5159 26.5803C41.4401 26.6879 41.3923 26.8195 41.3923 26.963L41.3924 29.3349ZM54.0008 24.388H50.1542H43.8919C43.5171 24.388 43.282 24.5753 43.1864 24.8145C43.1425 24.9221 43.1225 25.0418 43.1225 25.1732C43.1225 25.3008 43.1425 25.4244 43.1864 25.532C43.282 25.7712 43.5173 25.9585 43.8919 25.9585H50.1542H54.0008C54.3795 25.9585 54.6147 25.7712 54.7104 25.532C54.7502 25.4244 54.7743 25.3008 54.7743 25.1732C54.7743 25.0418 54.7543 24.9221 54.7104 24.8145C54.6147 24.5753 54.3794 24.388 54.0008 24.388ZM38.4903 61.7229H35.7598V63.0783H38.4903V61.7229ZM62.1367 61.7229H59.4062V63.0783H62.1367V61.7229ZM67.7572 31.3041H50.154H30.1352C29.5134 31.3041 28.9433 31.5592 28.5328 31.9737C28.1183 32.3843 27.8632 32.9543 27.8632 33.5761V57.4816C27.8632 58.1034 28.1183 58.6735 28.5328 59.0881C28.9434 59.4987 29.5134 59.7538 30.1352 59.7538H34.7752H39.4748H50.1539H58.4214H63.1171H67.7571C68.3828 59.7538 68.949 59.4987 69.3636 59.0881C69.7742 58.6735 70.0332 58.1035 70.0332 57.4816V33.5763C70.0332 32.9544 69.7742 32.3843 69.3636 31.9739C68.9491 31.5592 68.383 31.3041 67.7572 31.3041ZM15.4101 3.81104L17.4749 5.74843H33.6669L35.7278 3.81104H15.4101ZM36.8481 5.45747L34.7753 7.40274C34.5959 7.59413 34.3368 7.7176 34.0537 7.7176H17.0883V7.71366C16.8452 7.71366 16.602 7.62591 16.4146 7.44661L14.294 5.45747V8.5906C14.294 8.8298 14.3937 9.04496 14.5491 9.20443C14.7085 9.36389 14.9278 9.45952 15.167 9.45952H35.975C36.2142 9.45952 36.4295 9.36389 36.5888 9.20443C36.7481 9.04496 36.848 8.82966 36.848 8.5906L36.8481 5.45747ZM9.03614 23.5189C8.64942 23.1402 8.64548 22.5184 9.02419 22.1318C9.40289 21.7451 10.0247 21.7372 10.4115 22.1198L11.7987 23.4832L16.5503 18.7316C16.937 18.3449 17.5589 18.3449 17.9415 18.7316C18.3282 19.1143 18.3282 19.7361 17.9415 20.1228L12.5003 25.564V25.5601C12.1177 25.9427 11.4997 25.9468 11.1171 25.5681L9.03614 23.5189ZM15.2069 39.8027C15.2069 39.2567 15.6493 38.8182 16.1916 38.8182C16.7338 38.8182 17.1762 39.2567 17.1762 39.8027V43.8169C17.1762 44.3629 16.7338 44.8014 16.1916 44.8014H7.41783C6.87572 44.8014 6.43725 44.3629 6.43725 43.8169V35.0472C6.43725 34.5051 6.87572 34.0627 7.41783 34.0627H13.744C14.2861 34.0627 14.7246 34.5051 14.7246 35.0472C14.7246 35.5893 14.2861 36.0319 13.744 36.0319H8.40234V42.8363H15.2068V39.8027H15.2069ZM9.03614 54.763C8.64942 54.3803 8.64548 53.7585 9.02419 53.3757C9.40289 52.989 10.0247 52.9811 10.4115 53.3638L11.7987 54.7271L16.5503 49.9716C16.937 49.589 17.5589 49.589 17.9415 49.9716C18.3282 50.3583 18.3282 50.98 17.9415 51.3668L12.5003 56.808V56.804C12.1177 57.1867 11.4997 57.1907 11.1171 56.812L9.03614 54.763ZM15.2069 55.4246C15.2069 54.8784 15.6493 54.4401 16.1916 54.4401C16.7338 54.4401 17.1762 54.8786 17.1762 55.4246V59.4388C17.1762 59.9848 16.7338 60.4233 16.1916 60.4233H7.41783C6.87572 60.4233 6.43725 59.9848 6.43725 59.4388V50.6691C6.43725 50.127 6.87572 49.6846 7.41783 49.6846H13.744C14.2861 49.6846 14.7246 50.127 14.7246 50.6691C14.7246 51.2112 14.2861 51.6536 13.744 51.6536H8.40234V58.4541H15.2068V55.4246H15.2069ZM9.03614 39.141C8.64942 38.7583 8.64548 38.1404 9.02419 37.7537C9.40289 37.367 10.0247 37.3591 10.4115 37.7417L11.7987 39.1051L16.5503 34.3496C16.937 33.9669 17.5589 33.9669 17.9415 34.3496C18.3282 34.7363 18.3282 35.358 17.9415 35.7447L12.5003 41.1859V41.1819C12.1177 41.5645 11.4997 41.5686 11.1171 41.1899L9.03614 39.141ZM15.2069 24.1807C15.2069 23.6347 15.6493 23.1962 16.1916 23.1962C16.7338 23.1962 17.1762 23.6347 17.1762 24.1807V28.1988C17.1762 28.7409 16.7338 29.1834 16.1916 29.1834H7.41783C6.87572 29.1834 6.43725 28.741 6.43725 28.1988V19.4251C6.43725 18.8829 6.87572 18.4405 7.41783 18.4405H13.744C14.2861 18.4405 14.7246 18.8829 14.7246 19.4251C14.7246 19.9712 14.2861 20.4097 13.744 20.4097H8.40234V27.2141H15.2068V24.1807H15.2069Z" fill="url(#paint0_linear_9660_3564)"/>
<defs>
<linearGradient id="paint0_linear_9660_3564" x1="8.15643" y1="52.0942" x2="60.5504" y2="17.2748" gradientUnits="userSpaceOnUse">
<stop stop-color="#03159D"/>
<stop offset="1" stop-color="#7084FF"/>
</linearGradient>
</defs>
</svg>
