<svg width="72" height="72" viewBox="0 0 72 72" fill="none" xmlns="http://www.w3.org/2000/svg">
<path d="M16.3125 13.725H35.4375C36.675 13.725 37.6875 12.7125 37.6875 11.475V6.75C37.6875 4.275 35.6625 2.25 33.1875 2.25H18.5625C16.0875 2.25 14.0625 4.275 14.0625 6.75V11.475C14.0625 12.7125 15.075 13.725 16.3125 13.725Z" fill="black"/>
<path d="M16.3125 13.725H35.4375C36.675 13.725 37.6875 12.7125 37.6875 11.475V6.75C37.6875 4.275 35.6625 2.25 33.1875 2.25H18.5625C16.0875 2.25 14.0625 4.275 14.0625 6.75V11.475C14.0625 12.7125 15.075 13.725 16.3125 13.725Z" fill="url(#paint0_linear_9660_3604)"/>
<path d="M68.1956 56.8124L65.9906 54.6074C65.1806 56.2049 64.1456 57.6899 62.8406 58.9949C61.5356 60.2999 60.0506 61.3574 58.4531 62.1449L60.6581 64.3499C61.6931 65.3849 63.0656 65.9024 64.4156 65.9024C65.7656 65.9024 67.1381 65.3849 68.1956 64.3499C69.2081 63.3374 69.7481 62.0099 69.7481 60.5699C69.7481 59.1299 69.1856 57.8024 68.1956 56.7899V56.8124Z" fill="black"/>
<path d="M68.1956 56.8124L65.9906 54.6074C65.1806 56.2049 64.1456 57.6899 62.8406 58.9949C61.5356 60.2999 60.0506 61.3574 58.4531 62.1449L60.6581 64.3499C61.6931 65.3849 63.0656 65.9024 64.4156 65.9024C65.7656 65.9024 67.1381 65.3849 68.1956 64.3499C69.2081 63.3374 69.7481 62.0099 69.7481 60.5699C69.7481 59.1299 69.1856 57.8024 68.1956 56.7899V56.8124Z" fill="url(#paint1_linear_9660_3604)"/>
<path d="M63.2656 47.0473C63.2656 43.7398 61.9831 40.6348 59.6431 38.2948C54.8281 33.4798 46.9756 33.4798 42.1381 38.2948C39.7981 40.6348 38.5156 43.7398 38.5156 47.0473C38.5156 50.3548 39.7981 53.4598 42.1381 55.7998C44.4781 58.1398 47.7181 59.4223 50.8906 59.4223C54.0631 59.4223 57.2356 58.2073 59.6431 55.7998C61.9831 53.4598 63.2656 50.3548 63.2656 47.0473ZM58.2031 45.9898L51.4531 52.7398C51.0256 53.1673 50.4631 53.3923 49.8556 53.3923C49.2481 53.3923 48.6856 53.1448 48.2581 52.7398L43.3756 47.8573C42.4981 46.9798 42.4981 45.5623 43.3756 44.6848C44.2531 43.8073 45.6706 43.8073 46.5481 44.6848L49.8331 47.9698L54.9856 42.8173C55.8631 41.9398 57.2806 41.9398 58.1581 42.8173C59.0356 43.6948 59.0356 45.1123 58.1581 45.9898H58.2031Z" fill="black"/>
<path d="M63.2656 47.0473C63.2656 43.7398 61.9831 40.6348 59.6431 38.2948C54.8281 33.4798 46.9756 33.4798 42.1381 38.2948C39.7981 40.6348 38.5156 43.7398 38.5156 47.0473C38.5156 50.3548 39.7981 53.4598 42.1381 55.7998C44.4781 58.1398 47.7181 59.4223 50.8906 59.4223C54.0631 59.4223 57.2356 58.2073 59.6431 55.7998C61.9831 53.4598 63.2656 50.3548 63.2656 47.0473ZM58.2031 45.9898L51.4531 52.7398C51.0256 53.1673 50.4631 53.3923 49.8556 53.3923C49.2481 53.3923 48.6856 53.1448 48.2581 52.7398L43.3756 47.8573C42.4981 46.9798 42.4981 45.5623 43.3756 44.6848C44.2531 43.8073 45.6706 43.8073 46.5481 44.6848L49.8331 47.9698L54.9856 42.8173C55.8631 41.9398 57.2806 41.9398 58.1581 42.8173C59.0356 43.6948 59.0356 45.1123 58.1581 45.9898H58.2031Z" fill="url(#paint2_linear_9660_3604)"/>
<path d="M34.02 47.0474C34.02 42.5474 35.775 38.2949 38.97 35.1224C41.8275 32.2649 45.5175 30.5774 49.5225 30.2624V13.2974C49.5225 10.3274 47.115 7.91992 44.145 7.91992H42.21V11.4749C42.21 15.1874 39.1725 18.2249 35.46 18.2249H16.3125C12.6 18.2249 9.5625 15.1874 9.5625 11.4749V7.91992H7.6275C4.6575 7.91992 2.25 10.3274 2.25 13.2974V64.3724C2.25 67.3424 4.6575 69.7499 7.6275 69.7499H44.1C47.07 69.7499 49.4775 67.3424 49.4775 64.3724V63.8549C45.495 63.5399 41.7825 61.8299 38.925 58.9949C35.73 55.7999 33.975 51.5699 33.975 47.0699L34.02 47.0474ZM30.3975 22.2074H40.185C41.4225 22.2074 42.435 23.2199 42.435 24.4574C42.435 25.6949 41.4225 26.7074 40.185 26.7074H30.3975C29.16 26.7074 28.1475 25.6949 28.1475 24.4574C28.1475 23.2199 29.16 22.2074 30.3975 22.2074ZM30.3975 30.9824H31.6575C32.895 30.9824 33.9075 31.9949 33.9075 33.2324C33.9075 34.4699 32.895 35.4824 31.6575 35.4824H30.3975C29.16 35.4824 28.1475 34.4699 28.1475 33.2324C28.1475 31.9949 29.16 30.9824 30.3975 30.9824ZM30.7575 45.8774C30.7575 47.1149 29.745 48.1274 28.5075 48.1274H21.465C20.2275 48.1274 19.215 47.1149 19.215 45.8774C19.215 44.6399 20.2275 43.6274 21.465 43.6274H28.5075C29.745 43.6274 30.7575 44.6399 30.7575 45.8774ZM7.7625 37.3949C7.7625 36.1574 8.775 35.1449 10.0125 35.1449H15.39V28.7099L14.175 29.9249C13.2975 30.8024 11.88 30.8024 11.0025 29.9249C10.125 29.0474 10.125 27.6299 11.0025 26.7524L16.065 21.6899C16.9425 20.8124 18.36 20.8124 19.2375 21.6899L24.3 26.7524C25.1775 27.6299 25.1775 29.0474 24.3 29.9249C23.85 30.3749 23.2875 30.5774 22.7025 30.5774C22.1175 30.5774 21.555 30.3524 21.105 29.9249L19.89 28.7099V37.3949C19.89 38.6324 18.8775 39.6449 17.64 39.6449H12.2625V43.6274H14.4675C15.705 43.6274 16.7175 44.6399 16.7175 45.8774C16.7175 47.1149 15.705 48.1274 14.4675 48.1274H10.0125C8.775 48.1274 7.7625 47.1149 7.7625 45.8774V37.3949ZM9.765 52.6724H29.115C30.3525 52.6724 31.365 53.6849 31.365 54.9224C31.365 56.1599 30.3525 57.1724 29.115 57.1724H9.765C8.5275 57.1724 7.515 56.1599 7.515 54.9224C7.515 53.6849 8.5275 52.6724 9.765 52.6724ZM11.025 66.0149H9.765C8.5275 66.0149 7.515 65.0024 7.515 63.7649C7.515 62.5274 8.5275 61.5149 9.765 61.5149H11.025C12.2625 61.5149 13.275 62.5274 13.275 63.7649C13.275 65.0024 12.2625 66.0149 11.025 66.0149ZM33.2775 66.0149H19.08C17.8425 66.0149 16.83 65.0024 16.83 63.7649C16.83 62.5274 17.8425 61.5149 19.08 61.5149H33.2775C34.515 61.5149 35.5275 62.5274 35.5275 63.7649C35.5275 65.0024 34.515 66.0149 33.2775 66.0149Z" fill="black"/>
<path d="M34.02 47.0474C34.02 42.5474 35.775 38.2949 38.97 35.1224C41.8275 32.2649 45.5175 30.5774 49.5225 30.2624V13.2974C49.5225 10.3274 47.115 7.91992 44.145 7.91992H42.21V11.4749C42.21 15.1874 39.1725 18.2249 35.46 18.2249H16.3125C12.6 18.2249 9.5625 15.1874 9.5625 11.4749V7.91992H7.6275C4.6575 7.91992 2.25 10.3274 2.25 13.2974V64.3724C2.25 67.3424 4.6575 69.7499 7.6275 69.7499H44.1C47.07 69.7499 49.4775 67.3424 49.4775 64.3724V63.8549C45.495 63.5399 41.7825 61.8299 38.925 58.9949C35.73 55.7999 33.975 51.5699 33.975 47.0699L34.02 47.0474ZM30.3975 22.2074H40.185C41.4225 22.2074 42.435 23.2199 42.435 24.4574C42.435 25.6949 41.4225 26.7074 40.185 26.7074H30.3975C29.16 26.7074 28.1475 25.6949 28.1475 24.4574C28.1475 23.2199 29.16 22.2074 30.3975 22.2074ZM30.3975 30.9824H31.6575C32.895 30.9824 33.9075 31.9949 33.9075 33.2324C33.9075 34.4699 32.895 35.4824 31.6575 35.4824H30.3975C29.16 35.4824 28.1475 34.4699 28.1475 33.2324C28.1475 31.9949 29.16 30.9824 30.3975 30.9824ZM30.7575 45.8774C30.7575 47.1149 29.745 48.1274 28.5075 48.1274H21.465C20.2275 48.1274 19.215 47.1149 19.215 45.8774C19.215 44.6399 20.2275 43.6274 21.465 43.6274H28.5075C29.745 43.6274 30.7575 44.6399 30.7575 45.8774ZM7.7625 37.3949C7.7625 36.1574 8.775 35.1449 10.0125 35.1449H15.39V28.7099L14.175 29.9249C13.2975 30.8024 11.88 30.8024 11.0025 29.9249C10.125 29.0474 10.125 27.6299 11.0025 26.7524L16.065 21.6899C16.9425 20.8124 18.36 20.8124 19.2375 21.6899L24.3 26.7524C25.1775 27.6299 25.1775 29.0474 24.3 29.9249C23.85 30.3749 23.2875 30.5774 22.7025 30.5774C22.1175 30.5774 21.555 30.3524 21.105 29.9249L19.89 28.7099V37.3949C19.89 38.6324 18.8775 39.6449 17.64 39.6449H12.2625V43.6274H14.4675C15.705 43.6274 16.7175 44.6399 16.7175 45.8774C16.7175 47.1149 15.705 48.1274 14.4675 48.1274H10.0125C8.775 48.1274 7.7625 47.1149 7.7625 45.8774V37.3949ZM9.765 52.6724H29.115C30.3525 52.6724 31.365 53.6849 31.365 54.9224C31.365 56.1599 30.3525 57.1724 29.115 57.1724H9.765C8.5275 57.1724 7.515 56.1599 7.515 54.9224C7.515 53.6849 8.5275 52.6724 9.765 52.6724ZM11.025 66.0149H9.765C8.5275 66.0149 7.515 65.0024 7.515 63.7649C7.515 62.5274 8.5275 61.5149 9.765 61.5149H11.025C12.2625 61.5149 13.275 62.5274 13.275 63.7649C13.275 65.0024 12.2625 66.0149 11.025 66.0149ZM33.2775 66.0149H19.08C17.8425 66.0149 16.83 65.0024 16.83 63.7649C16.83 62.5274 17.8425 61.5149 19.08 61.5149H33.2775C34.515 61.5149 35.5275 62.5274 35.5275 63.7649C35.5275 65.0024 34.515 66.0149 33.2775 66.0149Z" fill="url(#paint3_linear_9660_3604)"/>
<defs>
<linearGradient id="paint0_linear_9660_3604" x1="16.2102" y1="10.8562" x2="26.0122" y2="-1.8286" gradientUnits="userSpaceOnUse">
<stop stop-color="#03159D"/>
<stop offset="1" stop-color="#7084FF"/>
</linearGradient>
<linearGradient id="paint1_linear_9660_3604" x1="59.4799" y1="63.0787" x2="68.4646" y2="57.4312" gradientUnits="userSpaceOnUse">
<stop stop-color="#03159D"/>
<stop offset="1" stop-color="#7084FF"/>
</linearGradient>
<linearGradient id="paint2_linear_9660_3604" x1="40.7656" y1="53.2377" x2="60.4481" y2="40.8602" gradientUnits="userSpaceOnUse">
<stop stop-color="#03159D"/>
<stop offset="1" stop-color="#7084FF"/>
</linearGradient>
<linearGradient id="paint3_linear_9660_3604" x1="6.5475" y1="54.2924" x2="49.165" y2="33.8114" gradientUnits="userSpaceOnUse">
<stop stop-color="#03159D"/>
<stop offset="1" stop-color="#7084FF"/>
</linearGradient>
</defs>
</svg>
