<svg width="64" height="64" viewBox="0 0 64 64" fill="none" xmlns="http://www.w3.org/2000/svg">
<g filter="url(#filter0_i_8951_5116)">
<rect width="64" height="64" rx="16" fill="#020E6A"/>
<rect width="64" height="64" rx="16" fill="url(#paint0_linear_8951_5116)"/>
<path d="M41.3307 44V41.3333C41.3307 39.9188 40.7688 38.5623 39.7686 37.5621C38.7684 36.5619 37.4119 36 35.9974 36H27.9974C26.5829 36 25.2264 36.5619 24.2262 37.5621C23.226 38.5623 22.6641 39.9188 22.6641 41.3333V44" stroke="white" stroke-width="2.66667" stroke-linecap="round" stroke-linejoin="round"/>
<path d="M31.9974 30.6667C34.9429 30.6667 37.3307 28.2789 37.3307 25.3333C37.3307 22.3878 34.9429 20 31.9974 20C29.0519 20 26.6641 22.3878 26.6641 25.3333C26.6641 28.2789 29.0519 30.6667 31.9974 30.6667Z" stroke="white" stroke-width="2.66667" stroke-linecap="round" stroke-linejoin="round"/>
</g>
<defs>
<filter id="filter0_i_8951_5116" x="0" y="0" width="64" height="65" filterUnits="userSpaceOnUse" color-interpolation-filters="sRGB">
<feFlood flood-opacity="0" result="BackgroundImageFix"/>
<feBlend mode="normal" in="SourceGraphic" in2="BackgroundImageFix" result="shape"/>
<feColorMatrix in="SourceAlpha" type="matrix" values="0 0 0 0 0 0 0 0 0 0 0 0 0 0 0 0 0 0 127 0" result="hardAlpha"/>
<feOffset dy="1"/>
<feGaussianBlur stdDeviation="0.5"/>
<feComposite in2="hardAlpha" operator="arithmetic" k2="-1" k3="1"/>
<feColorMatrix type="matrix" values="0 0 0 0 0.811765 0 0 0 0 0.905882 0 0 0 0 1 0 0 0 0.2 0"/>
<feBlend mode="normal" in2="shape" result="effect1_innerShadow_8951_5116"/>
</filter>
<linearGradient id="paint0_linear_8951_5116" x1="0" y1="32" x2="64" y2="32" gradientUnits="userSpaceOnUse">
<stop stop-color="#7084FF"/>
<stop offset="1" stop-color="#03159D"/>
</linearGradient>
</defs>
</svg>
