<svg width="50" height="50" viewBox="0 0 50 50" fill="none" xmlns="http://www.w3.org/2000/svg">
<path d="M29.167 4.167H12.5C11.616 4.167 10.768 4.518 10.143 5.143C9.518 5.768 9.167 6.616 9.167 7.5V42.5C9.167 43.384 9.518 44.232 10.143 44.857C10.768 45.482 11.616 45.833 12.5 45.833H37.5C38.384 45.833 39.232 45.482 39.857 44.857C40.482 44.232 40.833 43.384 40.833 42.5V15.833L29.167 4.167Z" stroke="url(#paint0_linear_company3)" stroke-width="3.5" stroke-linecap="round" stroke-linejoin="round"/>
<path d="M29.167 4.167V15.833H40.833" stroke="url(#paint1_linear_company3)" stroke-width="3.5" stroke-linecap="round" stroke-linejoin="round"/>
<path d="M16.667 27.083H20.833" stroke="url(#paint2_linear_company3)" stroke-width="3.5" stroke-linecap="round"/>
<path d="M16.667 35.417H33.333" stroke="url(#paint3_linear_company3)" stroke-width="3.5" stroke-linecap="round"/>
<path d="M16.667 43.75H33.333" stroke="url(#paint4_linear_company3)" stroke-width="3.5" stroke-linecap="round"/>
<defs>
<linearGradient id="paint0_linear_company3" x1="11" y1="41" x2="39" y2="8" gradientUnits="userSpaceOnUse">
<stop stop-color="#03159D"/>
<stop offset="1" stop-color="#7084FF"/>
</linearGradient>
<linearGradient id="paint1_linear_company3" x1="30" y1="14" x2="39" y2="6" gradientUnits="userSpaceOnUse">
<stop stop-color="#03159D"/>
<stop offset="1" stop-color="#7084FF"/>
</linearGradient>
<linearGradient id="paint2_linear_company3" x1="17" y1="27" x2="21" y2="27" gradientUnits="userSpaceOnUse">
<stop stop-color="#03159D"/>
<stop offset="1" stop-color="#7084FF"/>
</linearGradient>
<linearGradient id="paint3_linear_company3" x1="18" y1="35" x2="32" y2="35" gradientUnits="userSpaceOnUse">
<stop stop-color="#03159D"/>
<stop offset="1" stop-color="#7084FF"/>
</linearGradient>
<linearGradient id="paint4_linear_company3" x1="18" y1="44" x2="32" y2="44" gradientUnits="userSpaceOnUse">
<stop stop-color="#03159D"/>
<stop offset="1" stop-color="#7084FF"/>
</linearGradient>
</defs>
</svg>