<svg width="780" height="350" viewBox="0 0 780 350" fill="none" xmlns="http://www.w3.org/2000/svg">
<g clip-path="url(#clip0_9446_2283)">
<rect width="780" height="350" rx="40" fill="#F5F5F5"/>
<g opacity="0.5" style="mix-blend-mode:exclusion">
<path d="M2.50278 -193H-44V-146.45M2.50278 -193V-146.45M2.50278 -193H49.004M-44 -146.45H2.50278M-44 -146.45L-43.9984 -99.8991M2.50278 -146.45L2.50121 -99.8991M2.50278 -146.45H49.0024M49.004 -193L49.0024 -146.45M49.004 -193H95.5036M2.50121 -99.8991H-43.9984M2.50121 -99.8991V-53.3494M2.50121 -99.8991H49.0024M49.0024 -146.45V-99.8991M49.0024 -146.45H95.5021M-43.9984 -99.8991V-53.3494M2.50121 -53.3494H-43.9984M2.50121 -53.3494V-6.7997M2.50121 -53.3494H49.0024M49.0024 -99.8991V-53.3494M49.0024 -99.8991H95.5021M-43.9984 -53.3494V-6.7997M2.50121 -6.7997H-43.9984M2.50121 -6.7997V39.75M2.50121 -6.7997H49.0024M49.0024 -53.3494V-6.7997M49.0024 -53.3494H95.5021M-43.9984 -6.7997V39.75M2.50121 39.75H-43.9984M2.50121 39.75V86.2997M2.50121 39.75H49.0024M49.0024 -6.7997V39.75M49.0024 -6.7997H95.5021M-43.9984 39.75V86.2997M2.50121 86.2997H-43.9984M2.50121 86.2997V132.851M2.50121 86.2997H49.0024M49.0024 39.75V86.2997M49.0024 39.75H95.5021M-43.9984 86.2997V132.851M2.50121 132.851H-43.9984M2.50121 132.851V179.401M2.50121 132.851H49.0024M49.0024 86.2997V132.851M49.0024 86.2997H95.5021M-43.9984 132.851V179.401M2.50121 179.401H-43.9984M2.50121 179.401V225.95M2.50121 179.401H49.0024M49.0024 132.851V179.401M49.0024 132.851H95.5021M-43.9984 179.401V225.95M2.50121 225.95H-43.9984M2.50121 225.95V272.5M2.50121 225.95H49.0024M49.0024 179.401V225.95M49.0024 179.401H95.5021M-43.9984 225.95V272.5M2.50121 272.5H-43.9984M2.50121 272.5V319.051M2.50121 272.5H49.0024M49.0024 225.95V272.5M49.0024 225.95H95.5021M-43.9984 272.5V319.051M2.50121 319.051H-43.9984M2.50121 319.051V365.601M2.50121 319.051H49.0024M49.0024 272.5V319.051M49.0024 272.5H95.5021M-43.9984 319.051V365.601M2.50121 365.601H-43.9984M2.50121 365.601V412.151M2.50121 365.601H49.0024M49.0024 319.051V365.601M49.0024 319.051H95.5021M-43.9984 365.601V412.151M2.50121 412.151H-43.9984M2.50121 412.151V458.7M2.50121 412.151H49.0024M49.0024 365.601V412.151M49.0024 365.601H95.5021M-43.9984 412.151V458.7M2.50121 458.7H-43.9984M2.50121 458.7V505.25M2.50121 458.7H49.0024M49.0024 412.151V458.7M49.0024 412.151H95.5021M-43.9984 458.7V505.25M2.50121 505.25H-43.9984M2.50121 505.25V551.801M2.50121 505.25H49.0024M49.0024 458.7V505.25M49.0024 458.7H95.5021M-43.9984 505.25V551.801M2.50121 551.801H-43.9984M2.50121 551.801V598.351M2.50121 551.801H49.0024M49.0024 505.25V551.801M49.0024 505.25H95.5021M-43.9984 551.801V598.351M2.50121 598.351H-43.9984M2.50121 598.351V644.901M2.50121 598.351H49.0024M49.0024 551.801V598.351M49.0024 551.801H95.5021M-43.9984 598.351V644.901M2.50121 644.901H-43.9984M2.50121 644.901V691.45M2.50121 644.901H49.0024M49.0024 598.351V644.901M49.0024 598.351H95.5021M-43.9984 644.901V691.45M2.50121 691.45H-43.9984M2.50121 691.45V738M2.50121 691.45H49.0024M49.0024 644.901V691.45M49.0024 644.901H95.5021M-43.9984 691.45V738H2.50121M2.50121 738H49.004M49.0024 691.45L49.004 738M49.0024 691.45H95.5021M49.004 738H95.5021M95.5036 -193L95.5021 -146.45M95.5036 -193H142.002M95.5021 -146.45V-99.8991M95.5021 -146.45H142.002M95.5021 -99.8991V-53.3494M95.5021 -99.8991H142.002M95.5021 -53.3494V-6.7997M95.5021 -53.3494H142.002M95.5021 -6.7997V39.75M95.5021 -6.7997H142.002M95.5021 39.75V86.2997M95.5021 39.75H142.002M95.5021 86.2997V132.851M95.5021 86.2997H142.002M95.5021 132.851V179.401M95.5021 132.851H142.002M95.5021 179.401V225.95M95.5021 179.401H142.002M95.5021 225.95V272.5M95.5021 225.95H142.002M95.5021 272.5V319.051M95.5021 272.5H142.002M95.5021 319.051V365.601M95.5021 319.051H142.002M95.5021 365.601V412.151M95.5021 365.601H142.002M95.5021 412.151V458.7M95.5021 412.151H142.002M95.5021 458.7V505.25M95.5021 458.7H142.002M95.5021 505.25V551.801M95.5021 505.25H142.002M95.5021 551.801V598.351M95.5021 551.801H142.002M95.5021 598.351V644.901M95.5021 598.351H142.002M95.5021 644.901V691.45M95.5021 644.901H142.002M95.5021 691.45V738M95.5021 691.45H142.002M95.5021 738H142.002M142.002 -193V-146.45M142.002 -193H188.501M142.002 -146.45V-99.8991M142.002 -146.45H188.501M142.002 -99.8991V-53.3494M142.002 -99.8991H188.501M142.002 -53.3494V-6.7997M142.002 -53.3494H188.501M142.002 -6.7997V39.75M142.002 -6.7997H188.501M142.002 39.75V86.2997M142.002 39.75H188.501M142.002 86.2997V132.851M142.002 86.2997H188.501M142.002 132.851V179.401M142.002 132.851H188.501M142.002 179.401V225.95M142.002 179.401H188.501M142.002 225.95V272.5M142.002 225.95H188.501M142.002 272.5V319.051M142.002 272.5H188.501M142.002 319.051V365.601M142.002 319.051H188.501M142.002 365.601V412.151M142.002 365.601H188.501M142.002 412.151V458.7M142.002 412.151H188.501M142.002 458.7V505.25M142.002 458.7H188.501M142.002 505.25V551.801M142.002 505.25H188.501M142.002 551.801V598.351M142.002 551.801H188.501M142.002 598.351V644.901M142.002 598.351H188.501M142.002 644.901V691.45M142.002 644.901H188.501M142.002 691.45V738M142.002 691.45H188.501M142.002 738H188.501M188.501 -193V-146.45M188.501 -193H235.001M188.501 -146.45V-99.8991M188.501 -146.45H235.001M188.501 -99.8991V-53.3494M188.501 -99.8991H235.001M188.501 -53.3494V-6.7997M188.501 -53.3494H235.001M188.501 -6.7997V39.75M188.501 -6.7997H235.001M188.501 39.75V86.2997M188.501 39.75H235.001M188.501 86.2997V132.851M188.501 86.2997H235.001M188.501 132.851V179.401M188.501 132.851H235.001M188.501 179.401V225.95M188.501 179.401H235.001M188.501 225.95V272.5M188.501 225.95H235.001M188.501 272.5V319.051M188.501 272.5H235.001M188.501 319.051V365.601M188.501 319.051H235.001M188.501 365.601V412.151M188.501 365.601H235.001M188.501 412.151V458.7M188.501 412.151H235.001M188.501 458.7V505.25M188.501 458.7H235.001M188.501 505.25V551.801M188.501 505.25H235.001M188.501 551.801V598.351M188.501 551.801H235.001M188.501 598.351V644.901M188.501 598.351H235.001M188.501 644.901V691.45M188.501 644.901H235.001M188.501 691.45V738M188.501 691.45H235.001M188.501 738H235.001M235.001 -193V-146.45M235.001 -193H281.502M235.001 -146.45V-99.8991M235.001 -146.45H281.502M235.001 -99.8991V-53.3494M235.001 -99.8991H281.502M235.001 -53.3494V-6.7997M235.001 -53.3494H281.502M235.001 -6.7997V39.75M235.001 -6.7997H281.502M235.001 39.75V86.2997M235.001 39.75H281.502M235.001 86.2997V132.851M235.001 86.2997H281.502M235.001 132.851V179.401M235.001 132.851H281.502M235.001 179.401V225.95M235.001 179.401H281.502M235.001 225.95V272.5M235.001 225.95H281.502M235.001 272.5V319.051M235.001 272.5H281.502M235.001 319.051V365.601M235.001 319.051H281.502M235.001 365.601V412.151M235.001 365.601H281.502M235.001 412.151V458.7M235.001 412.151H281.502M235.001 458.7V505.25M235.001 458.7H281.502M235.001 505.25V551.801M235.001 505.25H281.502M235.001 551.801V598.351M235.001 551.801H281.502M235.001 598.351V644.901M235.001 598.351H281.502M235.001 644.901V691.45M235.001 644.901H281.502M235.001 691.45V738M235.001 691.45H281.502M235.001 738H281.502M281.502 -193V-146.45M281.502 -193H328.002M281.502 -146.45V-99.8991M281.502 -146.45H328.002M281.502 -99.8991V-53.3494M281.502 -99.8991H328.002M281.502 -53.3494V-6.7997M281.502 -53.3494H328.002M281.502 -6.7997V39.75M281.502 -6.7997H328.002M281.502 39.75V86.2997M281.502 39.75H328.002M281.502 86.2997V132.851M281.502 86.2997H328.002M281.502 132.851V179.401M281.502 132.851H328.002M281.502 179.401V225.95M281.502 179.401H328.002M281.502 225.95V272.5M281.502 225.95H328.002M281.502 272.5V319.051M281.502 272.5H328.002M281.502 319.051V365.601M281.502 319.051H328.002M281.502 365.601V412.151M281.502 365.601H328.002M281.502 412.151V458.7M281.502 412.151H328.002M281.502 458.7V505.25M281.502 458.7H328.002M281.502 505.25V551.801M281.502 505.25H328.002M281.502 551.801V598.351M281.502 551.801H328.002M281.502 598.351V644.901M281.502 598.351H328.002M281.502 644.901V691.45M281.502 644.901H328.002M281.502 691.45V738M281.502 691.45H328.002M281.502 738H328.002M328.002 -193V-146.45M328.002 -193H374.501M328.002 -146.45V-99.8991M328.002 -146.45H374.501M328.002 -99.8991V-53.3494M328.002 -99.8991H374.501M328.002 -53.3494V-6.7997M328.002 -53.3494H374.501M328.002 -6.7997V39.75M328.002 -6.7997H374.501M328.002 39.75V86.2997M328.002 39.75H374.501M328.002 86.2997V132.851M328.002 86.2997H374.501M328.002 132.851V179.401M328.002 132.851H374.501M328.002 179.401V225.95M328.002 179.401H374.501M328.002 225.95V272.5M328.002 225.95H374.501M328.002 272.5V319.051M328.002 272.5H374.501M328.002 319.051V365.601M328.002 319.051H374.501M328.002 365.601V412.151M328.002 365.601H374.501M328.002 412.151V458.7M328.002 412.151H374.501M328.002 458.7V505.25M328.002 458.7H374.501M328.002 505.25V551.801M328.002 505.25H374.501M328.002 551.801V598.351M328.002 551.801H374.501M328.002 598.351V644.901M328.002 598.351H374.501M328.002 644.901V691.45M328.002 644.901H374.501M328.002 691.45V738M328.002 691.45H374.501M328.002 738H374.501M374.501 -193V-146.45M374.501 -193H421.001M374.501 -146.45V-99.8991M374.501 -146.45H421.001M374.501 -99.8991V-53.3494M374.501 -99.8991H421.001M374.501 -53.3494V-6.7997M374.501 -53.3494H421.001M374.501 -6.7997V39.75M374.501 -6.7997H421.001M374.501 39.75V86.2997M374.501 39.75H421.001M374.501 86.2997V132.851M374.501 86.2997H421.001M374.501 132.851V179.401M374.501 132.851H421.001M374.501 179.401V225.95M374.501 179.401H421.001M374.501 225.95V272.5M374.501 225.95H421.001M374.501 272.5V319.051M374.501 272.5H421.001M374.501 319.051V365.601M374.501 319.051H421.001M374.501 365.601V412.151M374.501 365.601H421.001M374.501 412.151V458.7M374.501 412.151H421.001M374.501 458.7V505.25M374.501 458.7H421.001M374.501 505.25V551.801M374.501 505.25H421.001M374.501 551.801V598.351M374.501 551.801H421.001M374.501 598.351V644.901M374.501 598.351H421.001M374.501 644.901V691.45M374.501 644.901H421.001M374.501 691.45V738M374.501 691.45H421.001M374.501 738H421.001M421.001 -193V-146.45M421.001 -193H467.501M421.001 -146.45V-99.8991M421.001 -146.45H467.501M421.001 -99.8991V-53.3494M421.001 -99.8991H467.501M421.001 -53.3494V-6.7997M421.001 -53.3494H467.501M421.001 -6.7997V39.75M421.001 -6.7997H467.501M421.001 39.75V86.2997M421.001 39.75H467.501M421.001 86.2997V132.851M421.001 86.2997H467.501M421.001 132.851V179.401M421.001 132.851H467.501M421.001 179.401V225.95M421.001 179.401H467.501M421.001 225.95V272.5M421.001 225.95H467.501M421.001 272.5V319.051M421.001 272.5H467.501M421.001 319.051V365.601M421.001 319.051H467.501M421.001 365.601V412.151M421.001 365.601H467.501M421.001 412.151V458.7M421.001 412.151H467.501M421.001 458.7V505.25M421.001 458.7H467.501M421.001 505.25V551.801M421.001 505.25H467.501M421.001 551.801V598.351M421.001 551.801H467.501M421.001 598.351V644.901M421.001 598.351H467.501M421.001 644.901V691.45M421.001 644.901H467.501M421.001 691.45V738M421.001 691.45H467.501M421.001 738H467.501M467.501 -193V-146.45M467.501 -193H514.002M467.501 -146.45V-99.8991M467.501 -146.45H514.002M467.501 -99.8991V-53.3494M467.501 -99.8991H514.002M467.501 -53.3494V-6.7997M467.501 -53.3494H514.002M467.501 -6.7997V39.75M467.501 -6.7997H514.002M467.501 39.75V86.2997M467.501 39.75H514.002M467.501 86.2997V132.851M467.501 86.2997H514.002M467.501 132.851V179.401M467.501 132.851H514.002M467.501 179.401V225.95M467.501 179.401H514.002M467.501 225.95V272.5M467.501 225.95H514.002M467.501 272.5V319.051M467.501 272.5H514.002M467.501 319.051V365.601M467.501 319.051H514.002M467.501 365.601V412.151M467.501 365.601H514.002M467.501 412.151V458.7M467.501 412.151H514.002M467.501 458.7V505.25M467.501 458.7H514.002M467.501 505.25V551.801M467.501 505.25H514.002M467.501 551.801V598.351M467.501 551.801H514.002M467.501 598.351V644.901M467.501 598.351H514.002M467.501 644.901V691.45M467.501 644.901H514.002M467.501 691.45V738M467.501 691.45H514.002M467.501 738H514.002M514.002 -193V-146.45M514.002 -193H560.502M514.002 -146.45V-99.8991M514.002 -146.45H560.502M514.002 -99.8991V-53.3494M514.002 -99.8991H560.502M514.002 -53.3494V-6.7997M514.002 -53.3494H560.502M514.002 -6.7997V39.75M514.002 -6.7997H560.502M514.002 39.75V86.2997M514.002 39.75H560.502M514.002 86.2997V132.851M514.002 86.2997H560.502M514.002 132.851V179.401M514.002 132.851H560.502M514.002 179.401V225.95M514.002 179.401H560.502M514.002 225.95V272.5M514.002 225.95H560.502M514.002 272.5V319.051M514.002 272.5H560.502M514.002 319.051V365.601M514.002 319.051H560.502M514.002 365.601V412.151M514.002 365.601H560.502M514.002 412.151V458.7M514.002 412.151H560.502M514.002 458.7V505.25M514.002 458.7H560.502M514.002 505.25V551.801M514.002 505.25H560.502M514.002 551.801V598.351M514.002 551.801H560.502M514.002 598.351V644.901M514.002 598.351H560.502M514.002 644.901V691.45M514.002 644.901H560.502M514.002 691.45V738M514.002 691.45H560.502M514.002 738H560.502M560.502 -193V-146.45M560.502 -193H607.001M560.502 -146.45V-99.8991M560.502 -146.45H607.001M560.502 -99.8991V-53.3494M560.502 -99.8991H607.001M560.502 -53.3494V-6.7997M560.502 -53.3494H607.001M560.502 -6.7997V39.75M560.502 -6.7997H607.001M560.502 39.75V86.2997M560.502 39.75H607.001M560.502 86.2997V132.851M560.502 86.2997H607.001M560.502 132.851V179.401M560.502 132.851H607.001M560.502 179.401V225.95M560.502 179.401H607.001M560.502 225.95V272.5M560.502 225.95H607.001M560.502 272.5V319.051M560.502 272.5H607.001M560.502 319.051V365.601M560.502 319.051H607.001M560.502 365.601V412.151M560.502 365.601H607.001M560.502 412.151V458.7M560.502 412.151H607.001M560.502 458.7V505.25M560.502 458.7H607.001M560.502 505.25V551.801M560.502 505.25H607.001M560.502 551.801V598.351M560.502 551.801H607.001M560.502 598.351V644.901M560.502 598.351H607.001M560.502 644.901V691.45M560.502 644.901H607.001M560.502 691.45V738M560.502 691.45H607.001M560.502 738H607.001M607.001 -193V-146.45M607.001 -193H653.501M607.001 -146.45V-99.8991M607.001 -146.45H653.501M607.001 -99.8991V-53.3494M607.001 -99.8991H653.501M607.001 -53.3494V-6.7997M607.001 -53.3494H653.501M607.001 -6.7997V39.75M607.001 -6.7997H653.501M607.001 39.75V86.2997M607.001 39.75H653.501M607.001 86.2997V132.851M607.001 86.2997H653.501M607.001 132.851V179.401M607.001 132.851H653.501M607.001 179.401V225.95M607.001 179.401H653.501M607.001 225.95V272.5M607.001 225.95H653.501M607.001 272.5V319.051M607.001 272.5H653.501M607.001 319.051V365.601M607.001 319.051H653.501M607.001 365.601V412.151M607.001 365.601H653.501M607.001 412.151V458.7M607.001 412.151H653.501M607.001 458.7V505.25M607.001 458.7H653.501M607.001 505.25V551.801M607.001 505.25H653.501M607.001 551.801V598.351M607.001 551.801H653.501M607.001 598.351V644.901M607.001 598.351H653.501M607.001 644.901V691.45M607.001 644.901H653.501M607.001 691.45V738M607.001 691.45H653.501M607.001 738H653.501M653.501 -193V-146.45M653.501 -193H700.002M653.501 -146.45V-99.8991M653.501 -146.45H700.002M653.501 -99.8991V-53.3494M653.501 -99.8991H700.002M653.501 -53.3494V-6.7997M653.501 -53.3494H700.002M653.501 -6.7997V39.75M653.501 -6.7997H700.002M653.501 39.75V86.2997M653.501 39.75H700.002M653.501 86.2997V132.851M653.501 86.2997H700.002M653.501 132.851V179.401M653.501 132.851H700.002M653.501 179.401V225.95M653.501 179.401H700.002M653.501 225.95V272.5M653.501 225.95H700.002M653.501 272.5V319.051M653.501 272.5H700.002M653.501 319.051V365.601M653.501 319.051H700.002M653.501 365.601V412.151M653.501 365.601H700.002M653.501 412.151V458.7M653.501 412.151H700.002M653.501 458.7V505.25M653.501 458.7H700.002M653.501 505.25V551.801M653.501 505.25H700.002M653.501 551.801V598.351M653.501 551.801H700.002M653.501 598.351V644.901M653.501 598.351H700.002M653.501 644.901V691.45M653.501 644.901H700.002M653.501 691.45V738M653.501 691.45H700.002M653.501 738H700.002M700.002 -193V-146.45M700.002 -193H746.502M700.002 -146.45V-99.8991M700.002 -146.45H746.502M700.002 -99.8991V-53.3494M700.002 -99.8991H746.502M700.002 -53.3494V-6.7997M700.002 -53.3494H746.502M700.002 -6.7997V39.75M700.002 -6.7997H746.502M700.002 39.75V86.2997M700.002 39.75H746.502M700.002 86.2997V132.851M700.002 86.2997H746.502M700.002 132.851V179.401M700.002 132.851H746.502M700.002 179.401V225.95M700.002 179.401H746.502M700.002 225.95V272.5M700.002 225.95H746.502M700.002 272.5V319.051M700.002 272.5H746.502M700.002 319.051V365.601M700.002 319.051H746.502M700.002 365.601V412.151M700.002 365.601H746.502M700.002 412.151V458.7M700.002 412.151H746.502M700.002 458.7V505.25M700.002 458.7H746.502M700.002 505.25V551.801M700.002 505.25H746.502M700.002 551.801V598.351M700.002 551.801H746.502M700.002 598.351V644.901M700.002 598.351H746.502M700.002 644.901V691.45M700.002 644.901H746.502M700.002 691.45V738M700.002 691.45H746.502M700.002 738H746.502M746.502 -193V-146.45M746.502 -193H793.001M746.502 -146.45V-99.8991M746.502 -146.45H793.001M746.502 -99.8991V-53.3494M746.502 -99.8991H793.001M746.502 -53.3494V-6.7997M746.502 -53.3494H793.001M746.502 -6.7997V39.75M746.502 -6.7997H793.001M746.502 39.75V86.2997M746.502 39.75H793.001M746.502 86.2997V132.851M746.502 86.2997H793.001M746.502 132.851V179.401M746.502 132.851H793.001M746.502 179.401V225.95M746.502 179.401H793.001M746.502 225.95V272.5M746.502 225.95H793.001M746.502 272.5V319.051M746.502 272.5H793.001M746.502 319.051V365.601M746.502 319.051H793.001M746.502 365.601V412.151M746.502 365.601H793.001M746.502 412.151V458.7M746.502 412.151H793.001M746.502 458.7V505.25M746.502 458.7H793.001M746.502 505.25V551.801M746.502 505.25H793.001M746.502 551.801V598.351M746.502 551.801H793.001M746.502 598.351V644.901M746.502 598.351H793.001M746.502 644.901V691.45M746.502 644.901H793.001M746.502 691.45V738M746.502 691.45H793.001M746.502 738H793.001M793.001 -193V-146.45M793.001 -193H839.501M793.001 -146.45V-99.8991M793.001 -146.45H839.501M793.001 -99.8991V-53.3494M793.001 -99.8991H839.501M793.001 -53.3494V-6.7997M793.001 -53.3494H839.501M793.001 -6.7997V39.75M793.001 -6.7997H839.501M793.001 39.75V86.2997M793.001 39.75H839.501M793.001 86.2997V132.851M793.001 86.2997H839.501M793.001 132.851V179.401M793.001 132.851H839.501M793.001 179.401V225.95M793.001 179.401H839.501M793.001 225.95V272.5M793.001 225.95H839.501M793.001 272.5V319.051M793.001 272.5H839.501M793.001 319.051V365.601M793.001 319.051H839.501M793.001 365.601V412.151M793.001 365.601H839.501M793.001 412.151V458.7M793.001 412.151H839.501M793.001 458.7V505.25M793.001 458.7H839.501M793.001 505.25V551.801M793.001 505.25H839.501M793.001 551.801V598.351M793.001 551.801H839.501M793.001 598.351V644.901M793.001 598.351H839.501M793.001 644.901V691.45M793.001 644.901H839.501M793.001 691.45V738M793.001 691.45H839.501M793.001 738H839.501M839.501 -193V-146.45M839.501 -193H886.001M839.501 -146.45V-99.8991M839.501 -146.45H886.001M839.501 -99.8991V-53.3494M839.501 -99.8991H886.001M839.501 -53.3494V-6.7997M839.501 -53.3494H886.001M839.501 -6.7997V39.75M839.501 -6.7997H886.001M839.501 39.75V86.2997M839.501 39.75H886.001M839.501 86.2997V132.851M839.501 86.2997H886.001M839.501 132.851V179.401M839.501 132.851H886.001M839.501 179.401V225.95M839.501 179.401H886.001M839.501 225.95V272.5M839.501 225.95H886.001M839.501 272.5V319.051M839.501 272.5H886.001M839.501 319.051V365.601M839.501 319.051H886.001M839.501 365.601V412.151M839.501 365.601H886.001M839.501 412.151V458.7M839.501 412.151H886.001M839.501 458.7V505.25M839.501 458.7H886.001M839.501 505.25V551.801M839.501 505.25H886.001M839.501 551.801V598.351M839.501 551.801H886.001M839.501 598.351V644.901M839.501 598.351H886.001M839.501 644.901V691.45M839.501 644.901H886.001M839.501 691.45V738M839.501 691.45H886.001M839.501 738H886.001M886.001 -193V-146.45M886.001 -193H932.502M886.001 -146.45V-99.8991M886.001 -146.45H932.502M886.001 -99.8991V-53.3494M886.001 -99.8991H932.502M886.001 -53.3494V-6.7997M886.001 -53.3494H932.502M886.001 -6.7997V39.75M886.001 -6.7997H932.502M886.001 39.75V86.2997M886.001 39.75H932.502M886.001 86.2997V132.851M886.001 86.2997H932.502M886.001 132.851V179.401M886.001 132.851H932.502M886.001 179.401V225.95M886.001 179.401H932.502M886.001 225.95V272.5M886.001 225.95H932.502M886.001 272.5V319.051M886.001 272.5H932.502M886.001 319.051V365.601M886.001 319.051H932.502M886.001 365.601V412.151M886.001 365.601H932.502M886.001 412.151V458.7M886.001 412.151H932.502M886.001 458.7V505.25M886.001 458.7H932.502M886.001 505.25V551.801M886.001 505.25H932.502M886.001 551.801V598.351M886.001 551.801H932.502M886.001 598.351V644.901M886.001 598.351H932.502M886.001 644.901V691.45M886.001 644.901H932.502M886.001 691.45V738M886.001 691.45H932.502M886.001 738H932.502M932.502 -193V-146.45M932.502 -193H979.002M932.502 -146.45V-99.8991M932.502 -146.45H979.002M932.502 -99.8991V-53.3494M932.502 -99.8991H979.002M932.502 -53.3494V-6.7997M932.502 -53.3494H979.002M932.502 -6.7997V39.75M932.502 -6.7997H979.002M932.502 39.75V86.2997M932.502 39.75H979.002M932.502 86.2997V132.851M932.502 86.2997H979.002M932.502 132.851V179.401M932.502 132.851H979.002M932.502 179.401V225.95M932.502 179.401H979.002M932.502 225.95V272.5M932.502 225.95H979.002M932.502 272.5V319.051M932.502 272.5H979.002M932.502 319.051V365.601M932.502 319.051H979.002M932.502 365.601V412.151M932.502 365.601H979.002M932.502 412.151V458.7M932.502 412.151H979.002M932.502 458.7V505.25M932.502 458.7H979.002M932.502 505.25V551.801M932.502 505.25H979.002M932.502 551.801V598.351M932.502 551.801H979.002M932.502 598.351V644.901M932.502 598.351H979.002M932.502 644.901V691.45M932.502 644.901H979.002M932.502 691.45V738M932.502 691.45H979.002M932.502 738H979.002M979.002 -193V-146.45M979.002 -193H1025.5M979.002 -146.45V-99.8991M979.002 -146.45H1025.5M979.002 -99.8991V-53.3494M979.002 -99.8991H1025.5M979.002 -53.3494V-6.7997M979.002 -53.3494H1025.5M979.002 -6.7997V39.75M979.002 -6.7997H1025.5M979.002 39.75V86.2997M979.002 39.75H1025.5M979.002 86.2997V132.851M979.002 86.2997H1025.5M979.002 132.851V179.401M979.002 132.851H1025.5M979.002 179.401V225.95M979.002 179.401H1025.5M979.002 225.95V272.5M979.002 225.95H1025.5M979.002 272.5V319.051M979.002 272.5H1025.5M979.002 319.051V365.601M979.002 319.051H1025.5M979.002 365.601V412.151M979.002 365.601H1025.5M979.002 412.151V458.7M979.002 412.151H1025.5M979.002 458.7V505.25M979.002 458.7H1025.5M979.002 505.25V551.801M979.002 505.25H1025.5M979.002 551.801V598.351M979.002 551.801H1025.5M979.002 598.351V644.901M979.002 598.351H1025.5M979.002 644.901V691.45M979.002 644.901H1025.5M979.002 691.45V738M979.002 691.45H1025.5M979.002 738H1025.5M1025.5 -193V-146.45M1025.5 -193H1072M1025.5 -146.45V-99.8991M1025.5 -146.45H1072M1025.5 -99.8991V-53.3494M1025.5 -99.8991H1072M1025.5 -53.3494V-6.7997M1025.5 -53.3494H1072M1025.5 -6.7997V39.75M1025.5 -6.7997H1072M1025.5 39.75V86.2997M1025.5 39.75H1072M1025.5 86.2997V132.851M1025.5 86.2997H1072M1025.5 132.851V179.401M1025.5 132.851H1072M1025.5 179.401V225.95M1025.5 179.401H1072M1025.5 225.95V272.5M1025.5 225.95H1072M1025.5 272.5V319.051M1025.5 272.5H1072M1025.5 319.051V365.601M1025.5 319.051H1072M1025.5 365.601V412.151M1025.5 365.601H1072M1025.5 412.151V458.7M1025.5 412.151H1072M1025.5 458.7V505.25M1025.5 458.7H1072M1025.5 505.25V551.801M1025.5 505.25H1072M1025.5 551.801V598.351M1025.5 551.801H1072M1025.5 598.351V644.901M1025.5 598.351H1072M1025.5 644.901V691.45M1025.5 644.901H1072M1025.5 691.45V738M1025.5 691.45H1072M1025.5 738H1072M1072 -193V-146.45M1072 -193H1118.5M1072 -146.45V-99.8991M1072 -146.45H1118.5M1072 -99.8991V-53.3494M1072 -99.8991H1118.5M1072 -53.3494V-6.7997M1072 -53.3494H1118.5M1072 -6.7997V39.75M1072 -6.7997H1118.5M1072 39.75V86.2997M1072 39.75H1118.5M1072 86.2997V132.851M1072 86.2997H1118.5M1072 132.851V179.401M1072 132.851H1118.5M1072 179.401V225.95M1072 179.401H1118.5M1072 225.95V272.5M1072 225.95H1118.5M1072 272.5V319.051M1072 272.5H1118.5M1072 319.051V365.601M1072 319.051H1118.5M1072 365.601V412.151M1072 365.601H1118.5M1072 412.151V458.7M1072 412.151H1118.5M1072 458.7V505.25M1072 458.7H1118.5M1072 505.25V551.801M1072 505.25H1118.5M1072 551.801V598.351M1072 551.801H1118.5M1072 598.351V644.901M1072 598.351H1118.5M1072 644.901V691.45M1072 644.901H1118.5M1072 691.45V738M1072 691.45H1118.5M1072 738H1118.5M1118.5 -193V-146.45M1118.5 -193H1165M1118.5 -146.45V-99.8991M1118.5 -146.45H1165M1118.5 -99.8991V-53.3494M1118.5 -99.8991H1165M1118.5 -53.3494V-6.7997M1118.5 -53.3494H1165M1118.5 -6.7997V39.75M1118.5 -6.7997H1165M1118.5 39.75V86.2997M1118.5 39.75H1165M1118.5 86.2997V132.851M1118.5 86.2997H1165M1118.5 132.851V179.401M1118.5 132.851H1165M1118.5 179.401V225.95M1118.5 179.401H1165M1118.5 225.95V272.5M1118.5 225.95H1165M1118.5 272.5V319.051M1118.5 272.5H1165M1118.5 319.051V365.601M1118.5 319.051H1165M1118.5 365.601V412.151M1118.5 365.601H1165M1118.5 412.151V458.7M1118.5 412.151H1165M1118.5 458.7V505.25M1118.5 458.7H1165M1118.5 505.25V551.801M1118.5 505.25H1165M1118.5 551.801V598.351M1118.5 551.801H1165M1118.5 598.351V644.901M1118.5 598.351H1165M1118.5 644.901V691.45M1118.5 644.901H1165M1118.5 691.45V738M1118.5 691.45H1165M1118.5 738H1165M1165 -193V-146.45M1165 -193H1211.5M1165 -146.45V-99.8991M1165 -146.45H1211.5M1165 -99.8991V-53.3494M1165 -99.8991H1211.5M1165 -53.3494V-6.7997M1165 -53.3494H1211.5M1165 -6.7997V39.75M1165 -6.7997H1211.5M1165 39.75V86.2997M1165 39.75H1211.5M1165 86.2997V132.851M1165 86.2997H1211.5M1165 132.851V179.401M1165 132.851H1211.5M1165 179.401V225.95M1165 179.401H1211.5M1165 225.95V272.5M1165 225.95H1211.5M1165 272.5V319.051M1165 272.5H1211.5M1165 319.051V365.601M1165 319.051H1211.5M1165 365.601V412.151M1165 365.601H1211.5M1165 412.151V458.7M1165 412.151H1211.5M1165 458.7V505.25M1165 458.7H1211.5M1165 505.25V551.801M1165 505.25H1211.5M1165 551.801V598.351M1165 551.801H1211.5M1165 598.351V644.901M1165 598.351H1211.5M1165 644.901V691.45M1165 644.901H1211.5M1165 691.45V738M1165 691.45H1211.5M1165 738H1211.5M1211.5 -193V-146.45M1211.5 -193H1258M1211.5 -146.45V-99.8991M1211.5 -146.45H1258M1211.5 -99.8991V-53.3494M1211.5 -99.8991H1258M1211.5 -53.3494V-6.7997M1211.5 -53.3494H1258M1211.5 -6.7997V39.75M1211.5 -6.7997H1258M1211.5 39.75V86.2997M1211.5 39.75H1258M1211.5 86.2997V132.851M1211.5 86.2997H1258M1211.5 132.851V179.401M1211.5 132.851H1258M1211.5 179.401V225.95M1211.5 179.401H1258M1211.5 225.95V272.5M1211.5 225.95H1258M1211.5 272.5V319.051M1211.5 272.5H1258M1211.5 319.051V365.601M1211.5 319.051H1258M1211.5 365.601V412.151M1211.5 365.601H1258M1211.5 412.151V458.7M1211.5 412.151H1258M1211.5 458.7V505.25M1211.5 458.7H1258M1211.5 505.25V551.801M1211.5 505.25H1258M1211.5 551.801V598.351M1211.5 551.801H1258M1211.5 598.351V644.901M1211.5 598.351H1258M1211.5 644.901V691.45M1211.5 644.901H1258M1211.5 691.45V738M1211.5 691.45H1258M1211.5 738H1258M1258 -193V-146.45M1258 -193H1304.5M1258 -146.45V-99.8991M1258 -146.45H1304.5M1258 -99.8991V-53.3494M1258 -99.8991H1304.5M1258 -53.3494V-6.7997M1258 -53.3494H1304.5M1258 -6.7997V39.75M1258 -6.7997H1304.5M1258 39.75V86.2997M1258 39.75H1304.5M1258 86.2997V132.851M1258 86.2997H1304.5M1258 132.851V179.401M1258 132.851H1304.5M1258 179.401V225.95M1258 179.401H1304.5M1258 225.95V272.5M1258 225.95H1304.5M1258 272.5V319.051M1258 272.5H1304.5M1258 319.051V365.601M1258 319.051H1304.5M1258 365.601V412.151M1258 365.601H1304.5M1258 412.151V458.7M1258 412.151H1304.5M1258 458.7V505.25M1258 458.7H1304.5M1258 505.25V551.801M1258 505.25H1304.5M1258 551.801V598.351M1258 551.801H1304.5M1258 598.351V644.901M1258 598.351H1304.5M1258 644.901V691.45M1258 644.901H1304.5M1258 691.45V738M1258 691.45H1304.5M1258 738H1304.5M1304.5 -193V-146.45M1304.5 -193H1351M1304.5 -146.45V-99.8991M1304.5 -146.45H1351M1304.5 -99.8991V-53.3494M1304.5 -99.8991H1351M1304.5 -53.3494V-6.7997M1304.5 -53.3494H1351M1304.5 -6.7997V39.75M1304.5 -6.7997H1351M1304.5 39.75V86.2997M1304.5 39.75H1351M1304.5 86.2997V132.851M1304.5 86.2997H1351M1304.5 132.851V179.401M1304.5 132.851H1351M1304.5 179.401V225.95M1304.5 179.401H1351M1304.5 225.95V272.5M1304.5 225.95H1351M1304.5 272.5V319.051M1304.5 272.5H1351M1304.5 319.051V365.601M1304.5 319.051H1351M1304.5 365.601V412.151M1304.5 365.601H1351M1304.5 412.151V458.7M1304.5 412.151H1351M1304.5 458.7V505.25M1304.5 458.7H1351M1304.5 505.25V551.801M1304.5 505.25H1351M1304.5 551.801V598.351M1304.5 551.801H1351M1304.5 598.351V644.901M1304.5 598.351H1351M1304.5 644.901V691.45M1304.5 644.901H1351M1304.5 691.45V738M1304.5 691.45H1351M1304.5 738H1351M1351 -193V-146.45M1351 -193H1397.5M1351 -146.45V-99.8991M1351 -146.45H1397.5M1351 -99.8991V-53.3494M1351 -99.8991H1397.5M1351 -53.3494V-6.7997M1351 -53.3494H1397.5M1351 -6.7997V39.75M1351 -6.7997H1397.5M1351 39.75V86.2997M1351 39.75H1397.5M1351 86.2997V132.851M1351 86.2997H1397.5M1351 132.851V179.401M1351 132.851H1397.5M1351 179.401V225.95M1351 179.401H1397.5M1351 225.95V272.5M1351 225.95H1397.5M1351 272.5V319.051M1351 272.5H1397.5M1351 319.051V365.601M1351 319.051H1397.5M1351 365.601V412.151M1351 365.601H1397.5M1351 412.151V458.7M1351 412.151H1397.5M1351 458.7V505.25M1351 458.7H1397.5M1351 505.25V551.801M1351 505.25H1397.5M1351 551.801V598.351M1351 551.801H1397.5M1351 598.351V644.901M1351 598.351H1397.5M1351 644.901V691.45M1351 644.901H1397.5M1351 691.45V738M1351 691.45H1397.5M1351 738H1397.5M1397.5 -193V-146.45M1397.5 -193H1444M1397.5 -146.45V-99.8991M1397.5 -146.45H1444M1397.5 -99.8991V-53.3494M1397.5 -99.8991H1444M1397.5 -53.3494V-6.7997M1397.5 -53.3494H1444M1397.5 -6.7997V39.75M1397.5 -6.7997H1444M1397.5 39.75V86.2997M1397.5 39.75H1444M1397.5 86.2997V132.851M1397.5 86.2997H1444M1397.5 132.851V179.401M1397.5 132.851H1444M1397.5 179.401V225.95M1397.5 179.401H1444M1397.5 225.95V272.5M1397.5 225.95H1444M1397.5 272.5V319.051M1397.5 272.5H1444M1397.5 319.051V365.601M1397.5 319.051H1444M1397.5 365.601V412.151M1397.5 365.601H1444M1397.5 412.151V458.7M1397.5 412.151H1444M1397.5 458.7V505.25M1397.5 458.7H1444M1397.5 505.25V551.801M1397.5 505.25H1444M1397.5 551.801V598.351M1397.5 551.801H1444M1397.5 598.351V644.901M1397.5 598.351H1444M1397.5 644.901V691.45M1397.5 644.901H1444M1397.5 691.45V738M1397.5 691.45H1444M1397.5 738H1444M1444 -193V-146.45M1444 -193H1490.5M1444 -146.45V-99.8991M1444 -146.45H1490.5M1444 -99.8991V-53.3494M1444 -99.8991H1490.5M1444 -53.3494V-6.7997M1444 -53.3494H1490.5M1444 -6.7997V39.75M1444 -6.7997H1490.5M1444 39.75V86.2997M1444 39.75H1490.5M1444 86.2997V132.851M1444 86.2997H1490.5M1444 132.851V179.401M1444 132.851H1490.5M1444 179.401V225.95M1444 179.401H1490.5M1444 225.95V272.5M1444 225.95H1490.5M1444 272.5V319.051M1444 272.5H1490.5M1444 319.051V365.601M1444 319.051H1490.5M1444 365.601V412.151M1444 365.601H1490.5M1444 412.151V458.7M1444 412.151H1490.5M1444 458.7V505.25M1444 458.7H1490.5M1444 505.25V551.801M1444 505.25H1490.5M1444 551.801V598.351M1444 551.801H1490.5M1444 598.351V644.901M1444 598.351H1490.5M1444 644.901V691.45M1444 644.901H1490.5M1444 691.45V738M1444 691.45H1490.5M1444 738H1490.5M1490.5 -193V-146.45M1490.5 -193H1537M1490.5 -146.45V-99.8991M1490.5 -146.45H1537M1490.5 -99.8991V-53.3494M1490.5 -99.8991H1537M1490.5 -53.3494V-6.7997M1490.5 -53.3494H1537M1490.5 -6.7997V39.75M1490.5 -6.7997H1537M1490.5 39.75V86.2997M1490.5 39.75H1537M1490.5 86.2997V132.851M1490.5 86.2997H1537M1490.5 132.851V179.401M1490.5 132.851H1537M1490.5 179.401V225.95M1490.5 179.401H1537M1490.5 225.95V272.5M1490.5 225.95H1537M1490.5 272.5V319.051M1490.5 272.5H1537M1490.5 319.051V365.601M1490.5 319.051H1537M1490.5 365.601V412.151M1490.5 365.601H1537M1490.5 412.151V458.7M1490.5 412.151H1537M1490.5 458.7V505.25M1490.5 458.7H1537M1490.5 505.25V551.801M1490.5 505.25H1537M1490.5 551.801V598.351M1490.5 551.801H1537M1490.5 598.351V644.901M1490.5 598.351H1537M1490.5 644.901V691.45M1490.5 644.901H1537M1490.5 691.45V738M1490.5 691.45H1537M1490.5 738H1537M1537 -193V-146.45M1537 -193H1583.5M1537 -146.45V-99.8991M1537 -146.45H1583.5M1537 -99.8991V-53.3494M1537 -99.8991H1583.5M1537 -53.3494V-6.7997M1537 -53.3494H1583.5M1537 -6.7997V39.75M1537 -6.7997H1583.5M1537 39.75V86.2997M1537 39.75H1583.5M1537 86.2997V132.851M1537 86.2997H1583.5M1537 132.851V179.401M1537 132.851H1583.5M1537 179.401V225.95M1537 179.401H1583.5M1537 225.95V272.5M1537 225.95H1583.5M1537 272.5V319.051M1537 272.5H1583.5M1537 319.051V365.601M1537 319.051H1583.5M1537 365.601V412.151M1537 365.601H1583.5M1537 412.151V458.7M1537 412.151H1583.5M1537 458.7V505.25M1537 458.7H1583.5M1537 505.25V551.801M1537 505.25H1583.5M1537 551.801V598.351M1537 551.801H1583.5M1537 598.351V644.901M1537 598.351H1583.5M1537 644.901V691.45M1537 644.901H1583.5M1537 691.45V738M1537 691.45H1583.5M1537 738H1583.5M1583.5 -193V-146.45M1583.5 -193H1630.01M1583.5 -146.45V-99.8991M1583.5 -146.45H1630.01M1583.5 -99.8991V-53.3494M1583.5 -99.8991H1630.01M1583.5 -53.3494V-6.7997M1583.5 -53.3494H1630.01M1583.5 -6.7997V39.75M1583.5 -6.7997H1630.01M1583.5 39.75V86.2997M1583.5 39.75H1630.01M1583.5 86.2997V132.851M1583.5 86.2997H1630.01M1583.5 132.851V179.401M1583.5 132.851H1630.01M1583.5 179.401V225.95M1583.5 179.401H1630.01M1583.5 225.95V272.5M1583.5 225.95H1630.01M1583.5 272.5V319.051M1583.5 272.5H1630.01M1583.5 319.051V365.601M1583.5 319.051H1630.01M1583.5 365.601V412.151M1583.5 365.601H1630.01M1583.5 412.151V458.7M1583.5 412.151H1630.01M1583.5 458.7V505.25M1583.5 458.7H1630.01M1583.5 505.25V551.801M1583.5 505.25H1630.01M1583.5 551.801V598.351M1583.5 551.801H1630.01M1583.5 598.351V644.901M1583.5 598.351H1630.01M1583.5 644.901V691.45M1583.5 644.901H1630.01M1583.5 691.45V738M1583.5 691.45H1630.01M1583.5 738H1630.01M1630.01 -193V-146.45M1630.01 -193H1676.5M1630.01 -146.45V-99.8991M1630.01 -146.45H1676.5M1630.01 -99.8991V-53.3494M1630.01 -99.8991H1676.5M1630.01 -53.3494V-6.7997M1630.01 -53.3494H1676.5M1630.01 -6.7997V39.75M1630.01 -6.7997H1676.5M1630.01 39.75V86.2997M1630.01 39.75H1676.5M1630.01 86.2997V132.851M1630.01 86.2997H1676.5M1630.01 132.851V179.401M1630.01 132.851H1676.5M1630.01 179.401V225.95M1630.01 179.401H1676.5M1630.01 225.95V272.5M1630.01 225.95H1676.5M1630.01 272.5V319.051M1630.01 272.5H1676.5M1630.01 319.051V365.601M1630.01 319.051H1676.5M1630.01 365.601V412.151M1630.01 365.601H1676.5M1630.01 412.151V458.7M1630.01 412.151H1676.5M1630.01 458.7V505.25M1630.01 458.7H1676.5M1630.01 505.25V551.801M1630.01 505.25H1676.5M1630.01 551.801V598.351M1630.01 551.801H1676.5M1630.01 598.351V644.901M1630.01 598.351H1676.5M1630.01 644.901V691.45M1630.01 644.901H1676.5M1630.01 691.45V738M1630.01 691.45H1676.5M1630.01 738H1676.5M1676.5 -193V-146.45M1676.5 -193H1723.01M1676.5 -146.45V-99.8991M1676.5 -146.45H1723.01M1676.5 -99.8991V-53.3494M1676.5 -99.8991H1723.01M1676.5 -53.3494V-6.7997M1676.5 -53.3494H1723.01M1676.5 -6.7997V39.75M1676.5 -6.7997H1723.01M1676.5 39.75V86.2997M1676.5 39.75H1723.01M1676.5 86.2997V132.851M1676.5 86.2997H1723.01M1676.5 132.851V179.401M1676.5 132.851H1723.01M1676.5 179.401V225.95M1676.5 179.401H1723.01M1676.5 225.95V272.5M1676.5 225.95H1723.01M1676.5 272.5V319.051M1676.5 272.5H1723.01M1676.5 319.051V365.601M1676.5 319.051H1723.01M1676.5 365.601V412.151M1676.5 365.601H1723.01M1676.5 412.151V458.7M1676.5 412.151H1723.01M1676.5 458.7V505.25M1676.5 458.7H1723.01M1676.5 505.25V551.801M1676.5 505.25H1723.01M1676.5 551.801V598.351M1676.5 551.801H1723.01M1676.5 598.351V644.901M1676.5 598.351H1723.01M1676.5 644.901V691.45M1676.5 644.901H1723.01M1676.5 691.45V738M1676.5 691.45H1723.01M1676.5 738H1723.01M1723.01 -193V-146.45M1723.01 -193H1769.5M1723.01 -146.45V-99.8991M1723.01 -146.45H1769.5M1723.01 -99.8991V-53.3494M1723.01 -99.8991H1769.5M1723.01 -53.3494V-6.7997M1723.01 -53.3494H1769.5M1723.01 -6.7997V39.75M1723.01 -6.7997H1769.5M1723.01 39.75V86.2997M1723.01 39.75H1769.5M1723.01 86.2997V132.851M1723.01 86.2997H1769.5M1723.01 132.851V179.401M1723.01 132.851H1769.5M1723.01 179.401V225.95M1723.01 179.401H1769.5M1723.01 225.95V272.5M1723.01 225.95H1769.5M1723.01 272.5V319.051M1723.01 272.5H1769.5M1723.01 319.051V365.601M1723.01 319.051H1769.5M1723.01 365.601V412.151M1723.01 365.601H1769.5M1723.01 412.151V458.7M1723.01 412.151H1769.5M1723.01 458.7V505.25M1723.01 458.7H1769.5M1723.01 505.25V551.801M1723.01 505.25H1769.5M1723.01 551.801V598.351M1723.01 551.801H1769.5M1723.01 598.351V644.901M1723.01 598.351H1769.5M1723.01 644.901V691.45M1723.01 644.901H1769.5M1723.01 691.45V738M1723.01 691.45H1769.5M1723.01 738H1769.5M1769.5 -193V-146.45M1769.5 -193H1816M1769.5 -146.45V-99.8991M1769.5 -146.45H1816M1769.5 -99.8991V-53.3494M1769.5 -99.8991H1816M1769.5 -53.3494V-6.7997M1769.5 -53.3494H1816M1769.5 -6.7997V39.75M1769.5 -6.7997H1816M1769.5 39.75V86.2997M1769.5 39.75H1816M1769.5 86.2997V132.851M1769.5 86.2997H1816M1769.5 132.851V179.401M1769.5 132.851H1816M1769.5 179.401V225.95M1769.5 179.401H1816M1769.5 225.95V272.5M1769.5 225.95H1816M1769.5 272.5V319.051M1769.5 272.5H1816M1769.5 319.051V365.601M1769.5 319.051H1816M1769.5 365.601V412.151M1769.5 365.601H1816M1769.5 412.151V458.7M1769.5 412.151H1816M1769.5 458.7V505.25M1769.5 458.7H1816M1769.5 505.25V551.801M1769.5 505.25H1816M1769.5 551.801V598.351M1769.5 551.801H1816M1769.5 598.351V644.901M1769.5 598.351H1816M1769.5 644.901V691.45M1769.5 644.901H1816M1769.5 691.45V738M1769.5 691.45H1816M1769.5 738H1816M1816 -193V-146.45M1816 -193H1862.5M1816 -146.45V-99.8991M1816 -146.45H1862.5M1816 -99.8991V-53.3494M1816 -99.8991H1862.5M1816 -53.3494V-6.7997M1816 -53.3494H1862.5M1816 -6.7997V39.75M1816 -6.7997H1862.5M1816 39.75V86.2997M1816 39.75H1862.5M1816 86.2997V132.851M1816 86.2997H1862.5M1816 132.851V179.401M1816 132.851H1862.5M1816 179.401V225.95M1816 179.401H1862.5M1816 225.95V272.5M1816 225.95H1862.5M1816 272.5V319.051M1816 272.5H1862.5M1816 319.051V365.601M1816 319.051H1862.5M1816 365.601V412.151M1816 365.601H1862.5M1816 412.151V458.7M1816 412.151H1862.5M1816 458.7V505.25M1816 458.7H1862.5M1816 505.25V551.801M1816 505.25H1862.5M1816 551.801V598.351M1816 551.801H1862.5M1816 598.351V644.901M1816 598.351H1862.5M1816 644.901V691.45M1816 644.901H1862.5M1816 691.45V738M1816 691.45H1862.5M1816 738H1862.5M1862.5 -193V-146.45M1862.5 -193H1909M1862.5 -146.45V-99.8991M1862.5 -146.45H1909M1862.5 -99.8991V-53.3494M1862.5 -99.8991H1909M1862.5 -53.3494V-6.7997M1862.5 -53.3494H1909M1862.5 -6.7997V39.75M1862.5 -6.7997H1909M1862.5 39.75V86.2997M1862.5 39.75H1909M1862.5 86.2997V132.851M1862.5 86.2997H1909M1862.5 132.851V179.401M1862.5 132.851H1909M1862.5 179.401V225.95M1862.5 179.401H1909M1862.5 225.95V272.5M1862.5 225.95H1909M1862.5 272.5V319.051M1862.5 272.5H1909M1862.5 319.051V365.601M1862.5 319.051H1909M1862.5 365.601V412.151M1862.5 365.601H1909M1862.5 412.151V458.7M1862.5 412.151H1909M1862.5 458.7V505.25M1862.5 458.7H1909M1862.5 505.25V551.801M1862.5 505.25H1909M1862.5 551.801V598.351M1862.5 551.801H1909M1862.5 598.351V644.901M1862.5 598.351H1909M1862.5 644.901V691.45M1862.5 644.901H1909M1862.5 691.45V738M1862.5 691.45H1909M1862.5 738H1909M1909 -193V-146.45M1909 -193H1955.51M1909 -146.45V-99.8991M1909 -146.45H1955.51M1909 -99.8991V-53.3494M1909 -99.8991H1955.51M1909 -53.3494V-6.7997M1909 -53.3494H1955.51M1909 -6.7997V39.75M1909 -6.7997H1955.51M1909 39.75V86.2997M1909 39.75H1955.51M1909 86.2997V132.851M1909 86.2997H1955.51M1909 132.851V179.401M1909 132.851H1955.51M1909 179.401V225.95M1909 179.401H1955.51M1909 225.95V272.5M1909 225.95H1955.51M1909 272.5V319.051M1909 272.5H1955.51M1909 319.051V365.601M1909 319.051H1955.51M1909 365.601V412.151M1909 365.601H1955.51M1909 412.151V458.7M1909 412.151H1955.51M1909 458.7V505.25M1909 458.7H1955.51M1909 505.25V551.801M1909 505.25H1955.51M1909 551.801V598.351M1909 551.801H1955.51M1909 598.351V644.901M1909 598.351H1955.51M1909 644.901V691.45M1909 644.901H1955.51M1909 691.45V738M1909 691.45H1955.51M1909 738H1955.51M1955.51 -193V-146.45M1955.51 -193H2002V-146.45M1955.51 -146.45V-99.8991M1955.51 -146.45H2002M1955.51 -99.8991V-53.3494M1955.51 -99.8991H2002M1955.51 -53.3494V-6.7997M1955.51 -53.3494H2002M1955.51 -6.7997V39.75M1955.51 -6.7997H2002M1955.51 39.75V86.2997M1955.51 39.75H2002M1955.51 86.2997V132.851M1955.51 86.2997H2002M1955.51 132.851V179.401M1955.51 132.851H2002M1955.51 179.401V225.95M1955.51 179.401H2002M1955.51 225.95V272.5M1955.51 225.95H2002M1955.51 272.5V319.051M1955.51 272.5H2002M1955.51 319.051V365.601M1955.51 319.051H2002M1955.51 365.601V412.151M1955.51 365.601H2002M1955.51 412.151V458.7M1955.51 412.151H2002M1955.51 458.7V505.25M1955.51 458.7H2002M1955.51 505.25V551.801M1955.51 505.25H2002M1955.51 551.801V598.351M1955.51 551.801H2002M1955.51 598.351V644.901M1955.51 598.351H2002M1955.51 644.901V691.45M1955.51 644.901H2002M1955.51 691.45V738M1955.51 691.45H2002M1955.51 738H2002V691.45M2002 -146.45V-99.8991M2002 -99.8991V-53.3494M2002 -53.3494V-6.7997M2002 -6.7997V39.75M2002 39.75V86.2997M2002 86.2997V132.851M2002 132.851V179.401M2002 179.401V225.95M2002 225.95V272.5M2002 272.5V319.051M2002 319.051V365.601M2002 365.601V412.151M2002 412.151V458.7M2002 458.7V505.25M2002 505.25V551.801M2002 551.801V598.351M2002 598.351V644.901M2002 644.901V691.45" stroke="url(#paint0_radial_9446_2283)" stroke-opacity="0.3" style="mix-blend-mode:soft-light" stroke-width="0.471024"/>
</g>
<g filter="url(#filter0_f_9446_2283)">
<circle cx="859" cy="325" r="120" fill="#435DFF"/>
</g>
</g>
<rect x="0.5" y="0.5" width="779" height="349" rx="39.5" stroke="#E5E5E5"/>
<defs>
<filter id="filter0_f_9446_2283" x="499" y="-35" width="720" height="720" filterUnits="userSpaceOnUse" color-interpolation-filters="sRGB">
<feFlood flood-opacity="0" result="BackgroundImageFix"/>
<feBlend mode="normal" in="SourceGraphic" in2="BackgroundImageFix" result="shape"/>
<feGaussianBlur stdDeviation="120" result="effect1_foregroundBlur_9446_2283"/>
</filter>
<radialGradient id="paint0_radial_9446_2283" cx="0" cy="0" r="1" gradientUnits="userSpaceOnUse" gradientTransform="translate(979.001 272.5) rotate(90) scale(465.5 1023)">
<stop stop-color="white"/>
<stop offset="1" stop-color="white" stop-opacity="0"/>
</radialGradient>
<clipPath id="clip0_9446_2283">
<rect width="780" height="350" rx="40" fill="white"/>
</clipPath>
</defs>
</svg>
