<svg preserveAspectRatio="none" width="100%" height="100%" overflow="visible" style="display: block;" viewBox="0 0 889.86 486" fill="none" xmlns="http://www.w3.org/2000/svg">
<path id="Union" d="M718.735 4.53023e-08C749.772 0.000462764 780.301 8.44611 806.999 24.5193C836.59 42.3351 860.101 68.6898 874.434 100.116C888.767 131.543 893.251 166.574 887.302 200.599C881.353 234.625 865.244 266.056 841.098 290.755C816.951 315.453 785.892 332.267 752.012 338.985C718.13 345.701 683.003 342.008 651.261 328.39C619.518 314.77 592.64 291.861 574.16 262.68C555.68 233.497 546.463 199.402 547.722 164.883L609.188 167.129C608.381 189.242 614.281 211.083 626.12 229.778C637.958 248.471 655.178 263.147 675.513 271.871C695.847 280.594 718.349 282.959 740.053 278.656C761.756 274.352 781.652 263.581 797.119 247.759C812.586 231.938 822.908 211.806 826.719 190.011C830.53 168.215 827.658 145.77 818.477 125.638C809.295 105.506 794.23 88.6205 775.274 77.2076C758.172 66.9123 738.616 61.5193 718.735 61.5187V61.6056H714.417C713.702 61.6339 712.981 61.6503 712.265 61.6925L712.258 61.6056H485.996V486H424.391V61.6056H177.607L177.601 61.6992C176.828 61.6535 176.053 61.6349 175.281 61.6056H171.13V61.5254C151.248 61.5248 131.694 66.9184 114.591 77.2143C95.6355 88.626 80.5768 105.507 71.395 125.638C62.2137 145.769 59.3358 168.209 63.1461 190.004C66.9572 211.8 77.2776 231.938 92.7457 247.759C108.213 263.58 128.109 274.353 149.812 278.656C171.515 282.957 194.013 280.587 214.346 271.864C234.68 263.14 251.901 248.464 263.739 229.771C275.576 211.078 281.478 189.24 280.671 167.129L342.143 164.883C343.403 199.402 334.184 233.497 315.705 262.68C297.225 291.862 270.341 314.77 238.598 328.39C206.855 342.008 171.729 345.701 137.847 338.985C103.966 332.267 72.9073 315.453 48.7608 290.755C24.6141 266.056 8.50592 234.625 2.55655 200.599C-3.39241 166.574 1.09783 131.543 15.4312 100.116C29.7648 68.6888 53.2732 42.3348 82.8658 24.5193C109.566 8.4456 140.092 -0.000714255 171.13 4.53023e-08H718.735Z" fill="url(#paint0_linear_0_79)"/>
<defs>
<linearGradient id="paint0_linear_0_79" x1="444.93" y1="0" x2="444.93" y2="486" gradientUnits="userSpaceOnUse">
<stop stop-color="white"/>
<stop offset="0.60285" stop-color="white" stop-opacity="0"/>
</linearGradient>
</defs>
</svg>
