<svg width="72" height="72" viewBox="0 0 72 72" fill="none" xmlns="http://www.w3.org/2000/svg">
<g clip-path="url(#clip0_9463_2758)">
<path d="M42.75 0H8.25C3.69 0 0 3.69 0 8.25V54.75C0 59.31 3.69 63 8.25 63H32.67C30.03 59.4 28.5 55.02 28.5 50.25C28.5 38.25 38.25 28.5 50.25 28.5C50.49 28.5 50.76 28.5 51 28.53V8.25C51 3.69 47.31 0 42.75 0ZM12 12H24C25.65 12 27 13.35 27 15C27 16.65 25.65 18 24 18H12C10.35 18 9 16.65 9 15C9 13.35 10.35 12 12 12ZM27 42H12C10.35 42 9 40.65 9 39C9 37.35 10.35 36 12 36H27C28.65 36 30 37.35 30 39C30 40.65 28.65 42 27 42ZM39 30H12C10.35 30 9 28.65 9 27C9 25.35 10.35 24 12 24H39C40.65 24 42 25.35 42 27C42 28.65 40.65 30 39 30Z" fill="url(#paint0_linear_9463_2758)"/>
<path d="M50.25 66C41.565 66 34.5 58.935 34.5 50.25C34.5 41.565 41.565 34.5 50.25 34.5C58.935 34.5 66 41.565 66 50.25C66 58.935 58.935 66 50.25 66ZM50.25 40.5C44.874 40.5 40.5 44.874 40.5 50.25C40.5 55.626 44.874 60 50.25 60C55.626 60 60 55.626 60 50.25C60 44.874 55.626 40.5 50.25 40.5Z" fill="url(#paint1_linear_9463_2758)"/>
<path d="M69.0008 71.9998C68.2328 71.9998 67.4648 71.7058 66.8798 71.1208L57.1298 61.3708C55.9567 60.1978 55.9567 58.3018 57.1298 57.1288C58.3028 55.9558 60.1988 55.9558 61.3718 57.1288L71.1218 66.8788C72.2948 68.0518 72.2948 69.9478 71.1218 71.1208C70.5368 71.7058 69.7688 71.9998 69.0008 71.9998Z" fill="url(#paint2_linear_9463_2758)"/>
</g>
<defs>
<linearGradient id="paint0_linear_9463_2758" x1="4.63636" y1="47.25" x2="49.5929" y2="24.3742" gradientUnits="userSpaceOnUse">
<stop stop-color="#03159D"/>
<stop offset="1" stop-color="#7084FF"/>
</linearGradient>
<linearGradient id="paint1_linear_9463_2758" x1="37.3636" y1="58.125" x2="62.4205" y2="42.375" gradientUnits="userSpaceOnUse">
<stop stop-color="#03159D"/>
<stop offset="1" stop-color="#7084FF"/>
</linearGradient>
<linearGradient id="paint2_linear_9463_2758" x1="57.682" y1="68.0621" x2="70.2112" y2="60.1862" gradientUnits="userSpaceOnUse">
<stop stop-color="#03159D"/>
<stop offset="1" stop-color="#7084FF"/>
</linearGradient>
<clipPath id="clip0_9463_2758">
<rect width="72" height="72" fill="white"/>
</clipPath>
</defs>
</svg>
