<svg width="72" height="72" viewBox="0 0 72 72" fill="none" xmlns="http://www.w3.org/2000/svg">
<path d="M69.75 15.75V20.25H2.25V15.75C2.25 10.305 6.12 5.76 11.25 4.725V6.75C11.25 7.9875 12.2625 9 13.5 9C14.7375 9 15.75 7.9875 15.75 6.75V4.5H22.5V6.75C22.5 7.9875 23.5125 9 24.75 9C25.9875 9 27 7.9875 27 6.75V4.5H33.75V6.75C33.75 7.9875 34.7625 9 36 9C37.2375 9 38.25 7.9875 38.25 6.75V4.5H45V6.75C45 7.9875 46.0125 9 47.25 9C48.4875 9 49.5 7.9875 49.5 6.75V4.5H56.25V6.75C56.25 7.9875 57.2625 9 58.5 9C59.7375 9 60.75 7.9875 60.75 6.75V4.725C65.88 5.76 69.75 10.305 69.75 15.75ZM36 2.25C34.7625 2.25 33.75 3.2625 33.75 4.5H38.25C38.25 3.2625 37.2375 2.25 36 2.25ZM13.5 2.25C12.2625 2.25 11.25 3.2625 11.25 4.5V4.725C11.97 4.5675 12.735 4.5 13.5 4.5H15.75C15.75 3.2625 14.7375 2.25 13.5 2.25ZM24.75 2.25C23.5125 2.25 22.5 3.2625 22.5 4.5H27C27 3.2625 25.9875 2.25 24.75 2.25ZM47.25 2.25C46.0125 2.25 45 3.2625 45 4.5H49.5C49.5 3.2625 48.4875 2.25 47.25 2.25ZM58.5 2.25C57.2625 2.25 56.25 3.2625 56.25 4.5H58.5C59.265 4.5 60.03 4.5675 60.75 4.725V4.5C60.75 3.2625 59.7375 2.25 58.5 2.25ZM69.75 54C69.75 62.7075 62.7075 69.75 54 69.75C45.2925 69.75 38.25 62.7075 38.25 54C38.25 45.2925 45.2925 38.25 54 38.25C62.7075 38.25 69.75 45.2925 69.75 54ZM60.75 54C60.75 52.7625 59.7375 51.75 58.5 51.75H56.25V47.25C56.25 46.0125 55.2375 45 54 45C52.7625 45 51.75 46.0125 51.75 47.25V54C51.75 55.2375 52.7625 56.25 54 56.25H58.5C59.7375 56.25 60.75 55.2375 60.75 54ZM69.75 24.75V41.31C66.0375 36.6975 60.3675 33.75 54 33.75C42.84 33.75 33.75 42.84 33.75 54C33.75 60.3675 36.6975 66.0375 41.31 69.75H13.5C7.29 69.75 2.25 64.71 2.25 58.5V24.75H69.75ZM18 58.5C18 57.2625 16.9875 56.25 15.75 56.25C14.5125 56.25 13.5 57.2625 13.5 58.5C13.5 59.7375 14.5125 60.75 15.75 60.75C16.9875 60.75 18 59.7375 18 58.5ZM18 47.25C18 46.0125 16.9875 45 15.75 45C14.5125 45 13.5 46.0125 13.5 47.25C13.5 48.4875 14.5125 49.5 15.75 49.5C16.9875 49.5 18 48.4875 18 47.25ZM18 36C18 34.7625 16.9875 33.75 15.75 33.75C14.5125 33.75 13.5 34.7625 13.5 36C13.5 37.2375 14.5125 38.25 15.75 38.25C16.9875 38.25 18 37.2375 18 36ZM31.5 58.5C31.5 57.2625 30.4875 56.25 29.25 56.25C28.0125 56.25 27 57.2625 27 58.5C27 59.7375 28.0125 60.75 29.25 60.75C30.4875 60.75 31.5 59.7375 31.5 58.5ZM31.5 47.25C31.5 46.0125 30.4875 45 29.25 45C28.0125 45 27 46.0125 27 47.25C27 48.4875 28.0125 49.5 29.25 49.5C30.4875 49.5 31.5 48.4875 31.5 47.25ZM31.5 36C31.5 34.7625 30.4875 33.75 29.25 33.75C28.0125 33.75 27 34.7625 27 36C27 37.2375 28.0125 38.25 29.25 38.25C30.4875 38.25 31.5 37.2375 31.5 36Z" fill="url(#paint0_linear_9463_1939)"/>
<defs>
<linearGradient id="paint0_linear_9463_1939" x1="8.38636" y1="52.875" x2="62.0795" y2="19.125" gradientUnits="userSpaceOnUse">
<stop stop-color="#03159D"/>
<stop offset="1" stop-color="#7084FF"/>
</linearGradient>
</defs>
</svg>
