<svg width="952" height="28" viewBox="0 0 952 28" fill="none" xmlns="http://www.w3.org/2000/svg">
<path d="M17.64 7.49L13.932 20H11.61L8.982 10.532L6.192 20L3.888 20.018L0.342 7.49H2.52L5.112 17.678L7.92 7.49H10.224L12.834 17.624L15.444 7.49H17.64ZM24.4624 9.92C25.2184 9.92 25.8904 10.082 26.4784 10.406C27.0784 10.73 27.5464 11.21 27.8824 11.846C28.2304 12.482 28.4044 13.25 28.4044 14.15V20H26.3704V14.456C26.3704 13.568 26.1484 12.89 25.7044 12.422C25.2604 11.942 24.6544 11.702 23.8864 11.702C23.1184 11.702 22.5064 11.942 22.0504 12.422C21.6064 12.89 21.3844 13.568 21.3844 14.456V20H19.3324V6.68H21.3844V11.234C21.7324 10.814 22.1704 10.49 22.6984 10.262C23.2384 10.034 23.8264 9.92 24.4624 9.92ZM30.3379 14.996C30.3379 14 30.5419 13.118 30.9499 12.35C31.3699 11.582 31.9339 10.988 32.6419 10.568C33.3619 10.136 34.1539 9.92 35.0179 9.92C35.7979 9.92 36.4759 10.076 37.0519 10.388C37.6399 10.688 38.1079 11.066 38.4559 11.522V10.082H40.5259V20H38.4559V18.524C38.1079 18.992 37.6339 19.382 37.0339 19.694C36.4339 20.006 35.7499 20.162 34.9819 20.162C34.1299 20.162 33.3499 19.946 32.6419 19.514C31.9339 19.07 31.3699 18.458 30.9499 17.678C30.5419 16.886 30.3379 15.992 30.3379 14.996ZM38.4559 15.032C38.4559 14.348 38.3119 13.754 38.0239 13.25C37.7479 12.746 37.3819 12.362 36.9259 12.098C36.4699 11.834 35.9779 11.702 35.4499 11.702C34.9219 11.702 34.4299 11.834 33.9739 12.098C33.5179 12.35 33.1459 12.728 32.8579 13.232C32.5819 13.724 32.4439 14.312 32.4439 14.996C32.4439 15.68 32.5819 16.28 32.8579 16.796C33.1459 17.312 33.5179 17.708 33.9739 17.984C34.4419 18.248 34.9339 18.38 35.4499 18.38C35.9779 18.38 36.4699 18.248 36.9259 17.984C37.3819 17.72 37.7479 17.336 38.0239 16.832C38.3119 16.316 38.4559 15.716 38.4559 15.032ZM45.6151 11.756V17.246C45.6151 17.618 45.6991 17.888 45.8671 18.056C46.0471 18.212 46.3471 18.29 46.7671 18.29H48.0271V20H46.4071C45.4831 20 44.7751 19.784 44.2831 19.352C43.7911 18.92 43.5451 18.218 43.5451 17.246V11.756H42.3751V10.082H43.5451V7.616H45.6151V10.082H48.0271V11.756H45.6151ZM55.6381 8.768C55.2661 8.768 54.9541 8.642 54.7021 8.39C54.4501 8.138 54.3241 7.826 54.3241 7.454C54.3241 7.082 54.4501 6.77 54.7021 6.518C54.9541 6.266 55.2661 6.14 55.6381 6.14C55.9981 6.14 56.3041 6.266 56.5561 6.518C56.8081 6.77 56.9341 7.082 56.9341 7.454C56.9341 7.826 56.8081 8.138 56.5561 8.39C56.3041 8.642 55.9981 8.768 55.6381 8.768ZM56.6461 10.082V20H54.5941V10.082H56.6461ZM62.9402 20.162C62.1602 20.162 61.4582 20.024 60.8342 19.748C60.2222 19.46 59.7362 19.076 59.3762 18.596C59.0162 18.104 58.8242 17.558 58.8002 16.958H60.9242C60.9602 17.378 61.1582 17.732 61.5182 18.02C61.8902 18.296 62.3522 18.434 62.9042 18.434C63.4802 18.434 63.9242 18.326 64.2362 18.11C64.5602 17.882 64.7222 17.594 64.7222 17.246C64.7222 16.874 64.5422 16.598 64.1822 16.418C63.8342 16.238 63.2762 16.04 62.5082 15.824C61.7642 15.62 61.1582 15.422 60.6902 15.23C60.2222 15.038 59.8142 14.744 59.4662 14.348C59.1302 13.952 58.9622 13.43 58.9622 12.782C58.9622 12.254 59.1182 11.774 59.4302 11.342C59.7422 10.898 60.1862 10.55 60.7622 10.298C61.3502 10.046 62.0222 9.92 62.7782 9.92C63.9062 9.92 64.8122 10.208 65.4962 10.784C66.1922 11.348 66.5642 12.122 66.6122 13.106H64.5602C64.5242 12.662 64.3442 12.308 64.0202 12.044C63.6962 11.78 63.2582 11.648 62.7062 11.648C62.1662 11.648 61.7522 11.75 61.4642 11.954C61.1762 12.158 61.0322 12.428 61.0322 12.764C61.0322 13.028 61.1282 13.25 61.3202 13.43C61.5122 13.61 61.7462 13.754 62.0222 13.862C62.2982 13.958 62.7062 14.084 63.2462 14.24C63.9662 14.432 64.5542 14.63 65.0102 14.834C65.4782 15.026 65.8802 15.314 66.2162 15.698C66.5522 16.082 66.7262 16.592 66.7382 17.228C66.7382 17.792 66.5822 18.296 66.2702 18.74C65.9582 19.184 65.5142 19.532 64.9382 19.784C64.3742 20.036 63.7082 20.162 62.9402 20.162ZM75.6833 7.49V20H73.6313V7.49H75.6833ZM80.4293 9.146V12.818H84.7493V14.492H80.4293V18.326H85.2893V20H78.3773V7.472H85.2893V9.146H80.4293ZM96.5648 11.216C96.5648 11.852 96.4148 12.452 96.1148 13.016C95.8148 13.58 95.3348 14.042 94.6748 14.402C94.0148 14.75 93.1688 14.924 92.1368 14.924H89.8688V20H87.8168V7.49H92.1368C93.0968 7.49 93.9068 7.658 94.5668 7.994C95.2388 8.318 95.7368 8.762 96.0608 9.326C96.3968 9.89 96.5648 10.52 96.5648 11.216ZM92.1368 13.25C92.9168 13.25 93.4988 13.076 93.8828 12.728C94.2668 12.368 94.4588 11.864 94.4588 11.216C94.4588 9.848 93.6848 9.164 92.1368 9.164H89.8688V13.25H92.1368ZM105.884 7.49V9.164H100.574V12.854H104.714V14.528H100.574V20H98.5219V7.49H105.884ZM111.777 14.996C111.777 14 111.981 13.118 112.389 12.35C112.809 11.582 113.373 10.988 114.081 10.568C114.801 10.136 115.593 9.92 116.457 9.92C117.237 9.92 117.915 10.076 118.491 10.388C119.079 10.688 119.547 11.066 119.895 11.522V10.082H121.965V20H119.895V18.524C119.547 18.992 119.073 19.382 118.473 19.694C117.873 20.006 117.189 20.162 116.421 20.162C115.569 20.162 114.789 19.946 114.081 19.514C113.373 19.07 112.809 18.458 112.389 17.678C111.981 16.886 111.777 15.992 111.777 14.996ZM119.895 15.032C119.895 14.348 119.751 13.754 119.463 13.25C119.187 12.746 118.821 12.362 118.365 12.098C117.909 11.834 117.417 11.702 116.889 11.702C116.361 11.702 115.869 11.834 115.413 12.098C114.957 12.35 114.585 12.728 114.297 13.232C114.021 13.724 113.883 14.312 113.883 14.996C113.883 15.68 114.021 16.28 114.297 16.796C114.585 17.312 114.957 17.708 115.413 17.984C115.881 18.248 116.373 18.38 116.889 18.38C117.417 18.38 117.909 18.248 118.365 17.984C118.821 17.72 119.187 17.336 119.463 16.832C119.751 16.316 119.895 15.716 119.895 15.032ZM129.665 9.92C130.445 9.92 131.141 10.082 131.753 10.406C132.377 10.73 132.863 11.21 133.211 11.846C133.559 12.482 133.733 13.25 133.733 14.15V20H131.699V14.456C131.699 13.568 131.477 12.89 131.033 12.422C130.589 11.942 129.983 11.702 129.215 11.702C128.447 11.702 127.835 11.942 127.379 12.422C126.935 12.89 126.713 13.568 126.713 14.456V20H124.661V10.082H126.713V11.216C127.049 10.808 127.475 10.49 127.991 10.262C128.519 10.034 129.077 9.92 129.665 9.92ZM135.666 14.996C135.666 14 135.87 13.118 136.278 12.35C136.698 11.582 137.262 10.988 137.97 10.568C138.69 10.136 139.488 9.92 140.364 9.92C141.012 9.92 141.648 10.064 142.272 10.352C142.908 10.628 143.412 11 143.784 11.468V6.68H145.854V20H143.784V18.506C143.448 18.986 142.98 19.382 142.38 19.694C141.792 20.006 141.114 20.162 140.346 20.162C139.482 20.162 138.69 19.946 137.97 19.514C137.262 19.07 136.698 18.458 136.278 17.678C135.87 16.886 135.666 15.992 135.666 14.996ZM143.784 15.032C143.784 14.348 143.64 13.754 143.352 13.25C143.076 12.746 142.71 12.362 142.254 12.098C141.798 11.834 141.306 11.702 140.778 11.702C140.25 11.702 139.758 11.834 139.302 12.098C138.846 12.35 138.474 12.728 138.186 13.232C137.91 13.724 137.772 14.312 137.772 14.996C137.772 15.68 137.91 16.28 138.186 16.796C138.474 17.312 138.846 17.708 139.302 17.984C139.77 18.248 140.262 18.38 140.778 18.38C141.306 18.38 141.798 18.248 142.254 17.984C142.71 17.72 143.076 17.336 143.352 16.832C143.64 16.316 143.784 15.716 143.784 15.032ZM166.545 10.082L163.467 20H161.307L159.309 12.674L157.311 20H155.151L152.055 10.082H154.143L156.213 18.056L158.319 10.082H160.461L162.477 18.02L164.529 10.082H166.545ZM173.209 9.92C173.965 9.92 174.637 10.082 175.225 10.406C175.825 10.73 176.293 11.21 176.629 11.846C176.977 12.482 177.151 13.25 177.151 14.15V20H175.117V14.456C175.117 13.568 174.895 12.89 174.451 12.422C174.007 11.942 173.401 11.702 172.633 11.702C171.865 11.702 171.253 11.942 170.797 12.422C170.353 12.89 170.131 13.568 170.131 14.456V20H168.079V6.68H170.131V11.234C170.479 10.814 170.917 10.49 171.445 10.262C171.985 10.034 172.573 9.92 173.209 9.92ZM188.696 10.082L182.612 24.662H180.488L182.504 19.838L178.598 10.082H180.884L183.674 17.642L186.572 10.082H188.696ZM208.24 10.082L205.162 20H203.002L201.004 12.674L199.006 20H196.846L193.75 10.082H195.838L197.908 18.056L200.014 10.082H202.156L204.172 18.02L206.224 10.082H208.24ZM218.864 14.798C218.864 15.17 218.84 15.506 218.792 15.806H211.214C211.274 16.598 211.568 17.234 212.096 17.714C212.624 18.194 213.272 18.434 214.04 18.434C215.144 18.434 215.924 17.972 216.38 17.048H218.594C218.294 17.96 217.748 18.71 216.956 19.298C216.176 19.874 215.204 20.162 214.04 20.162C213.092 20.162 212.24 19.952 211.484 19.532C210.74 19.1 210.152 18.5 209.72 17.732C209.3 16.952 209.09 16.052 209.09 15.032C209.09 14.012 209.294 13.118 209.702 12.35C210.122 11.57 210.704 10.97 211.448 10.55C212.204 10.13 213.068 9.92 214.04 9.92C214.976 9.92 215.81 10.124 216.542 10.532C217.274 10.94 217.844 11.516 218.252 12.26C218.66 12.992 218.864 13.838 218.864 14.798ZM216.722 14.15C216.71 13.394 216.44 12.788 215.912 12.332C215.384 11.876 214.73 11.648 213.95 11.648C213.242 11.648 212.636 11.876 212.132 12.332C211.628 12.776 211.328 13.382 211.232 14.15H216.722ZM222.935 11.522C223.235 11.018 223.631 10.628 224.123 10.352C224.627 10.064 225.221 9.92 225.905 9.92V12.044H225.383C224.579 12.044 223.967 12.248 223.547 12.656C223.139 13.064 222.935 13.772 222.935 14.78V20H220.883V10.082H222.935V11.522ZM236.881 14.798C236.881 15.17 236.857 15.506 236.809 15.806H229.231C229.291 16.598 229.585 17.234 230.113 17.714C230.641 18.194 231.289 18.434 232.057 18.434C233.161 18.434 233.941 17.972 234.397 17.048H236.611C236.311 17.96 235.765 18.71 234.973 19.298C234.193 19.874 233.221 20.162 232.057 20.162C231.109 20.162 230.257 19.952 229.501 19.532C228.757 19.1 228.169 18.5 227.737 17.732C227.317 16.952 227.107 16.052 227.107 15.032C227.107 14.012 227.311 13.118 227.719 12.35C228.139 11.57 228.721 10.97 229.465 10.55C230.221 10.13 231.085 9.92 232.057 9.92C232.993 9.92 233.827 10.124 234.559 10.532C235.291 10.94 235.861 11.516 236.269 12.26C236.677 12.992 236.881 13.838 236.881 14.798ZM234.739 14.15C234.727 13.394 234.457 12.788 233.929 12.332C233.401 11.876 232.747 11.648 231.967 11.648C231.259 11.648 230.653 11.876 230.149 12.332C229.645 12.776 229.345 13.382 229.249 14.15H234.739ZM255.583 9.92C256.363 9.92 257.059 10.082 257.671 10.406C258.295 10.73 258.781 11.21 259.129 11.846C259.489 12.482 259.669 13.25 259.669 14.15V20H257.635V14.456C257.635 13.568 257.413 12.89 256.969 12.422C256.525 11.942 255.919 11.702 255.151 11.702C254.383 11.702 253.771 11.942 253.315 12.422C252.871 12.89 252.649 13.568 252.649 14.456V20H250.615V14.456C250.615 13.568 250.393 12.89 249.949 12.422C249.505 11.942 248.899 11.702 248.131 11.702C247.363 11.702 246.751 11.942 246.295 12.422C245.851 12.89 245.629 13.568 245.629 14.456V20H243.577V10.082H245.629V11.216C245.965 10.808 246.391 10.49 246.907 10.262C247.423 10.034 247.975 9.92 248.563 9.92C249.355 9.92 250.063 10.088 250.687 10.424C251.311 10.76 251.791 11.246 252.127 11.882C252.427 11.282 252.895 10.808 253.531 10.46C254.167 10.1 254.851 9.92 255.583 9.92ZM271.208 10.082L265.124 24.662H263L265.016 19.838L261.11 10.082H263.396L266.186 17.642L269.084 10.082H271.208ZM281.032 20.162C280.252 20.162 279.55 20.024 278.926 19.748C278.314 19.46 277.828 19.076 277.468 18.596C277.108 18.104 276.916 17.558 276.892 16.958H279.016C279.052 17.378 279.25 17.732 279.61 18.02C279.982 18.296 280.444 18.434 280.996 18.434C281.572 18.434 282.016 18.326 282.328 18.11C282.652 17.882 282.814 17.594 282.814 17.246C282.814 16.874 282.634 16.598 282.274 16.418C281.926 16.238 281.368 16.04 280.6 15.824C279.856 15.62 279.25 15.422 278.782 15.23C278.314 15.038 277.906 14.744 277.558 14.348C277.222 13.952 277.054 13.43 277.054 12.782C277.054 12.254 277.21 11.774 277.522 11.342C277.834 10.898 278.278 10.55 278.854 10.298C279.442 10.046 280.114 9.92 280.87 9.92C281.998 9.92 282.904 10.208 283.588 10.784C284.284 11.348 284.656 12.122 284.704 13.106H282.652C282.616 12.662 282.436 12.308 282.112 12.044C281.788 11.78 281.35 11.648 280.798 11.648C280.258 11.648 279.844 11.75 279.556 11.954C279.268 12.158 279.124 12.428 279.124 12.764C279.124 13.028 279.22 13.25 279.412 13.43C279.604 13.61 279.838 13.754 280.114 13.862C280.39 13.958 280.798 14.084 281.338 14.24C282.058 14.432 282.646 14.63 283.102 14.834C283.57 15.026 283.972 15.314 284.308 15.698C284.644 16.082 284.818 16.592 284.83 17.228C284.83 17.792 284.674 18.296 284.362 18.74C284.05 19.184 283.606 19.532 283.03 19.784C282.466 20.036 281.8 20.162 281.032 20.162ZM292.177 9.92C292.933 9.92 293.605 10.082 294.193 10.406C294.793 10.73 295.261 11.21 295.597 11.846C295.945 12.482 296.119 13.25 296.119 14.15V20H294.085V14.456C294.085 13.568 293.863 12.89 293.419 12.422C292.975 11.942 292.369 11.702 291.601 11.702C290.833 11.702 290.221 11.942 289.765 12.422C289.321 12.89 289.099 13.568 289.099 14.456V20H287.047V6.68H289.099V11.234C289.447 10.814 289.885 10.49 290.413 10.262C290.953 10.034 291.541 9.92 292.177 9.92ZM298.053 14.996C298.053 14 298.257 13.118 298.665 12.35C299.085 11.582 299.649 10.988 300.357 10.568C301.077 10.136 301.869 9.92 302.733 9.92C303.513 9.92 304.191 10.076 304.767 10.388C305.355 10.688 305.823 11.066 306.171 11.522V10.082H308.241V20H306.171V18.524C305.823 18.992 305.349 19.382 304.749 19.694C304.149 20.006 303.465 20.162 302.697 20.162C301.845 20.162 301.065 19.946 300.357 19.514C299.649 19.07 299.085 18.458 298.665 17.678C298.257 16.886 298.053 15.992 298.053 14.996ZM306.171 15.032C306.171 14.348 306.027 13.754 305.739 13.25C305.463 12.746 305.097 12.362 304.641 12.098C304.185 11.834 303.693 11.702 303.165 11.702C302.637 11.702 302.145 11.834 301.689 12.098C301.233 12.35 300.861 12.728 300.573 13.232C300.297 13.724 300.159 14.312 300.159 14.996C300.159 15.68 300.297 16.28 300.573 16.796C300.861 17.312 301.233 17.708 301.689 17.984C302.157 18.248 302.649 18.38 303.165 18.38C303.693 18.38 304.185 18.248 304.641 17.984C305.097 17.72 305.463 17.336 305.739 16.832C306.027 16.316 306.171 15.716 306.171 15.032ZM312.988 11.522C313.288 11.018 313.684 10.628 314.176 10.352C314.68 10.064 315.274 9.92 315.958 9.92V12.044H315.436C314.632 12.044 314.02 12.248 313.6 12.656C313.192 13.064 312.988 13.772 312.988 14.78V20H310.936V10.082H312.988V11.522ZM326.934 14.798C326.934 15.17 326.91 15.506 326.862 15.806H319.284C319.344 16.598 319.638 17.234 320.166 17.714C320.694 18.194 321.342 18.434 322.11 18.434C323.214 18.434 323.994 17.972 324.45 17.048H326.664C326.364 17.96 325.818 18.71 325.026 19.298C324.246 19.874 323.274 20.162 322.11 20.162C321.162 20.162 320.31 19.952 319.554 19.532C318.81 19.1 318.222 18.5 317.79 17.732C317.37 16.952 317.16 16.052 317.16 15.032C317.16 14.012 317.364 13.118 317.772 12.35C318.192 11.57 318.774 10.97 319.518 10.55C320.274 10.13 321.138 9.92 322.11 9.92C323.046 9.92 323.88 10.124 324.612 10.532C325.344 10.94 325.914 11.516 326.322 12.26C326.73 12.992 326.934 13.838 326.934 14.798ZM324.792 14.15C324.78 13.394 324.51 12.788 323.982 12.332C323.454 11.876 322.8 11.648 322.02 11.648C321.312 11.648 320.706 11.876 320.202 12.332C319.698 12.776 319.398 13.382 319.302 14.15H324.792ZM332.554 20.162C331.774 20.162 331.072 20.024 330.448 19.748C329.836 19.46 329.35 19.076 328.99 18.596C328.63 18.104 328.438 17.558 328.414 16.958H330.538C330.574 17.378 330.772 17.732 331.132 18.02C331.504 18.296 331.966 18.434 332.518 18.434C333.094 18.434 333.538 18.326 333.85 18.11C334.174 17.882 334.336 17.594 334.336 17.246C334.336 16.874 334.156 16.598 333.796 16.418C333.448 16.238 332.89 16.04 332.122 15.824C331.378 15.62 330.772 15.422 330.304 15.23C329.836 15.038 329.428 14.744 329.08 14.348C328.744 13.952 328.576 13.43 328.576 12.782C328.576 12.254 328.732 11.774 329.044 11.342C329.356 10.898 329.8 10.55 330.376 10.298C330.964 10.046 331.636 9.92 332.392 9.92C333.52 9.92 334.426 10.208 335.11 10.784C335.806 11.348 336.178 12.122 336.226 13.106H334.174C334.138 12.662 333.958 12.308 333.634 12.044C333.31 11.78 332.872 11.648 332.32 11.648C331.78 11.648 331.366 11.75 331.078 11.954C330.79 12.158 330.646 12.428 330.646 12.764C330.646 13.028 330.742 13.25 330.934 13.43C331.126 13.61 331.36 13.754 331.636 13.862C331.912 13.958 332.32 14.084 332.86 14.24C333.58 14.432 334.168 14.63 334.624 14.834C335.092 15.026 335.494 15.314 335.83 15.698C336.166 16.082 336.34 16.592 336.352 17.228C336.352 17.792 336.196 18.296 335.884 18.74C335.572 19.184 335.128 19.532 334.552 19.784C333.988 20.036 333.322 20.162 332.554 20.162ZM345.639 11.756V17.246C345.639 17.618 345.723 17.888 345.891 18.056C346.071 18.212 346.371 18.29 346.791 18.29H348.051V20H346.431C345.507 20 344.799 19.784 344.307 19.352C343.815 18.92 343.569 18.218 343.569 17.246V11.756H342.399V10.082H343.569V7.616H345.639V10.082H348.051V11.756H345.639ZM351.994 11.522C352.294 11.018 352.69 10.628 353.182 10.352C353.686 10.064 354.28 9.92 354.964 9.92V12.044H354.442C353.638 12.044 353.026 12.248 352.606 12.656C352.198 13.064 351.994 13.772 351.994 14.78V20H349.942V10.082H351.994V11.522ZM356.166 14.996C356.166 14 356.37 13.118 356.778 12.35C357.198 11.582 357.762 10.988 358.47 10.568C359.19 10.136 359.982 9.92 360.846 9.92C361.626 9.92 362.304 10.076 362.88 10.388C363.468 10.688 363.936 11.066 364.284 11.522V10.082H366.354V20H364.284V18.524C363.936 18.992 363.462 19.382 362.862 19.694C362.262 20.006 361.578 20.162 360.81 20.162C359.958 20.162 359.178 19.946 358.47 19.514C357.762 19.07 357.198 18.458 356.778 17.678C356.37 16.886 356.166 15.992 356.166 14.996ZM364.284 15.032C364.284 14.348 364.14 13.754 363.852 13.25C363.576 12.746 363.21 12.362 362.754 12.098C362.298 11.834 361.806 11.702 361.278 11.702C360.75 11.702 360.258 11.834 359.802 12.098C359.346 12.35 358.974 12.728 358.686 13.232C358.41 13.724 358.272 14.312 358.272 14.996C358.272 15.68 358.41 16.28 358.686 16.796C358.974 17.312 359.346 17.708 359.802 17.984C360.27 18.248 360.762 18.38 361.278 18.38C361.806 18.38 362.298 18.248 362.754 17.984C363.21 17.72 363.576 17.336 363.852 16.832C364.14 16.316 364.284 15.716 364.284 15.032ZM374.053 9.92C374.833 9.92 375.529 10.082 376.141 10.406C376.765 10.73 377.251 11.21 377.599 11.846C377.947 12.482 378.121 13.25 378.121 14.15V20H376.087V14.456C376.087 13.568 375.865 12.89 375.421 12.422C374.977 11.942 374.371 11.702 373.603 11.702C372.835 11.702 372.223 11.942 371.767 12.422C371.323 12.89 371.101 13.568 371.101 14.456V20H369.049V10.082H371.101V11.216C371.437 10.808 371.863 10.49 372.379 10.262C372.907 10.034 373.465 9.92 374.053 9.92ZM384.339 20.162C383.559 20.162 382.857 20.024 382.233 19.748C381.621 19.46 381.135 19.076 380.775 18.596C380.415 18.104 380.223 17.558 380.199 16.958H382.323C382.359 17.378 382.557 17.732 382.917 18.02C383.289 18.296 383.751 18.434 384.303 18.434C384.879 18.434 385.323 18.326 385.635 18.11C385.959 17.882 386.121 17.594 386.121 17.246C386.121 16.874 385.941 16.598 385.581 16.418C385.233 16.238 384.675 16.04 383.907 15.824C383.163 15.62 382.557 15.422 382.089 15.23C381.621 15.038 381.213 14.744 380.865 14.348C380.529 13.952 380.361 13.43 380.361 12.782C380.361 12.254 380.517 11.774 380.829 11.342C381.141 10.898 381.585 10.55 382.161 10.298C382.749 10.046 383.421 9.92 384.177 9.92C385.305 9.92 386.211 10.208 386.895 10.784C387.591 11.348 387.963 12.122 388.011 13.106H385.959C385.923 12.662 385.743 12.308 385.419 12.044C385.095 11.78 384.657 11.648 384.105 11.648C383.565 11.648 383.151 11.75 382.863 11.954C382.575 12.158 382.431 12.428 382.431 12.764C382.431 13.028 382.527 13.25 382.719 13.43C382.911 13.61 383.145 13.754 383.421 13.862C383.697 13.958 384.105 14.084 384.645 14.24C385.365 14.432 385.953 14.63 386.409 14.834C386.877 15.026 387.279 15.314 387.615 15.698C387.951 16.082 388.125 16.592 388.137 17.228C388.137 17.792 387.981 18.296 387.669 18.74C387.357 19.184 386.913 19.532 386.337 19.784C385.773 20.036 385.107 20.162 384.339 20.162ZM394.512 11.756H392.676V20H390.606V11.756H389.436V10.082H390.606V9.38C390.606 8.24 390.906 7.412 391.506 6.896C392.118 6.368 393.072 6.104 394.368 6.104V7.814C393.744 7.814 393.306 7.934 393.054 8.174C392.802 8.402 392.676 8.804 392.676 9.38V10.082H394.512V11.756ZM405.42 14.798C405.42 15.17 405.396 15.506 405.348 15.806H397.77C397.83 16.598 398.124 17.234 398.652 17.714C399.18 18.194 399.828 18.434 400.596 18.434C401.7 18.434 402.48 17.972 402.936 17.048H405.15C404.85 17.96 404.304 18.71 403.512 19.298C402.732 19.874 401.76 20.162 400.596 20.162C399.648 20.162 398.796 19.952 398.04 19.532C397.296 19.1 396.708 18.5 396.276 17.732C395.856 16.952 395.646 16.052 395.646 15.032C395.646 14.012 395.85 13.118 396.258 12.35C396.678 11.57 397.26 10.97 398.004 10.55C398.76 10.13 399.624 9.92 400.596 9.92C401.532 9.92 402.366 10.124 403.098 10.532C403.83 10.94 404.4 11.516 404.808 12.26C405.216 12.992 405.42 13.838 405.42 14.798ZM403.278 14.15C403.266 13.394 402.996 12.788 402.468 12.332C401.94 11.876 401.286 11.648 400.506 11.648C399.798 11.648 399.192 11.876 398.688 12.332C398.184 12.776 397.884 13.382 397.788 14.15H403.278ZM409.492 11.522C409.792 11.018 410.188 10.628 410.68 10.352C411.184 10.064 411.778 9.92 412.462 9.92V12.044H411.94C411.136 12.044 410.524 12.248 410.104 12.656C409.696 13.064 409.492 13.772 409.492 14.78V20H407.44V10.082H409.492V11.522ZM416.4 11.522C416.7 11.018 417.096 10.628 417.588 10.352C418.092 10.064 418.686 9.92 419.37 9.92V12.044H418.848C418.044 12.044 417.432 12.248 417.012 12.656C416.604 13.064 416.4 13.772 416.4 14.78V20H414.348V10.082H416.4V11.522ZM430.346 14.798C430.346 15.17 430.322 15.506 430.274 15.806H422.696C422.756 16.598 423.05 17.234 423.578 17.714C424.106 18.194 424.754 18.434 425.522 18.434C426.626 18.434 427.406 17.972 427.862 17.048H430.076C429.776 17.96 429.23 18.71 428.438 19.298C427.658 19.874 426.686 20.162 425.522 20.162C424.574 20.162 423.722 19.952 422.966 19.532C422.222 19.1 421.634 18.5 421.202 17.732C420.782 16.952 420.572 16.052 420.572 15.032C420.572 14.012 420.776 13.118 421.184 12.35C421.604 11.57 422.186 10.97 422.93 10.55C423.686 10.13 424.55 9.92 425.522 9.92C426.458 9.92 427.292 10.124 428.024 10.532C428.756 10.94 429.326 11.516 429.734 12.26C430.142 12.992 430.346 13.838 430.346 14.798ZM428.204 14.15C428.192 13.394 427.922 12.788 427.394 12.332C426.866 11.876 426.212 11.648 425.432 11.648C424.724 11.648 424.118 11.876 423.614 12.332C423.11 12.776 422.81 13.382 422.714 14.15H428.204ZM431.682 14.996C431.682 14 431.886 13.118 432.294 12.35C432.714 11.582 433.278 10.988 433.986 10.568C434.706 10.136 435.504 9.92 436.38 9.92C437.028 9.92 437.664 10.064 438.288 10.352C438.924 10.628 439.428 11 439.8 11.468V6.68H441.87V20H439.8V18.506C439.464 18.986 438.996 19.382 438.396 19.694C437.808 20.006 437.13 20.162 436.362 20.162C435.498 20.162 434.706 19.946 433.986 19.514C433.278 19.07 432.714 18.458 432.294 17.678C431.886 16.886 431.682 15.992 431.682 14.996ZM439.8 15.032C439.8 14.348 439.656 13.754 439.368 13.25C439.092 12.746 438.726 12.362 438.27 12.098C437.814 11.834 437.322 11.702 436.794 11.702C436.266 11.702 435.774 11.834 435.318 12.098C434.862 12.35 434.49 12.728 434.202 13.232C433.926 13.724 433.788 14.312 433.788 14.996C433.788 15.68 433.926 16.28 434.202 16.796C434.49 17.312 434.862 17.708 435.318 17.984C435.786 18.248 436.278 18.38 436.794 18.38C437.322 18.38 437.814 18.248 438.27 17.984C438.726 17.72 439.092 17.336 439.368 16.832C439.656 16.316 439.8 15.716 439.8 15.032ZM451.635 11.756V17.246C451.635 17.618 451.719 17.888 451.887 18.056C452.067 18.212 452.367 18.29 452.787 18.29H454.047V20H452.427C451.503 20 450.795 19.784 450.303 19.352C449.811 18.92 449.565 18.218 449.565 17.246V11.756H448.395V10.082H449.565V7.616H451.635V10.082H454.047V11.756H451.635ZM460.24 20.162C459.304 20.162 458.458 19.952 457.702 19.532C456.946 19.1 456.352 18.5 455.92 17.732C455.488 16.952 455.272 16.052 455.272 15.032C455.272 14.024 455.494 13.13 455.938 12.35C456.382 11.57 456.988 10.97 457.756 10.55C458.524 10.13 459.382 9.92 460.33 9.92C461.278 9.92 462.136 10.13 462.904 10.55C463.672 10.97 464.278 11.57 464.722 12.35C465.166 13.13 465.388 14.024 465.388 15.032C465.388 16.04 465.16 16.934 464.704 17.714C464.248 18.494 463.624 19.1 462.832 19.532C462.052 19.952 461.188 20.162 460.24 20.162ZM460.24 18.38C460.768 18.38 461.26 18.254 461.716 18.002C462.184 17.75 462.562 17.372 462.85 16.868C463.138 16.364 463.282 15.752 463.282 15.032C463.282 14.312 463.144 13.706 462.868 13.214C462.592 12.71 462.226 12.332 461.77 12.08C461.314 11.828 460.822 11.702 460.294 11.702C459.766 11.702 459.274 11.828 458.818 12.08C458.374 12.332 458.02 12.71 457.756 13.214C457.492 13.706 457.36 14.312 457.36 15.032C457.36 16.1 457.63 16.928 458.17 17.516C458.722 18.092 459.412 18.38 460.24 18.38ZM473.136 8.768C472.764 8.768 472.452 8.642 472.2 8.39C471.948 8.138 471.822 7.826 471.822 7.454C471.822 7.082 471.948 6.77 472.2 6.518C472.452 6.266 472.764 6.14 473.136 6.14C473.496 6.14 473.802 6.266 474.054 6.518C474.306 6.77 474.432 7.082 474.432 7.454C474.432 7.826 474.306 8.138 474.054 8.39C473.802 8.642 473.496 8.768 473.136 8.768ZM474.144 10.082V20H472.092V10.082H474.144ZM479.232 11.756V17.246C479.232 17.618 479.316 17.888 479.484 18.056C479.664 18.212 479.964 18.29 480.384 18.29H481.644V20H480.024C479.1 20 478.392 19.784 477.9 19.352C477.408 18.92 477.162 18.218 477.162 17.246V11.756H475.992V10.082H477.162V7.616H479.232V10.082H481.644V11.756H479.232ZM486.902 7.31C488.126 7.31 489.104 7.646 489.836 8.318C490.58 8.99 490.952 9.908 490.952 11.072C490.952 12.284 490.568 13.196 489.8 13.808C489.032 14.42 488.012 14.726 486.74 14.726L486.668 16.148H484.886L484.796 13.322H485.39C486.554 13.322 487.442 13.166 488.054 12.854C488.678 12.542 488.99 11.948 488.99 11.072C488.99 10.436 488.804 9.938 488.432 9.578C488.072 9.218 487.568 9.038 486.92 9.038C486.272 9.038 485.762 9.212 485.39 9.56C485.018 9.908 484.832 10.394 484.832 11.018H482.906C482.906 10.298 483.068 9.656 483.392 9.092C483.716 8.528 484.178 8.09 484.778 7.778C485.39 7.466 486.098 7.31 486.902 7.31ZM485.75 20.126C485.378 20.126 485.066 20 484.814 19.748C484.562 19.496 484.436 19.184 484.436 18.812C484.436 18.44 484.562 18.128 484.814 17.876C485.066 17.624 485.378 17.498 485.75 17.498C486.11 17.498 486.416 17.624 486.668 17.876C486.92 18.128 487.046 18.44 487.046 18.812C487.046 19.184 486.92 19.496 486.668 19.748C486.416 20 486.11 20.126 485.75 20.126Z" fill="#020617"/>
<path d="M933 14H947" stroke="#020E6A" stroke-width="2" stroke-linecap="round" stroke-linejoin="round"/>
<path d="M933 14H947" stroke="#020E6A" stroke-width="2" stroke-linecap="round" stroke-linejoin="round"/>
</svg>
