<svg preserveAspectRatio="none" width="100%" height="100%" overflow="visible" style="display: block;" viewBox="0 0 25 10" fill="none" xmlns="http://www.w3.org/2000/svg">
<g id="image" clip-path="url(#clip0_0_58)">
<path id="Vector" d="M0 5C0 3.67392 0.526784 2.40215 1.46447 1.46447C2.40215 0.526784 3.67392 0 5 0C6.10891 0.0134615 7.18354 0.386258 8.06256 1.06242C8.94157 1.73859 9.57755 2.68164 9.875 3.75H23.75C24.0721 3.77816 24.3739 3.9189 24.6025 4.1475C24.8311 4.3761 24.9718 4.67794 25 5C24.9718 5.32206 24.8311 5.6239 24.6025 5.8525C24.3739 6.0811 24.0721 6.22184 23.75 6.25H9.875C9.57755 7.31836 8.94157 8.26141 8.06256 8.93758C7.18354 9.61374 6.10891 9.98654 5 10C3.67392 10 2.40215 9.47322 1.46447 8.53553C0.526784 7.59785 0 6.32608 0 5Z" fill="var(--fill-0, black)"/>
</g>
<defs>
<clipPath id="clip0_0_58">
<rect width="25" height="10" fill="white"/>
</clipPath>
</defs>
</svg>
