<svg preserveAspectRatio="none" width="100%" height="100%" overflow="visible" style="display: block;" viewBox="0 0 2046.47 931.471" fill="none" xmlns="http://www.w3.org/2000/svg">
<g id="Vector" opacity="0.5" style="mix-blend-mode:exclusion">
<path d="M46.7383 0.235512H0.235512V46.7852M46.7383 0.235512V46.7852M46.7383 0.235512H93.2395M0.235512 46.7852H46.7383M0.235512 46.7852L0.237078 93.3365M46.7383 46.7852L46.7367 93.3365M46.7383 46.7852H93.2379M93.2395 0.235512L93.2379 46.7852M93.2395 0.235512H139.739M46.7367 93.3365H0.237078M46.7367 93.3365V139.886M46.7367 93.3365H93.2379M93.2379 46.7852V93.3365M93.2379 46.7852H139.738M0.237078 93.3365V139.886M46.7367 139.886H0.237078M46.7367 139.886V186.436M46.7367 139.886H93.2379M93.2379 93.3365V139.886M93.2379 93.3365H139.738M0.237078 139.886V186.436M46.7367 186.436H0.237078M46.7367 186.436V232.985M46.7367 186.436H93.2379M93.2379 139.886V186.436M93.2379 139.886H139.738M0.237078 186.436V232.985M46.7367 232.985H0.237078M46.7367 232.985V279.535M46.7367 232.985H93.2379M93.2379 186.436V232.985M93.2379 186.436H139.738M0.237078 232.985V279.535M46.7367 279.535H0.237078M46.7367 279.535V326.086M46.7367 279.535H93.2379M93.2379 232.985V279.535M93.2379 232.985H139.738M0.237078 279.535V326.086M46.7367 326.086H0.237078M46.7367 326.086V372.636M46.7367 326.086H93.2379M93.2379 279.535V326.086M93.2379 279.535H139.738M0.237078 326.086V372.636M46.7367 372.636H0.237078M46.7367 372.636V419.186M46.7367 372.636H93.2379M93.2379 326.086V372.636M93.2379 326.086H139.738M0.237078 372.636V419.186M46.7367 419.186H0.237078M46.7367 419.186V465.735M46.7367 419.186H93.2379M93.2379 372.636V419.186M93.2379 372.636H139.738M0.237078 419.186V465.735M46.7367 465.735H0.237078M46.7367 465.735V512.287M46.7367 465.735H93.2379M93.2379 419.186V465.735M93.2379 419.186H139.738M0.237078 465.735V512.287M46.7367 512.287H0.237078M46.7367 512.287V558.836M46.7367 512.287H93.2379M93.2379 465.735V512.287M93.2379 465.735H139.738M0.237078 512.287V558.836M46.7367 558.836H0.237078M46.7367 558.836V605.386M46.7367 558.836H93.2379M93.2379 512.287V558.836M93.2379 512.287H139.738M0.237078 558.836V605.386M46.7367 605.386H0.237078M46.7367 605.386V651.936M46.7367 605.386H93.2379M93.2379 558.836V605.386M93.2379 558.836H139.738M0.237078 605.386V651.936M46.7367 651.936H0.237078M46.7367 651.936V698.485M46.7367 651.936H93.2379M93.2379 605.386V651.936M93.2379 605.386H139.738M0.237078 651.936V698.485M46.7367 698.485H0.237078M46.7367 698.485V745.037M46.7367 698.485H93.2379M93.2379 651.936V698.485M93.2379 651.936H139.738M0.237078 698.485V745.037M46.7367 745.037H0.237078M46.7367 745.037V791.586M46.7367 745.037H93.2379M93.2379 698.485V745.037M93.2379 698.485H139.738M0.237078 745.037V791.586M46.7367 791.586H0.237078M46.7367 791.586V838.136M46.7367 791.586H93.2379M93.2379 745.037V791.586M93.2379 745.037H139.738M0.237078 791.586V838.136M46.7367 838.136H0.237078M46.7367 838.136V884.686M46.7367 838.136H93.2379M93.2379 791.586V838.136M93.2379 791.586H139.738M0.237078 838.136V884.686M46.7367 884.686H0.237078M46.7367 884.686V931.236M46.7367 884.686H93.2379M93.2379 838.136V884.686M93.2379 838.136H139.738M0.237078 884.686V931.236H46.7367M46.7367 931.236H93.2395M93.2379 884.686L93.2395 931.236M93.2379 884.686H139.738M93.2395 931.236H139.738M139.739 0.235512L139.738 46.7852M139.739 0.235512H186.237M139.738 46.7852V93.3365M139.738 46.7852H186.237M139.738 93.3365V139.886M139.738 93.3365H186.237M139.738 139.886V186.436M139.738 139.886H186.237M139.738 186.436V232.985M139.738 186.436H186.237M139.738 232.985V279.535M139.738 232.985H186.237M139.738 279.535V326.086M139.738 279.535H186.237M139.738 326.086V372.636M139.738 326.086H186.237M139.738 372.636V419.186M139.738 372.636H186.237M139.738 419.186V465.735M139.738 419.186H186.237M139.738 465.735V512.287M139.738 465.735H186.237M139.738 512.287V558.836M139.738 512.287H186.237M139.738 558.836V605.386M139.738 558.836H186.237M139.738 605.386V651.936M139.738 605.386H186.237M139.738 651.936V698.485M139.738 651.936H186.237M139.738 698.485V745.037M139.738 698.485H186.237M139.738 745.037V791.586M139.738 745.037H186.237M139.738 791.586V838.136M139.738 791.586H186.237M139.738 838.136V884.686M139.738 838.136H186.237M139.738 884.686V931.236M139.738 884.686H186.237M139.738 931.236H186.237M186.237 0.235512V46.7852M186.237 0.235512H232.737M186.237 46.7852V93.3365M186.237 46.7852H232.737M186.237 93.3365V139.886M186.237 93.3365H232.737M186.237 139.886V186.436M186.237 139.886H232.737M186.237 186.436V232.985M186.237 186.436H232.737M186.237 232.985V279.535M186.237 232.985H232.737M186.237 279.535V326.086M186.237 279.535H232.737M186.237 326.086V372.636M186.237 326.086H232.737M186.237 372.636V419.186M186.237 372.636H232.737M186.237 419.186V465.735M186.237 419.186H232.737M186.237 465.735V512.287M186.237 465.735H232.737M186.237 512.287V558.836M186.237 512.287H232.737M186.237 558.836V605.386M186.237 558.836H232.737M186.237 605.386V651.936M186.237 605.386H232.737M186.237 651.936V698.485M186.237 651.936H232.737M186.237 698.485V745.037M186.237 698.485H232.737M186.237 745.037V791.586M186.237 745.037H232.737M186.237 791.586V838.136M186.237 791.586H232.737M186.237 838.136V884.686M186.237 838.136H232.737M186.237 884.686V931.236M186.237 884.686H232.737M186.237 931.236H232.737M232.737 0.235512V46.7852M232.737 0.235512H279.236M232.737 46.7852V93.3365M232.737 46.7852H279.236M232.737 93.3365V139.886M232.737 93.3365H279.236M232.737 139.886V186.436M232.737 139.886H279.236M232.737 186.436V232.985M232.737 186.436H279.236M232.737 232.985V279.535M232.737 232.985H279.236M232.737 279.535V326.086M232.737 279.535H279.236M232.737 326.086V372.636M232.737 326.086H279.236M232.737 372.636V419.186M232.737 372.636H279.236M232.737 419.186V465.735M232.737 419.186H279.236M232.737 465.735V512.287M232.737 465.735H279.236M232.737 512.287V558.836M232.737 512.287H279.236M232.737 558.836V605.386M232.737 558.836H279.236M232.737 605.386V651.936M232.737 605.386H279.236M232.737 651.936V698.485M232.737 651.936H279.236M232.737 698.485V745.037M232.737 698.485H279.236M232.737 745.037V791.586M232.737 745.037H279.236M232.737 791.586V838.136M232.737 791.586H279.236M232.737 838.136V884.686M232.737 838.136H279.236M232.737 884.686V931.236M232.737 884.686H279.236M232.737 931.236H279.236M279.236 0.235512V46.7852M279.236 0.235512H325.738M279.236 46.7852V93.3365M279.236 46.7852H325.738M279.236 93.3365V139.886M279.236 93.3365H325.738M279.236 139.886V186.436M279.236 139.886H325.738M279.236 186.436V232.985M279.236 186.436H325.738M279.236 232.985V279.535M279.236 232.985H325.738M279.236 279.535V326.086M279.236 279.535H325.738M279.236 326.086V372.636M279.236 326.086H325.738M279.236 372.636V419.186M279.236 372.636H325.738M279.236 419.186V465.735M279.236 419.186H325.738M279.236 465.735V512.287M279.236 465.735H325.738M279.236 512.287V558.836M279.236 512.287H325.738M279.236 558.836V605.386M279.236 558.836H325.738M279.236 605.386V651.936M279.236 605.386H325.738M279.236 651.936V698.485M279.236 651.936H325.738M279.236 698.485V745.037M279.236 698.485H325.738M279.236 745.037V791.586M279.236 745.037H325.738M279.236 791.586V838.136M279.236 791.586H325.738M279.236 838.136V884.686M279.236 838.136H325.738M279.236 884.686V931.236M279.236 884.686H325.738M279.236 931.236H325.738M325.738 0.235512V46.7852M325.738 0.235512H372.237M325.738 46.7852V93.3365M325.738 46.7852H372.237M325.738 93.3365V139.886M325.738 93.3365H372.237M325.738 139.886V186.436M325.738 139.886H372.237M325.738 186.436V232.985M325.738 186.436H372.237M325.738 232.985V279.535M325.738 232.985H372.237M325.738 279.535V326.086M325.738 279.535H372.237M325.738 326.086V372.636M325.738 326.086H372.237M325.738 372.636V419.186M325.738 372.636H372.237M325.738 419.186V465.735M325.738 419.186H372.237M325.738 465.735V512.287M325.738 465.735H372.237M325.738 512.287V558.836M325.738 512.287H372.237M325.738 558.836V605.386M325.738 558.836H372.237M325.738 605.386V651.936M325.738 605.386H372.237M325.738 651.936V698.485M325.738 651.936H372.237M325.738 698.485V745.037M325.738 698.485H372.237M325.738 745.037V791.586M325.738 745.037H372.237M325.738 791.586V838.136M325.738 791.586H372.237M325.738 838.136V884.686M325.738 838.136H372.237M325.738 884.686V931.236M325.738 884.686H372.237M325.738 931.236H372.237M372.237 0.235512V46.7852M372.237 0.235512H418.737M372.237 46.7852V93.3365M372.237 46.7852H418.737M372.237 93.3365V139.886M372.237 93.3365H418.737M372.237 139.886V186.436M372.237 139.886H418.737M372.237 186.436V232.985M372.237 186.436H418.737M372.237 232.985V279.535M372.237 232.985H418.737M372.237 279.535V326.086M372.237 279.535H418.737M372.237 326.086V372.636M372.237 326.086H418.737M372.237 372.636V419.186M372.237 372.636H418.737M372.237 419.186V465.735M372.237 419.186H418.737M372.237 465.735V512.287M372.237 465.735H418.737M372.237 512.287V558.836M372.237 512.287H418.737M372.237 558.836V605.386M372.237 558.836H418.737M372.237 605.386V651.936M372.237 605.386H418.737M372.237 651.936V698.485M372.237 651.936H418.737M372.237 698.485V745.037M372.237 698.485H418.737M372.237 745.037V791.586M372.237 745.037H418.737M372.237 791.586V838.136M372.237 791.586H418.737M372.237 838.136V884.686M372.237 838.136H418.737M372.237 884.686V931.236M372.237 884.686H418.737M372.237 931.236H418.737M418.737 0.235512V46.7852M418.737 0.235512H465.237M418.737 46.7852V93.3365M418.737 46.7852H465.237M418.737 93.3365V139.886M418.737 93.3365H465.237M418.737 139.886V186.436M418.737 139.886H465.237M418.737 186.436V232.985M418.737 186.436H465.237M418.737 232.985V279.535M418.737 232.985H465.237M418.737 279.535V326.086M418.737 279.535H465.237M418.737 326.086V372.636M418.737 326.086H465.237M418.737 372.636V419.186M418.737 372.636H465.237M418.737 419.186V465.735M418.737 419.186H465.237M418.737 465.735V512.287M418.737 465.735H465.237M418.737 512.287V558.836M418.737 512.287H465.237M418.737 558.836V605.386M418.737 558.836H465.237M418.737 605.386V651.936M418.737 605.386H465.237M418.737 651.936V698.485M418.737 651.936H465.237M418.737 698.485V745.037M418.737 698.485H465.237M418.737 745.037V791.586M418.737 745.037H465.237M418.737 791.586V838.136M418.737 791.586H465.237M418.737 838.136V884.686M418.737 838.136H465.237M418.737 884.686V931.236M418.737 884.686H465.237M418.737 931.236H465.237M465.237 0.235512V46.7852M465.237 0.235512H511.736M465.237 46.7852V93.3365M465.237 46.7852H511.736M465.237 93.3365V139.886M465.237 93.3365H511.736M465.237 139.886V186.436M465.237 139.886H511.736M465.237 186.436V232.985M465.237 186.436H511.736M465.237 232.985V279.535M465.237 232.985H511.736M465.237 279.535V326.086M465.237 279.535H511.736M465.237 326.086V372.636M465.237 326.086H511.736M465.237 372.636V419.186M465.237 372.636H511.736M465.237 419.186V465.735M465.237 419.186H511.736M465.237 465.735V512.287M465.237 465.735H511.736M465.237 512.287V558.836M465.237 512.287H511.736M465.237 558.836V605.386M465.237 558.836H511.736M465.237 605.386V651.936M465.237 605.386H511.736M465.237 651.936V698.485M465.237 651.936H511.736M465.237 698.485V745.037M465.237 698.485H511.736M465.237 745.037V791.586M465.237 745.037H511.736M465.237 791.586V838.136M465.237 791.586H511.736M465.237 838.136V884.686M465.237 838.136H511.736M465.237 884.686V931.236M465.237 884.686H511.736M465.237 931.236H511.736M511.736 0.235512V46.7852M511.736 0.235512H558.238M511.736 46.7852V93.3365M511.736 46.7852H558.238M511.736 93.3365V139.886M511.736 93.3365H558.238M511.736 139.886V186.436M511.736 139.886H558.238M511.736 186.436V232.985M511.736 186.436H558.238M511.736 232.985V279.535M511.736 232.985H558.238M511.736 279.535V326.086M511.736 279.535H558.238M511.736 326.086V372.636M511.736 326.086H558.238M511.736 372.636V419.186M511.736 372.636H558.238M511.736 419.186V465.735M511.736 419.186H558.238M511.736 465.735V512.287M511.736 465.735H558.238M511.736 512.287V558.836M511.736 512.287H558.238M511.736 558.836V605.386M511.736 558.836H558.238M511.736 605.386V651.936M511.736 605.386H558.238M511.736 651.936V698.485M511.736 651.936H558.238M511.736 698.485V745.037M511.736 698.485H558.238M511.736 745.037V791.586M511.736 745.037H558.238M511.736 791.586V838.136M511.736 791.586H558.238M511.736 838.136V884.686M511.736 838.136H558.238M511.736 884.686V931.236M511.736 884.686H558.238M511.736 931.236H558.238M558.238 0.235512V46.7852M558.238 0.235512H604.737M558.238 46.7852V93.3365M558.238 46.7852H604.737M558.238 93.3365V139.886M558.238 93.3365H604.737M558.238 139.886V186.436M558.238 139.886H604.737M558.238 186.436V232.985M558.238 186.436H604.737M558.238 232.985V279.535M558.238 232.985H604.737M558.238 279.535V326.086M558.238 279.535H604.737M558.238 326.086V372.636M558.238 326.086H604.737M558.238 372.636V419.186M558.238 372.636H604.737M558.238 419.186V465.735M558.238 419.186H604.737M558.238 465.735V512.287M558.238 465.735H604.737M558.238 512.287V558.836M558.238 512.287H604.737M558.238 558.836V605.386M558.238 558.836H604.737M558.238 605.386V651.936M558.238 605.386H604.737M558.238 651.936V698.485M558.238 651.936H604.737M558.238 698.485V745.037M558.238 698.485H604.737M558.238 745.037V791.586M558.238 745.037H604.737M558.238 791.586V838.136M558.238 791.586H604.737M558.238 838.136V884.686M558.238 838.136H604.737M558.238 884.686V931.236M558.238 884.686H604.737M558.238 931.236H604.737M604.737 0.235512V46.7852M604.737 0.235512H651.237M604.737 46.7852V93.3365M604.737 46.7852H651.237M604.737 93.3365V139.886M604.737 93.3365H651.237M604.737 139.886V186.436M604.737 139.886H651.237M604.737 186.436V232.985M604.737 186.436H651.237M604.737 232.985V279.535M604.737 232.985H651.237M604.737 279.535V326.086M604.737 279.535H651.237M604.737 326.086V372.636M604.737 326.086H651.237M604.737 372.636V419.186M604.737 372.636H651.237M604.737 419.186V465.735M604.737 419.186H651.237M604.737 465.735V512.287M604.737 465.735H651.237M604.737 512.287V558.836M604.737 512.287H651.237M604.737 558.836V605.386M604.737 558.836H651.237M604.737 605.386V651.936M604.737 605.386H651.237M604.737 651.936V698.485M604.737 651.936H651.237M604.737 698.485V745.037M604.737 698.485H651.237M604.737 745.037V791.586M604.737 745.037H651.237M604.737 791.586V838.136M604.737 791.586H651.237M604.737 838.136V884.686M604.737 838.136H651.237M604.737 884.686V931.236M604.737 884.686H651.237M604.737 931.236H651.237M651.237 0.235512V46.7852M651.237 0.235512H697.736M651.237 46.7852V93.3365M651.237 46.7852H697.736M651.237 93.3365V139.886M651.237 93.3365H697.736M651.237 139.886V186.436M651.237 139.886H697.736M651.237 186.436V232.985M651.237 186.436H697.736M651.237 232.985V279.535M651.237 232.985H697.736M651.237 279.535V326.086M651.237 279.535H697.736M651.237 326.086V372.636M651.237 326.086H697.736M651.237 372.636V419.186M651.237 372.636H697.736M651.237 419.186V465.735M651.237 419.186H697.736M651.237 465.735V512.287M651.237 465.735H697.736M651.237 512.287V558.836M651.237 512.287H697.736M651.237 558.836V605.386M651.237 558.836H697.736M651.237 605.386V651.936M651.237 605.386H697.736M651.237 651.936V698.485M651.237 651.936H697.736M651.237 698.485V745.037M651.237 698.485H697.736M651.237 745.037V791.586M651.237 745.037H697.736M651.237 791.586V838.136M651.237 791.586H697.736M651.237 838.136V884.686M651.237 838.136H697.736M651.237 884.686V931.236M651.237 884.686H697.736M651.237 931.236H697.736M697.736 0.235512V46.7852M697.736 0.235512H744.238M697.736 46.7852V93.3365M697.736 46.7852H744.238M697.736 93.3365V139.886M697.736 93.3365H744.238M697.736 139.886V186.436M697.736 139.886H744.238M697.736 186.436V232.985M697.736 186.436H744.238M697.736 232.985V279.535M697.736 232.985H744.238M697.736 279.535V326.086M697.736 279.535H744.238M697.736 326.086V372.636M697.736 326.086H744.238M697.736 372.636V419.186M697.736 372.636H744.238M697.736 419.186V465.735M697.736 419.186H744.238M697.736 465.735V512.287M697.736 465.735H744.238M697.736 512.287V558.836M697.736 512.287H744.238M697.736 558.836V605.386M697.736 558.836H744.238M697.736 605.386V651.936M697.736 605.386H744.238M697.736 651.936V698.485M697.736 651.936H744.238M697.736 698.485V745.037M697.736 698.485H744.238M697.736 745.037V791.586M697.736 745.037H744.238M697.736 791.586V838.136M697.736 791.586H744.238M697.736 838.136V884.686M697.736 838.136H744.238M697.736 884.686V931.236M697.736 884.686H744.238M697.736 931.236H744.238M744.238 0.235512V46.7852M744.238 0.235512H790.737M744.238 46.7852V93.3365M744.238 46.7852H790.737M744.238 93.3365V139.886M744.238 93.3365H790.737M744.238 139.886V186.436M744.238 139.886H790.737M744.238 186.436V232.985M744.238 186.436H790.737M744.238 232.985V279.535M744.238 232.985H790.737M744.238 279.535V326.086M744.238 279.535H790.737M744.238 326.086V372.636M744.238 326.086H790.737M744.238 372.636V419.186M744.238 372.636H790.737M744.238 419.186V465.735M744.238 419.186H790.737M744.238 465.735V512.287M744.238 465.735H790.737M744.238 512.287V558.836M744.238 512.287H790.737M744.238 558.836V605.386M744.238 558.836H790.737M744.238 605.386V651.936M744.238 605.386H790.737M744.238 651.936V698.485M744.238 651.936H790.737M744.238 698.485V745.037M744.238 698.485H790.737M744.238 745.037V791.586M744.238 745.037H790.737M744.238 791.586V838.136M744.238 791.586H790.737M744.238 838.136V884.686M744.238 838.136H790.737M744.238 884.686V931.236M744.238 884.686H790.737M744.238 931.236H790.737M790.737 0.235512V46.7852M790.737 0.235512H837.237M790.737 46.7852V93.3365M790.737 46.7852H837.237M790.737 93.3365V139.886M790.737 93.3365H837.237M790.737 139.886V186.436M790.737 139.886H837.237M790.737 186.436V232.985M790.737 186.436H837.237M790.737 232.985V279.535M790.737 232.985H837.237M790.737 279.535V326.086M790.737 279.535H837.237M790.737 326.086V372.636M790.737 326.086H837.237M790.737 372.636V419.186M790.737 372.636H837.237M790.737 419.186V465.735M790.737 419.186H837.237M790.737 465.735V512.287M790.737 465.735H837.237M790.737 512.287V558.836M790.737 512.287H837.237M790.737 558.836V605.386M790.737 558.836H837.237M790.737 605.386V651.936M790.737 605.386H837.237M790.737 651.936V698.485M790.737 651.936H837.237M790.737 698.485V745.037M790.737 698.485H837.237M790.737 745.037V791.586M790.737 745.037H837.237M790.737 791.586V838.136M790.737 791.586H837.237M790.737 838.136V884.686M790.737 838.136H837.237M790.737 884.686V931.236M790.737 884.686H837.237M790.737 931.236H837.237M837.237 0.235512V46.7852M837.237 0.235512H883.737M837.237 46.7852V93.3365M837.237 46.7852H883.737M837.237 93.3365V139.886M837.237 93.3365H883.737M837.237 139.886V186.436M837.237 139.886H883.737M837.237 186.436V232.985M837.237 186.436H883.737M837.237 232.985V279.535M837.237 232.985H883.737M837.237 279.535V326.086M837.237 279.535H883.737M837.237 326.086V372.636M837.237 326.086H883.737M837.237 372.636V419.186M837.237 372.636H883.737M837.237 419.186V465.735M837.237 419.186H883.737M837.237 465.735V512.287M837.237 465.735H883.737M837.237 512.287V558.836M837.237 512.287H883.737M837.237 558.836V605.386M837.237 558.836H883.737M837.237 605.386V651.936M837.237 605.386H883.737M837.237 651.936V698.485M837.237 651.936H883.737M837.237 698.485V745.037M837.237 698.485H883.737M837.237 745.037V791.586M837.237 745.037H883.737M837.237 791.586V838.136M837.237 791.586H883.737M837.237 838.136V884.686M837.237 838.136H883.737M837.237 884.686V931.236M837.237 884.686H883.737M837.237 931.236H883.737M883.737 0.235512V46.7852M883.737 0.235512H930.236M883.737 46.7852V93.3365M883.737 46.7852H930.236M883.737 93.3365V139.886M883.737 93.3365H930.236M883.737 139.886V186.436M883.737 139.886H930.236M883.737 186.436V232.985M883.737 186.436H930.236M883.737 232.985V279.535M883.737 232.985H930.236M883.737 279.535V326.086M883.737 279.535H930.236M883.737 326.086V372.636M883.737 326.086H930.236M883.737 372.636V419.186M883.737 372.636H930.236M883.737 419.186V465.735M883.737 419.186H930.236M883.737 465.735V512.287M883.737 465.735H930.236M883.737 512.287V558.836M883.737 512.287H930.236M883.737 558.836V605.386M883.737 558.836H930.236M883.737 605.386V651.936M883.737 605.386H930.236M883.737 651.936V698.485M883.737 651.936H930.236M883.737 698.485V745.037M883.737 698.485H930.236M883.737 745.037V791.586M883.737 745.037H930.236M883.737 791.586V838.136M883.737 791.586H930.236M883.737 838.136V884.686M883.737 838.136H930.236M883.737 884.686V931.236M883.737 884.686H930.236M883.737 931.236H930.236M930.236 0.235512V46.7852M930.236 0.235512H976.737M930.236 46.7852V93.3365M930.236 46.7852H976.737M930.236 93.3365V139.886M930.236 93.3365H976.737M930.236 139.886V186.436M930.236 139.886H976.737M930.236 186.436V232.985M930.236 186.436H976.737M930.236 232.985V279.535M930.236 232.985H976.737M930.236 279.535V326.086M930.236 279.535H976.737M930.236 326.086V372.636M930.236 326.086H976.737M930.236 372.636V419.186M930.236 372.636H976.737M930.236 419.186V465.735M930.236 419.186H976.737M930.236 465.735V512.287M930.236 465.735H976.737M930.236 512.287V558.836M930.236 512.287H976.737M930.236 558.836V605.386M930.236 558.836H976.737M930.236 605.386V651.936M930.236 605.386H976.737M930.236 651.936V698.485M930.236 651.936H976.737M930.236 698.485V745.037M930.236 698.485H976.737M930.236 745.037V791.586M930.236 745.037H976.737M930.236 791.586V838.136M930.236 791.586H976.737M930.236 838.136V884.686M930.236 838.136H976.737M930.236 884.686V931.236M930.236 884.686H976.737M930.236 931.236H976.737M976.737 0.235512V46.7852M976.737 0.235512H1023.24M976.737 46.7852V93.3365M976.737 46.7852H1023.24M976.737 93.3365V139.886M976.737 93.3365H1023.24M976.737 139.886V186.436M976.737 139.886H1023.24M976.737 186.436V232.985M976.737 186.436H1023.24M976.737 232.985V279.535M976.737 232.985H1023.24M976.737 279.535V326.086M976.737 279.535H1023.24M976.737 326.086V372.636M976.737 326.086H1023.24M976.737 372.636V419.186M976.737 372.636H1023.24M976.737 419.186V465.735M976.737 419.186H1023.24M976.737 465.735V512.287M976.737 465.735H1023.24M976.737 512.287V558.836M976.737 512.287H1023.24M976.737 558.836V605.386M976.737 558.836H1023.24M976.737 605.386V651.936M976.737 605.386H1023.24M976.737 651.936V698.485M976.737 651.936H1023.24M976.737 698.485V745.037M976.737 698.485H1023.24M976.737 745.037V791.586M976.737 745.037H1023.24M976.737 791.586V838.136M976.737 791.586H1023.24M976.737 838.136V884.686M976.737 838.136H1023.24M976.737 884.686V931.236M976.737 884.686H1023.24M976.737 931.236H1023.24M1023.24 0.235512V46.7852M1023.24 0.235512H1069.74M1023.24 46.7852V93.3365M1023.24 46.7852H1069.74M1023.24 93.3365V139.886M1023.24 93.3365H1069.74M1023.24 139.886V186.436M1023.24 139.886H1069.74M1023.24 186.436V232.985M1023.24 186.436H1069.74M1023.24 232.985V279.535M1023.24 232.985H1069.74M1023.24 279.535V326.086M1023.24 279.535H1069.74M1023.24 326.086V372.636M1023.24 326.086H1069.74M1023.24 372.636V419.186M1023.24 372.636H1069.74M1023.24 419.186V465.735M1023.24 419.186H1069.74M1023.24 465.735V512.287M1023.24 465.735H1069.74M1023.24 512.287V558.836M1023.24 512.287H1069.74M1023.24 558.836V605.386M1023.24 558.836H1069.74M1023.24 605.386V651.936M1023.24 605.386H1069.74M1023.24 651.936V698.485M1023.24 651.936H1069.74M1023.24 698.485V745.037M1023.24 698.485H1069.74M1023.24 745.037V791.586M1023.24 745.037H1069.74M1023.24 791.586V838.136M1023.24 791.586H1069.74M1023.24 838.136V884.686M1023.24 838.136H1069.74M1023.24 884.686V931.236M1023.24 884.686H1069.74M1023.24 931.236H1069.74M1069.74 0.235512V46.7852M1069.74 0.235512H1116.24M1069.74 46.7852V93.3365M1069.74 46.7852H1116.24M1069.74 93.3365V139.886M1069.74 93.3365H1116.24M1069.74 139.886V186.436M1069.74 139.886H1116.24M1069.74 186.436V232.985M1069.74 186.436H1116.24M1069.74 232.985V279.535M1069.74 232.985H1116.24M1069.74 279.535V326.086M1069.74 279.535H1116.24M1069.74 326.086V372.636M1069.74 326.086H1116.24M1069.74 372.636V419.186M1069.74 372.636H1116.24M1069.74 419.186V465.735M1069.74 419.186H1116.24M1069.74 465.735V512.287M1069.74 465.735H1116.24M1069.74 512.287V558.836M1069.74 512.287H1116.24M1069.74 558.836V605.386M1069.74 558.836H1116.24M1069.74 605.386V651.936M1069.74 605.386H1116.24M1069.74 651.936V698.485M1069.74 651.936H1116.24M1069.74 698.485V745.037M1069.74 698.485H1116.24M1069.74 745.037V791.586M1069.74 745.037H1116.24M1069.74 791.586V838.136M1069.74 791.586H1116.24M1069.74 838.136V884.686M1069.74 838.136H1116.24M1069.74 884.686V931.236M1069.74 884.686H1116.24M1069.74 931.236H1116.24M1116.24 0.235512V46.7852M1116.24 0.235512H1162.74M1116.24 46.7852V93.3365M1116.24 46.7852H1162.74M1116.24 93.3365V139.886M1116.24 93.3365H1162.74M1116.24 139.886V186.436M1116.24 139.886H1162.74M1116.24 186.436V232.985M1116.24 186.436H1162.74M1116.24 232.985V279.535M1116.24 232.985H1162.74M1116.24 279.535V326.086M1116.24 279.535H1162.74M1116.24 326.086V372.636M1116.24 326.086H1162.74M1116.24 372.636V419.186M1116.24 372.636H1162.74M1116.24 419.186V465.735M1116.24 419.186H1162.74M1116.24 465.735V512.287M1116.24 465.735H1162.74M1116.24 512.287V558.836M1116.24 512.287H1162.74M1116.24 558.836V605.386M1116.24 558.836H1162.74M1116.24 605.386V651.936M1116.24 605.386H1162.74M1116.24 651.936V698.485M1116.24 651.936H1162.74M1116.24 698.485V745.037M1116.24 698.485H1162.74M1116.24 745.037V791.586M1116.24 745.037H1162.74M1116.24 791.586V838.136M1116.24 791.586H1162.74M1116.24 838.136V884.686M1116.24 838.136H1162.74M1116.24 884.686V931.236M1116.24 884.686H1162.74M1116.24 931.236H1162.74M1162.74 0.235512V46.7852M1162.74 0.235512H1209.24M1162.74 46.7852V93.3365M1162.74 46.7852H1209.24M1162.74 93.3365V139.886M1162.74 93.3365H1209.24M1162.74 139.886V186.436M1162.74 139.886H1209.24M1162.74 186.436V232.985M1162.74 186.436H1209.24M1162.74 232.985V279.535M1162.74 232.985H1209.24M1162.74 279.535V326.086M1162.74 279.535H1209.24M1162.74 326.086V372.636M1162.74 326.086H1209.24M1162.74 372.636V419.186M1162.74 372.636H1209.24M1162.74 419.186V465.735M1162.74 419.186H1209.24M1162.74 465.735V512.287M1162.74 465.735H1209.24M1162.74 512.287V558.836M1162.74 512.287H1209.24M1162.74 558.836V605.386M1162.74 558.836H1209.24M1162.74 605.386V651.936M1162.74 605.386H1209.24M1162.74 651.936V698.485M1162.74 651.936H1209.24M1162.74 698.485V745.037M1162.74 698.485H1209.24M1162.74 745.037V791.586M1162.74 745.037H1209.24M1162.74 791.586V838.136M1162.74 791.586H1209.24M1162.74 838.136V884.686M1162.74 838.136H1209.24M1162.74 884.686V931.236M1162.74 884.686H1209.24M1162.74 931.236H1209.24M1209.24 0.235512V46.7852M1209.24 0.235512H1255.74M1209.24 46.7852V93.3365M1209.24 46.7852H1255.74M1209.24 93.3365V139.886M1209.24 93.3365H1255.74M1209.24 139.886V186.436M1209.24 139.886H1255.74M1209.24 186.436V232.985M1209.24 186.436H1255.74M1209.24 232.985V279.535M1209.24 232.985H1255.74M1209.24 279.535V326.086M1209.24 279.535H1255.74M1209.24 326.086V372.636M1209.24 326.086H1255.74M1209.24 372.636V419.186M1209.24 372.636H1255.74M1209.24 419.186V465.735M1209.24 419.186H1255.74M1209.24 465.735V512.287M1209.24 465.735H1255.74M1209.24 512.287V558.836M1209.24 512.287H1255.74M1209.24 558.836V605.386M1209.24 558.836H1255.74M1209.24 605.386V651.936M1209.24 605.386H1255.74M1209.24 651.936V698.485M1209.24 651.936H1255.74M1209.24 698.485V745.037M1209.24 698.485H1255.74M1209.24 745.037V791.586M1209.24 745.037H1255.74M1209.24 791.586V838.136M1209.24 791.586H1255.74M1209.24 838.136V884.686M1209.24 838.136H1255.74M1209.24 884.686V931.236M1209.24 884.686H1255.74M1209.24 931.236H1255.74M1255.74 0.235512V46.7852M1255.74 0.235512H1302.24M1255.74 46.7852V93.3365M1255.74 46.7852H1302.24M1255.74 93.3365V139.886M1255.74 93.3365H1302.24M1255.74 139.886V186.436M1255.74 139.886H1302.24M1255.74 186.436V232.985M1255.74 186.436H1302.24M1255.74 232.985V279.535M1255.74 232.985H1302.24M1255.74 279.535V326.086M1255.74 279.535H1302.24M1255.74 326.086V372.636M1255.74 326.086H1302.24M1255.74 372.636V419.186M1255.74 372.636H1302.24M1255.74 419.186V465.735M1255.74 419.186H1302.24M1255.74 465.735V512.287M1255.74 465.735H1302.24M1255.74 512.287V558.836M1255.74 512.287H1302.24M1255.74 558.836V605.386M1255.74 558.836H1302.24M1255.74 605.386V651.936M1255.74 605.386H1302.24M1255.74 651.936V698.485M1255.74 651.936H1302.24M1255.74 698.485V745.037M1255.74 698.485H1302.24M1255.74 745.037V791.586M1255.74 745.037H1302.24M1255.74 791.586V838.136M1255.74 791.586H1302.24M1255.74 838.136V884.686M1255.74 838.136H1302.24M1255.74 884.686V931.236M1255.74 884.686H1302.24M1255.74 931.236H1302.24M1302.24 0.235512V46.7852M1302.24 0.235512H1348.74M1302.24 46.7852V93.3365M1302.24 46.7852H1348.74M1302.24 93.3365V139.886M1302.24 93.3365H1348.74M1302.24 139.886V186.436M1302.24 139.886H1348.74M1302.24 186.436V232.985M1302.24 186.436H1348.74M1302.24 232.985V279.535M1302.24 232.985H1348.74M1302.24 279.535V326.086M1302.24 279.535H1348.74M1302.24 326.086V372.636M1302.24 326.086H1348.74M1302.24 372.636V419.186M1302.24 372.636H1348.74M1302.24 419.186V465.735M1302.24 419.186H1348.74M1302.24 465.735V512.287M1302.24 465.735H1348.74M1302.24 512.287V558.836M1302.24 512.287H1348.74M1302.24 558.836V605.386M1302.24 558.836H1348.74M1302.24 605.386V651.936M1302.24 605.386H1348.74M1302.24 651.936V698.485M1302.24 651.936H1348.74M1302.24 698.485V745.037M1302.24 698.485H1348.74M1302.24 745.037V791.586M1302.24 745.037H1348.74M1302.24 791.586V838.136M1302.24 791.586H1348.74M1302.24 838.136V884.686M1302.24 838.136H1348.74M1302.24 884.686V931.236M1302.24 884.686H1348.74M1302.24 931.236H1348.74M1348.74 0.235512V46.7852M1348.74 0.235512H1395.24M1348.74 46.7852V93.3365M1348.74 46.7852H1395.24M1348.74 93.3365V139.886M1348.74 93.3365H1395.24M1348.74 139.886V186.436M1348.74 139.886H1395.24M1348.74 186.436V232.985M1348.74 186.436H1395.24M1348.74 232.985V279.535M1348.74 232.985H1395.24M1348.74 279.535V326.086M1348.74 279.535H1395.24M1348.74 326.086V372.636M1348.74 326.086H1395.24M1348.74 372.636V419.186M1348.74 372.636H1395.24M1348.74 419.186V465.735M1348.74 419.186H1395.24M1348.74 465.735V512.287M1348.74 465.735H1395.24M1348.74 512.287V558.836M1348.74 512.287H1395.24M1348.74 558.836V605.386M1348.74 558.836H1395.24M1348.74 605.386V651.936M1348.74 605.386H1395.24M1348.74 651.936V698.485M1348.74 651.936H1395.24M1348.74 698.485V745.037M1348.74 698.485H1395.24M1348.74 745.037V791.586M1348.74 745.037H1395.24M1348.74 791.586V838.136M1348.74 791.586H1395.24M1348.74 838.136V884.686M1348.74 838.136H1395.24M1348.74 884.686V931.236M1348.74 884.686H1395.24M1348.74 931.236H1395.24M1395.24 0.235512V46.7852M1395.24 0.235512H1441.74M1395.24 46.7852V93.3365M1395.24 46.7852H1441.74M1395.24 93.3365V139.886M1395.24 93.3365H1441.74M1395.24 139.886V186.436M1395.24 139.886H1441.74M1395.24 186.436V232.985M1395.24 186.436H1441.74M1395.24 232.985V279.535M1395.24 232.985H1441.74M1395.24 279.535V326.086M1395.24 279.535H1441.74M1395.24 326.086V372.636M1395.24 326.086H1441.74M1395.24 372.636V419.186M1395.24 372.636H1441.74M1395.24 419.186V465.735M1395.24 419.186H1441.74M1395.24 465.735V512.287M1395.24 465.735H1441.74M1395.24 512.287V558.836M1395.24 512.287H1441.74M1395.24 558.836V605.386M1395.24 558.836H1441.74M1395.24 605.386V651.936M1395.24 605.386H1441.74M1395.24 651.936V698.485M1395.24 651.936H1441.74M1395.24 698.485V745.037M1395.24 698.485H1441.74M1395.24 745.037V791.586M1395.24 745.037H1441.74M1395.24 791.586V838.136M1395.24 791.586H1441.74M1395.24 838.136V884.686M1395.24 838.136H1441.74M1395.24 884.686V931.236M1395.24 884.686H1441.74M1395.24 931.236H1441.74M1441.74 0.235512V46.7852M1441.74 0.235512H1488.24M1441.74 46.7852V93.3365M1441.74 46.7852H1488.24M1441.74 93.3365V139.886M1441.74 93.3365H1488.24M1441.74 139.886V186.436M1441.74 139.886H1488.24M1441.74 186.436V232.985M1441.74 186.436H1488.24M1441.74 232.985V279.535M1441.74 232.985H1488.24M1441.74 279.535V326.086M1441.74 279.535H1488.24M1441.74 326.086V372.636M1441.74 326.086H1488.24M1441.74 372.636V419.186M1441.74 372.636H1488.24M1441.74 419.186V465.735M1441.74 419.186H1488.24M1441.74 465.735V512.287M1441.74 465.735H1488.24M1441.74 512.287V558.836M1441.74 512.287H1488.24M1441.74 558.836V605.386M1441.74 558.836H1488.24M1441.74 605.386V651.936M1441.74 605.386H1488.24M1441.74 651.936V698.485M1441.74 651.936H1488.24M1441.74 698.485V745.037M1441.74 698.485H1488.24M1441.74 745.037V791.586M1441.74 745.037H1488.24M1441.74 791.586V838.136M1441.74 791.586H1488.24M1441.74 838.136V884.686M1441.74 838.136H1488.24M1441.74 884.686V931.236M1441.74 884.686H1488.24M1441.74 931.236H1488.24M1488.24 0.235512V46.7852M1488.24 0.235512H1534.74M1488.24 46.7852V93.3365M1488.24 46.7852H1534.74M1488.24 93.3365V139.886M1488.24 93.3365H1534.74M1488.24 139.886V186.436M1488.24 139.886H1534.74M1488.24 186.436V232.985M1488.24 186.436H1534.74M1488.24 232.985V279.535M1488.24 232.985H1534.74M1488.24 279.535V326.086M1488.24 279.535H1534.74M1488.24 326.086V372.636M1488.24 326.086H1534.74M1488.24 372.636V419.186M1488.24 372.636H1534.74M1488.24 419.186V465.735M1488.24 419.186H1534.74M1488.24 465.735V512.287M1488.24 465.735H1534.74M1488.24 512.287V558.836M1488.24 512.287H1534.74M1488.24 558.836V605.386M1488.24 558.836H1534.74M1488.24 605.386V651.936M1488.24 605.386H1534.74M1488.24 651.936V698.485M1488.24 651.936H1534.74M1488.24 698.485V745.037M1488.24 698.485H1534.74M1488.24 745.037V791.586M1488.24 745.037H1534.74M1488.24 791.586V838.136M1488.24 791.586H1534.74M1488.24 838.136V884.686M1488.24 838.136H1534.74M1488.24 884.686V931.236M1488.24 884.686H1534.74M1488.24 931.236H1534.74M1534.74 0.235512V46.7852M1534.74 0.235512H1581.24M1534.74 46.7852V93.3365M1534.74 46.7852H1581.24M1534.74 93.3365V139.886M1534.74 93.3365H1581.24M1534.74 139.886V186.436M1534.74 139.886H1581.24M1534.74 186.436V232.985M1534.74 186.436H1581.24M1534.74 232.985V279.535M1534.74 232.985H1581.24M1534.74 279.535V326.086M1534.74 279.535H1581.24M1534.74 326.086V372.636M1534.74 326.086H1581.24M1534.74 372.636V419.186M1534.74 372.636H1581.24M1534.74 419.186V465.735M1534.74 419.186H1581.24M1534.74 465.735V512.287M1534.74 465.735H1581.24M1534.74 512.287V558.836M1534.74 512.287H1581.24M1534.74 558.836V605.386M1534.74 558.836H1581.24M1534.74 605.386V651.936M1534.74 605.386H1581.24M1534.74 651.936V698.485M1534.74 651.936H1581.24M1534.74 698.485V745.037M1534.74 698.485H1581.24M1534.74 745.037V791.586M1534.74 745.037H1581.24M1534.74 791.586V838.136M1534.74 791.586H1581.24M1534.74 838.136V884.686M1534.74 838.136H1581.24M1534.74 884.686V931.236M1534.74 884.686H1581.24M1534.74 931.236H1581.24M1581.24 0.235512V46.7852M1581.24 0.235512H1627.73M1581.24 46.7852V93.3365M1581.24 46.7852H1627.73M1581.24 93.3365V139.886M1581.24 93.3365H1627.73M1581.24 139.886V186.436M1581.24 139.886H1627.73M1581.24 186.436V232.985M1581.24 186.436H1627.73M1581.24 232.985V279.535M1581.24 232.985H1627.73M1581.24 279.535V326.086M1581.24 279.535H1627.73M1581.24 326.086V372.636M1581.24 326.086H1627.73M1581.24 372.636V419.186M1581.24 372.636H1627.73M1581.24 419.186V465.735M1581.24 419.186H1627.73M1581.24 465.735V512.287M1581.24 465.735H1627.73M1581.24 512.287V558.836M1581.24 512.287H1627.73M1581.24 558.836V605.386M1581.24 558.836H1627.73M1581.24 605.386V651.936M1581.24 605.386H1627.73M1581.24 651.936V698.485M1581.24 651.936H1627.73M1581.24 698.485V745.037M1581.24 698.485H1627.73M1581.24 745.037V791.586M1581.24 745.037H1627.73M1581.24 791.586V838.136M1581.24 791.586H1627.73M1581.24 838.136V884.686M1581.24 838.136H1627.73M1581.24 884.686V931.236M1581.24 884.686H1627.73M1581.24 931.236H1627.73M1627.73 0.235512V46.7852M1627.73 0.235512H1674.24M1627.73 46.7852V93.3365M1627.73 46.7852H1674.24M1627.73 93.3365V139.886M1627.73 93.3365H1674.24M1627.73 139.886V186.436M1627.73 139.886H1674.24M1627.73 186.436V232.985M1627.73 186.436H1674.24M1627.73 232.985V279.535M1627.73 232.985H1674.24M1627.73 279.535V326.086M1627.73 279.535H1674.24M1627.73 326.086V372.636M1627.73 326.086H1674.24M1627.73 372.636V419.186M1627.73 372.636H1674.24M1627.73 419.186V465.735M1627.73 419.186H1674.24M1627.73 465.735V512.287M1627.73 465.735H1674.24M1627.73 512.287V558.836M1627.73 512.287H1674.24M1627.73 558.836V605.386M1627.73 558.836H1674.24M1627.73 605.386V651.936M1627.73 605.386H1674.24M1627.73 651.936V698.485M1627.73 651.936H1674.24M1627.73 698.485V745.037M1627.73 698.485H1674.24M1627.73 745.037V791.586M1627.73 745.037H1674.24M1627.73 791.586V838.136M1627.73 791.586H1674.24M1627.73 838.136V884.686M1627.73 838.136H1674.24M1627.73 884.686V931.236M1627.73 884.686H1674.24M1627.73 931.236H1674.24M1674.24 0.235512V46.7852M1674.24 0.235512H1720.73M1674.24 46.7852V93.3365M1674.24 46.7852H1720.73M1674.24 93.3365V139.886M1674.24 93.3365H1720.73M1674.24 139.886V186.436M1674.24 139.886H1720.73M1674.24 186.436V232.985M1674.24 186.436H1720.73M1674.24 232.985V279.535M1674.24 232.985H1720.73M1674.24 279.535V326.086M1674.24 279.535H1720.73M1674.24 326.086V372.636M1674.24 326.086H1720.73M1674.24 372.636V419.186M1674.24 372.636H1720.73M1674.24 419.186V465.735M1674.24 419.186H1720.73M1674.24 465.735V512.287M1674.24 465.735H1720.73M1674.24 512.287V558.836M1674.24 512.287H1720.73M1674.24 558.836V605.386M1674.24 558.836H1720.73M1674.24 605.386V651.936M1674.24 605.386H1720.73M1674.24 651.936V698.485M1674.24 651.936H1720.73M1674.24 698.485V745.037M1674.24 698.485H1720.73M1674.24 745.037V791.586M1674.24 745.037H1720.73M1674.24 791.586V838.136M1674.24 791.586H1720.73M1674.24 838.136V884.686M1674.24 838.136H1720.73M1674.24 884.686V931.236M1674.24 884.686H1720.73M1674.24 931.236H1720.73M1720.73 0.235512V46.7852M1720.73 0.235512H1767.24M1720.73 46.7852V93.3365M1720.73 46.7852H1767.24M1720.73 93.3365V139.886M1720.73 93.3365H1767.24M1720.73 139.886V186.436M1720.73 139.886H1767.24M1720.73 186.436V232.985M1720.73 186.436H1767.24M1720.73 232.985V279.535M1720.73 232.985H1767.24M1720.73 279.535V326.086M1720.73 279.535H1767.24M1720.73 326.086V372.636M1720.73 326.086H1767.24M1720.73 372.636V419.186M1720.73 372.636H1767.24M1720.73 419.186V465.735M1720.73 419.186H1767.24M1720.73 465.735V512.287M1720.73 465.735H1767.24M1720.73 512.287V558.836M1720.73 512.287H1767.24M1720.73 558.836V605.386M1720.73 558.836H1767.24M1720.73 605.386V651.936M1720.73 605.386H1767.24M1720.73 651.936V698.485M1720.73 651.936H1767.24M1720.73 698.485V745.037M1720.73 698.485H1767.24M1720.73 745.037V791.586M1720.73 745.037H1767.24M1720.73 791.586V838.136M1720.73 791.586H1767.24M1720.73 838.136V884.686M1720.73 838.136H1767.24M1720.73 884.686V931.236M1720.73 884.686H1767.24M1720.73 931.236H1767.24M1767.24 0.235512V46.7852M1767.24 0.235512H1813.74M1767.24 46.7852V93.3365M1767.24 46.7852H1813.74M1767.24 93.3365V139.886M1767.24 93.3365H1813.74M1767.24 139.886V186.436M1767.24 139.886H1813.74M1767.24 186.436V232.985M1767.24 186.436H1813.74M1767.24 232.985V279.535M1767.24 232.985H1813.74M1767.24 279.535V326.086M1767.24 279.535H1813.74M1767.24 326.086V372.636M1767.24 326.086H1813.74M1767.24 372.636V419.186M1767.24 372.636H1813.74M1767.24 419.186V465.735M1767.24 419.186H1813.74M1767.24 465.735V512.287M1767.24 465.735H1813.74M1767.24 512.287V558.836M1767.24 512.287H1813.74M1767.24 558.836V605.386M1767.24 558.836H1813.74M1767.24 605.386V651.936M1767.24 605.386H1813.74M1767.24 651.936V698.485M1767.24 651.936H1813.74M1767.24 698.485V745.037M1767.24 698.485H1813.74M1767.24 745.037V791.586M1767.24 745.037H1813.74M1767.24 791.586V838.136M1767.24 791.586H1813.74M1767.24 838.136V884.686M1767.24 838.136H1813.74M1767.24 884.686V931.236M1767.24 884.686H1813.74M1767.24 931.236H1813.74M1813.74 0.235512V46.7852M1813.74 0.235512H1860.23M1813.74 46.7852V93.3365M1813.74 46.7852H1860.23M1813.74 93.3365V139.886M1813.74 93.3365H1860.23M1813.74 139.886V186.436M1813.74 139.886H1860.23M1813.74 186.436V232.985M1813.74 186.436H1860.23M1813.74 232.985V279.535M1813.74 232.985H1860.23M1813.74 279.535V326.086M1813.74 279.535H1860.23M1813.74 326.086V372.636M1813.74 326.086H1860.23M1813.74 372.636V419.186M1813.74 372.636H1860.23M1813.74 419.186V465.735M1813.74 419.186H1860.23M1813.74 465.735V512.287M1813.74 465.735H1860.23M1813.74 512.287V558.836M1813.74 512.287H1860.23M1813.74 558.836V605.386M1813.74 558.836H1860.23M1813.74 605.386V651.936M1813.74 605.386H1860.23M1813.74 651.936V698.485M1813.74 651.936H1860.23M1813.74 698.485V745.037M1813.74 698.485H1860.23M1813.74 745.037V791.586M1813.74 745.037H1860.23M1813.74 791.586V838.136M1813.74 791.586H1860.23M1813.74 838.136V884.686M1813.74 838.136H1860.23M1813.74 884.686V931.236M1813.74 884.686H1860.23M1813.74 931.236H1860.23M1860.23 0.235512V46.7852M1860.23 0.235512H1906.74M1860.23 46.7852V93.3365M1860.23 46.7852H1906.74M1860.23 93.3365V139.886M1860.23 93.3365H1906.74M1860.23 139.886V186.436M1860.23 139.886H1906.74M1860.23 186.436V232.985M1860.23 186.436H1906.74M1860.23 232.985V279.535M1860.23 232.985H1906.74M1860.23 279.535V326.086M1860.23 279.535H1906.74M1860.23 326.086V372.636M1860.23 326.086H1906.74M1860.23 372.636V419.186M1860.23 372.636H1906.74M1860.23 419.186V465.735M1860.23 419.186H1906.74M1860.23 465.735V512.287M1860.23 465.735H1906.74M1860.23 512.287V558.836M1860.23 512.287H1906.74M1860.23 558.836V605.386M1860.23 558.836H1906.74M1860.23 605.386V651.936M1860.23 605.386H1906.74M1860.23 651.936V698.485M1860.23 651.936H1906.74M1860.23 698.485V745.037M1860.23 698.485H1906.74M1860.23 745.037V791.586M1860.23 745.037H1906.74M1860.23 791.586V838.136M1860.23 791.586H1906.74M1860.23 838.136V884.686M1860.23 838.136H1906.74M1860.23 884.686V931.236M1860.23 884.686H1906.74M1860.23 931.236H1906.74M1906.74 0.235512V46.7852M1906.74 0.235512H1953.23M1906.74 46.7852V93.3365M1906.74 46.7852H1953.23M1906.74 93.3365V139.886M1906.74 93.3365H1953.23M1906.74 139.886V186.436M1906.74 139.886H1953.23M1906.74 186.436V232.985M1906.74 186.436H1953.23M1906.74 232.985V279.535M1906.74 232.985H1953.23M1906.74 279.535V326.086M1906.74 279.535H1953.23M1906.74 326.086V372.636M1906.74 326.086H1953.23M1906.74 372.636V419.186M1906.74 372.636H1953.23M1906.74 419.186V465.735M1906.74 419.186H1953.23M1906.74 465.735V512.287M1906.74 465.735H1953.23M1906.74 512.287V558.836M1906.74 512.287H1953.23M1906.74 558.836V605.386M1906.74 558.836H1953.23M1906.74 605.386V651.936M1906.74 605.386H1953.23M1906.74 651.936V698.485M1906.74 651.936H1953.23M1906.74 698.485V745.037M1906.74 698.485H1953.23M1906.74 745.037V791.586M1906.74 745.037H1953.23M1906.74 791.586V838.136M1906.74 791.586H1953.23M1906.74 838.136V884.686M1906.74 838.136H1953.23M1906.74 884.686V931.236M1906.74 884.686H1953.23M1906.74 931.236H1953.23M1953.23 0.235512V46.7852M1953.23 0.235512H1999.74M1953.23 46.7852V93.3365M1953.23 46.7852H1999.74M1953.23 93.3365V139.886M1953.23 93.3365H1999.74M1953.23 139.886V186.436M1953.23 139.886H1999.74M1953.23 186.436V232.985M1953.23 186.436H1999.74M1953.23 232.985V279.535M1953.23 232.985H1999.74M1953.23 279.535V326.086M1953.23 279.535H1999.74M1953.23 326.086V372.636M1953.23 326.086H1999.74M1953.23 372.636V419.186M1953.23 372.636H1999.74M1953.23 419.186V465.735M1953.23 419.186H1999.74M1953.23 465.735V512.287M1953.23 465.735H1999.74M1953.23 512.287V558.836M1953.23 512.287H1999.74M1953.23 558.836V605.386M1953.23 558.836H1999.74M1953.23 605.386V651.936M1953.23 605.386H1999.74M1953.23 651.936V698.485M1953.23 651.936H1999.74M1953.23 698.485V745.037M1953.23 698.485H1999.74M1953.23 745.037V791.586M1953.23 745.037H1999.74M1953.23 791.586V838.136M1953.23 791.586H1999.74M1953.23 838.136V884.686M1953.23 838.136H1999.74M1953.23 884.686V931.236M1953.23 884.686H1999.74M1953.23 931.236H1999.74M1999.74 0.235512V46.7852M1999.74 0.235512H2046.24V46.7852M1999.74 46.7852V93.3365M1999.74 46.7852H2046.24M1999.74 93.3365V139.886M1999.74 93.3365H2046.24M1999.74 139.886V186.436M1999.74 139.886H2046.24M1999.74 186.436V232.985M1999.74 186.436H2046.24M1999.74 232.985V279.535M1999.74 232.985H2046.24M1999.74 279.535V326.086M1999.74 279.535H2046.24M1999.74 326.086V372.636M1999.74 326.086H2046.24M1999.74 372.636V419.186M1999.74 372.636H2046.24M1999.74 419.186V465.735M1999.74 419.186H2046.24M1999.74 465.735V512.287M1999.74 465.735H2046.24M1999.74 512.287V558.836M1999.74 512.287H2046.24M1999.74 558.836V605.386M1999.74 558.836H2046.24M1999.74 605.386V651.936M1999.74 605.386H2046.24M1999.74 651.936V698.485M1999.74 651.936H2046.24M1999.74 698.485V745.037M1999.74 698.485H2046.24M1999.74 745.037V791.586M1999.74 745.037H2046.24M1999.74 791.586V838.136M1999.74 791.586H2046.24M1999.74 838.136V884.686M1999.74 838.136H2046.24M1999.74 884.686V931.236M1999.74 884.686H2046.24M1999.74 931.236H2046.24V884.686M2046.24 46.7852V93.3365M2046.24 93.3365V139.886M2046.24 139.886V186.436M2046.24 186.436V232.985M2046.24 232.985V279.535M2046.24 279.535V326.086M2046.24 326.086V372.636M2046.24 372.636V419.186M2046.24 419.186V465.735M2046.24 465.735V512.287M2046.24 512.287V558.836M2046.24 558.836V605.386M2046.24 605.386V651.936M2046.24 651.936V698.485M2046.24 698.485V745.037M2046.24 745.037V791.586M2046.24 791.586V838.136M2046.24 838.136V884.686" stroke="url(#paint0_radial_0_258)" stroke-opacity="0.3" style="mix-blend-mode:soft-light" stroke-width="0.471024"/>
</g>
<defs>
<radialGradient id="paint0_radial_0_258" cx="0" cy="0" r="1" gradientUnits="userSpaceOnUse" gradientTransform="translate(1023.24 465.736) rotate(90) scale(465.5 1023)">
<stop stop-color="white"/>
<stop offset="1" stop-color="white" stop-opacity="0"/>
</radialGradient>
</defs>
</svg>
