<svg width="48" height="48" viewBox="0 0 48 48" fill="none" xmlns="http://www.w3.org/2000/svg">
<g filter="url(#filter0_i_8951_7721)">
<rect width="48" height="48" rx="12" fill="#020E6A"/>
<rect width="48" height="48" rx="12" fill="url(#paint0_linear_8951_7721)"/>
<path d="M30 17L27.586 14.586C27.211 14.2109 26.7024 14.0001 26.172 14H18C17.4696 14 16.9609 14.2107 16.5858 14.5858C16.2107 14.9609 16 15.4696 16 16V32C16 32.5304 16.2107 33.0391 16.5858 33.4142C16.9609 33.7893 17.4696 34 18 34H30C30.5304 34 31.0391 33.7893 31.4142 33.4142C31.7893 33.0391 32 32.5304 32 32" stroke="white" stroke-width="2" stroke-linecap="round" stroke-linejoin="round"/>
<path d="M33.377 24.6261C33.7754 24.2278 33.9991 23.6875 33.9991 23.1241C33.9991 22.5608 33.7754 22.0205 33.377 21.6221C32.9786 21.2238 32.4384 21 31.875 21C31.3116 21 30.7714 21.2238 30.373 21.6221L26.363 25.6341C26.1252 25.8718 25.9512 26.1655 25.857 26.4881L25.02 29.3581C24.9949 29.4442 24.9934 29.5354 25.0156 29.6222C25.0379 29.7091 25.0831 29.7883 25.1464 29.8517C25.2098 29.9151 25.2891 29.9603 25.3759 29.9825C25.4627 30.0048 25.554 30.0032 25.64 29.9781L28.51 29.1411C28.8327 29.0469 29.1264 28.8729 29.364 28.6351L33.377 24.6261Z" stroke="white" stroke-width="2" stroke-linecap="round" stroke-linejoin="round"/>
<path d="M20 30H21" stroke="white" stroke-width="2" stroke-linecap="round" stroke-linejoin="round"/>
</g>
<defs>
<filter id="filter0_i_8951_7721" x="0" y="0" width="48" height="49" filterUnits="userSpaceOnUse" color-interpolation-filters="sRGB">
<feFlood flood-opacity="0" result="BackgroundImageFix"/>
<feBlend mode="normal" in="SourceGraphic" in2="BackgroundImageFix" result="shape"/>
<feColorMatrix in="SourceAlpha" type="matrix" values="0 0 0 0 0 0 0 0 0 0 0 0 0 0 0 0 0 0 127 0" result="hardAlpha"/>
<feOffset dy="1"/>
<feGaussianBlur stdDeviation="0.5"/>
<feComposite in2="hardAlpha" operator="arithmetic" k2="-1" k3="1"/>
<feColorMatrix type="matrix" values="0 0 0 0 0.811765 0 0 0 0 0.905882 0 0 0 0 1 0 0 0 0.2 0"/>
<feBlend mode="normal" in2="shape" result="effect1_innerShadow_8951_7721"/>
</filter>
<linearGradient id="paint0_linear_8951_7721" x1="0" y1="24" x2="48" y2="24" gradientUnits="userSpaceOnUse">
<stop stop-color="#7084FF"/>
<stop offset="1" stop-color="#03159D"/>
</linearGradient>
</defs>
</svg>
