<svg width="72" height="72" viewBox="0 0 72 72" fill="none" xmlns="http://www.w3.org/2000/svg">
<path fill-rule="evenodd" clip-rule="evenodd" d="M11.2556 11.2494V8.14442C11.2556 6.10142 12.3131 4.20467 14.0501 3.13142C15.7893 2.05817 17.9583 1.95917 19.7853 2.87267L36.0078 10.9839L52.2281 2.87267C54.0551 1.95917 56.2241 2.05817 57.9633 3.13142C59.7003 4.20467 60.7578 6.10142 60.7578 8.14442V11.2494H63.0056C64.7966 11.2494 66.5133 11.9604 67.7778 13.2272C69.0446 14.4917 69.7556 16.2084 69.7556 17.9994V53.9994C69.7556 55.7904 69.0446 57.5072 67.7778 58.7717C66.5133 60.0384 64.7966 60.7494 63.0056 60.7494H53.9561C54.1451 62.4302 53.8121 64.1582 52.9616 65.6747C51.5396 68.2014 48.9003 69.7494 46.0496 69.7494C39.9228 69.7494 32.0928 69.7494 25.9661 69.7494C23.1153 69.7494 20.4761 68.2014 19.0541 65.6747C18.2036 64.1582 17.8706 62.4302 18.0596 60.7494H9.00781C7.21681 60.7494 5.50006 60.0384 4.23556 58.7717C2.96881 57.5072 2.25781 55.7904 2.25781 53.9994C2.25781 44.5854 2.25781 27.4134 2.25781 17.9994C2.25781 16.2084 2.96881 14.4917 4.23556 13.2272C5.50006 11.9604 7.21681 11.2494 9.00781 11.2494H11.2556ZM33.0311 42.2589C33.6498 41.1744 34.7793 40.4994 36.0078 40.4994C37.2363 40.4994 38.3658 41.1744 38.9846 42.2589L49.0263 59.8449C49.6653 60.9632 49.6698 62.3469 49.0376 63.4697C48.4233 64.5654 47.2848 65.2494 46.0496 65.2494C39.9228 65.2494 32.0928 65.2494 25.9661 65.2494C24.7308 65.2494 23.5923 64.5654 22.9781 63.4697C22.3458 62.3469 22.3503 60.9632 22.9893 59.8449L33.0311 42.2589ZM36.0078 58.4994C37.2498 58.4994 38.2578 59.5074 38.2578 60.7494C38.2578 61.9914 37.2498 62.9994 36.0078 62.9994C34.7658 62.9994 33.7578 61.9914 33.7578 60.7494C33.7578 59.5074 34.7658 58.4994 36.0078 58.4994ZM38.2578 53.9994V47.2494C38.2578 46.0074 37.2498 44.9994 36.0078 44.9994C34.7658 44.9994 33.7578 46.0074 33.7578 47.2494V53.9994C33.7578 55.2414 34.7658 56.2494 36.0078 56.2494C37.2498 56.2494 38.2578 55.2414 38.2578 53.9994ZM33.7556 36.3302V14.8899L17.7716 6.89792C17.3396 6.68192 16.8266 6.70667 16.4171 6.95867C16.0053 7.21292 15.7556 7.66292 15.7556 8.14442V44.9972C15.7556 45.5259 16.0548 46.0074 16.5251 46.2437L23.5631 49.7627L29.1228 40.0269C30.2658 38.0402 32.0231 36.8049 33.7511 36.3302H33.7556ZM48.4503 49.7627L55.4883 46.2437C55.9586 46.0074 56.2578 45.5259 56.2578 44.9972V8.14442C56.2578 7.66292 56.0081 7.21292 55.5963 6.95867C55.1868 6.70667 54.6738 6.68192 54.2418 6.89792L38.2578 14.8899V36.3279C40.1816 36.9039 41.8556 38.2089 42.8928 40.0269L48.4503 49.7627Z" fill="url(#paint0_linear_9660_5945)"/>
<defs>
<linearGradient id="paint0_linear_9660_5945" x1="8.39397" y1="52.8748" x2="62.0857" y2="19.1261" gradientUnits="userSpaceOnUse">
<stop stop-color="#03159D"/>
<stop offset="1" stop-color="#7084FF"/>
</linearGradient>
</defs>
</svg>
