<svg width="72" height="72" viewBox="0 0 72 72" fill="none" xmlns="http://www.w3.org/2000/svg">
<path fill-rule="evenodd" clip-rule="evenodd" d="M20.5342 58.4496V15.127H12.9531V66.8747H49.8548V59.2918H21.3782C20.9116 59.2918 20.5342 58.9144 20.5342 58.4496Z" fill="url(#paint0_linear_9660_6323)"/>
<path fill-rule="evenodd" clip-rule="evenodd" d="M59.1204 57.6073V15.1286H49.3066C48.8418 15.1286 48.4645 14.7512 48.4645 14.2864V5.34082H22.2188V57.6054C24.5388 57.6073 57.2074 57.6073 59.1204 57.6073ZM36.747 26.2009C36.747 25.7362 37.1244 25.3588 37.5892 25.3588H53.2403C53.705 25.3588 54.0824 25.7362 54.0824 26.2009C54.0824 26.6657 53.705 27.0431 53.2403 27.0431H37.5892C37.1244 27.0449 36.747 26.6675 36.747 26.2009ZM36.747 21.7077C36.747 21.2429 37.1244 20.8655 37.5892 20.8655H55.8522C56.317 20.8655 56.6944 21.2429 56.6944 21.7077C56.6944 22.1724 56.317 22.5498 55.8522 22.5498H37.5892C37.1244 22.5498 36.747 22.1724 36.747 21.7077ZM24.7582 25.0223C24.4291 24.6933 24.4291 24.1597 24.7582 23.8307C25.0872 23.5016 25.6208 23.5016 25.9498 23.8307L27.6285 25.5094L32.2798 20.8581C32.6088 20.529 33.1424 20.529 33.4714 20.8581C33.8005 21.1871 33.8005 21.7207 33.4714 22.0497L28.229 27.2922L28.2253 27.2978C27.8962 27.6268 27.3627 27.6268 27.0336 27.2978L24.7582 25.0223ZM32.2798 33.1481C32.6088 32.8191 33.1424 32.8191 33.4714 33.1481C33.8005 33.4771 33.8005 34.0107 33.4714 34.3397C33.2205 34.5907 28.6082 39.2029 28.2234 39.5878C27.8944 39.9168 27.3608 39.9168 27.0318 39.5878L24.7563 37.3123C24.4273 36.9833 24.4273 36.4497 24.7563 36.1207C25.0854 35.7916 25.6189 35.7916 25.948 36.1207L27.6266 37.7994L32.2798 33.1481ZM36.747 50.7809C36.747 50.3162 37.1244 49.9388 37.5892 49.9388H53.2403C53.705 49.9388 54.0824 50.3162 54.0824 50.7809C54.0824 51.2457 53.705 51.6231 53.2403 51.6231H37.5892C37.1244 51.6231 36.747 51.2457 36.747 50.7809ZM36.747 46.2877C36.747 45.8229 37.1244 45.4455 37.5892 45.4455H55.8522C56.317 45.4455 56.6944 45.8229 56.6944 46.2877C56.6944 46.7524 56.317 47.1298 55.8522 47.1298H37.5892C37.1244 47.1298 36.747 46.7524 36.747 46.2877ZM36.747 38.4909C36.747 38.0262 37.1244 37.6488 37.5892 37.6488H53.2403C53.705 37.6488 54.0824 38.0262 54.0824 38.4909C54.0824 38.9557 53.705 39.3331 53.2403 39.3331H37.5892C37.1244 39.3349 36.747 38.9576 36.747 38.4909ZM36.747 33.9977C36.747 33.5329 37.1244 33.1555 37.5892 33.1555H55.8522C56.317 33.1555 56.6944 33.5329 56.6944 33.9977C56.6944 34.4624 56.317 34.8398 55.8522 34.8398H37.5892C37.1244 34.8398 36.747 34.4624 36.747 33.9977ZM24.7582 49.6023C24.4291 49.2733 24.4291 48.7397 24.7582 48.4107C25.0872 48.0816 25.6208 48.0816 25.9498 48.4107L27.6285 50.0894L32.2798 45.4381C32.6088 45.1091 33.1424 45.1091 33.4714 45.4381C33.8005 45.7672 33.8005 46.3007 33.4714 46.6297C33.2335 46.8677 28.6026 51.4985 28.2234 51.8778C27.8944 52.2068 27.3608 52.2068 27.0318 51.8778L24.7582 49.6023Z" fill="url(#paint1_linear_9660_6323)"/>
<path fill-rule="evenodd" clip-rule="evenodd" d="M50.1562 13.4413H57.808L50.1562 6.41602V13.4413Z" fill="url(#paint2_linear_9660_6323)"/>
<defs>
<linearGradient id="paint0_linear_9660_6323" x1="16.3078" y1="53.9378" x2="50.4078" y2="38.6529" gradientUnits="userSpaceOnUse">
<stop stop-color="#03159D"/>
<stop offset="1" stop-color="#7084FF"/>
</linearGradient>
<linearGradient id="paint1_linear_9660_6323" x1="25.5734" y1="44.5407" x2="59.7864" y2="29.3573" gradientUnits="userSpaceOnUse">
<stop stop-color="#03159D"/>
<stop offset="1" stop-color="#7084FF"/>
</linearGradient>
<linearGradient id="paint2_linear_9660_6323" x1="50.8519" y1="11.685" x2="56.6334" y2="7.72675" gradientUnits="userSpaceOnUse">
<stop stop-color="#03159D"/>
<stop offset="1" stop-color="#7084FF"/>
</linearGradient>
</defs>
</svg>
