<svg width="72" height="72" viewBox="0 0 72 72" fill="none" xmlns="http://www.w3.org/2000/svg">
<g clip-path="url(#clip0_9660_8213)">
<path d="M29.6719 40.2188C25.0185 40.2188 21.2344 44.0028 21.2344 48.6562C21.2344 53.3097 25.0185 57.0938 29.6719 57.0938C34.3253 57.0938 38.1094 53.3097 38.1094 48.6562C38.1094 44.0028 34.3253 40.2188 29.6719 40.2188ZM29.6719 50.7653C28.5067 50.7653 27.5625 49.8209 27.5625 48.656C27.5625 47.491 28.5067 46.5466 29.6719 46.5466C30.8368 46.5466 31.7812 47.491 31.7812 48.656C31.7812 49.8209 30.8368 50.7653 29.6719 50.7653Z" fill="url(#paint0_linear_9660_8213)"/>
<path d="M54.9844 46.5469V59.2031C54.9844 61.5329 56.8731 63.4219 59.2031 63.4219C61.5331 63.4219 63.4219 61.5329 63.4219 59.2031V48.6562C63.4219 47.491 62.4774 46.5469 61.3125 46.5469H54.9844Z" fill="url(#paint1_linear_9660_8213)"/>
<path d="M23.3438 59.5527V69.8911C23.3438 71.057 24.2872 72.0004 25.4531 72.0004C26.619 72.0004 27.5625 71.057 27.5625 69.8911C27.5625 68.7273 28.5081 67.7817 29.6719 67.7817C30.8357 67.7817 31.7812 68.7273 31.7812 69.8911C31.7812 71.057 32.7247 72.0004 33.8906 72.0004C35.0565 72.0004 36 71.057 36 69.8911V59.5527C34.1308 60.6427 31.9873 61.3129 29.6719 61.3129C27.3565 61.3129 25.2129 60.6427 23.3438 59.5527Z" fill="url(#paint2_linear_9660_8213)"/>
<path d="M19.125 55.6366C17.7974 53.6347 17.0156 51.2384 17.0156 48.6562C17.0156 41.6663 22.682 36 29.6719 36C36.6618 36 42.3281 41.6663 42.3281 48.6562C42.3281 51.2384 41.5464 53.6347 40.2188 55.6366V63.4219H51.939C51.2124 62.1759 50.7656 60.7468 50.7656 59.2031V2.10938C50.7656 0.944156 49.8212 0 48.6562 0H10.6875C9.52256 0 8.57812 0.944156 8.57812 2.10938V57.0938C8.57812 60.5887 11.4113 63.4219 14.9062 63.4219H19.125V55.6366ZM38.1094 14.9062C39.2753 14.9062 40.2188 15.8497 40.2188 17.0156V21.2344C40.2188 22.4003 39.2753 23.3438 38.1094 23.3438C36.9435 23.3438 36 22.4003 36 21.2344V17.0156C36 15.8497 36.9435 14.9062 38.1094 14.9062ZM31.7812 8.57812C31.7812 7.4122 32.7247 6.46875 33.8906 6.46875C35.0565 6.46875 36 7.4122 36 8.57812V12.7969C36 13.9628 35.0565 14.9062 33.8906 14.9062C32.7247 14.9062 31.7812 13.9628 31.7812 12.7969V8.57812ZM29.6719 14.9062C30.8378 14.9062 31.7812 15.8497 31.7812 17.0156V21.2344C31.7812 22.4003 30.8378 23.3438 29.6719 23.3438C28.506 23.3438 27.5625 22.4003 27.5625 21.2344V17.0156C27.5625 15.8497 28.506 14.9062 29.6719 14.9062ZM23.3438 8.57812C23.3438 7.4122 24.2872 6.46875 25.4531 6.46875C26.619 6.46875 27.5625 7.4122 27.5625 8.57812V12.7969C27.5625 13.9628 26.619 14.9062 25.4531 14.9062C24.2872 14.9062 23.3438 13.9628 23.3438 12.7969V8.57812ZM19.125 17.0156C19.125 15.8497 20.0685 14.9062 21.2344 14.9062C22.4003 14.9062 23.3438 15.8497 23.3438 17.0156V21.2344C23.3438 22.4003 22.4003 23.3438 21.2344 23.3438C20.0685 23.3438 19.125 22.4003 19.125 21.2344V17.0156ZM14.9062 29.6719C14.9062 28.506 15.8497 27.5625 17.0156 27.5625H42.3281C43.494 27.5625 44.4375 28.506 44.4375 29.6719C44.4375 30.8378 43.494 31.7812 42.3281 31.7812H17.0156C15.8497 31.7812 14.9062 30.8378 14.9062 29.6719Z" fill="url(#paint3_linear_9660_8213)"/>
</g>
<defs>
<linearGradient id="paint0_linear_9660_8213" x1="22.7685" y1="52.875" x2="36.1918" y2="44.4375" gradientUnits="userSpaceOnUse">
<stop stop-color="#03159D"/>
<stop offset="1" stop-color="#7084FF"/>
</linearGradient>
<linearGradient id="paint1_linear_9660_8213" x1="55.7514" y1="59.2031" x2="64.2731" y2="56.5249" gradientUnits="userSpaceOnUse">
<stop stop-color="#03159D"/>
<stop offset="1" stop-color="#7084FF"/>
</linearGradient>
<linearGradient id="paint2_linear_9660_8213" x1="24.4943" y1="68.8885" x2="34.4664" y2="62.5154" gradientUnits="userSpaceOnUse">
<stop stop-color="#03159D"/>
<stop offset="1" stop-color="#7084FF"/>
</linearGradient>
<linearGradient id="paint3_linear_9660_8213" x1="12.52" y1="47.5664" x2="53.1379" y2="30.111" gradientUnits="userSpaceOnUse">
<stop stop-color="#03159D"/>
<stop offset="1" stop-color="#7084FF"/>
</linearGradient>
<clipPath id="clip0_9660_8213">
<rect width="72" height="72" fill="white"/>
</clipPath>
</defs>
</svg>
