<svg width="72" height="72" viewBox="0 0 72 72" fill="none" xmlns="http://www.w3.org/2000/svg">
<g clip-path="url(#clip0_9660_5923)">
<path d="M27.5625 33.8906C28.7275 33.8906 29.6719 32.9462 29.6719 31.7812C29.6719 30.6163 28.7275 29.6719 27.5625 29.6719C26.3975 29.6719 25.4531 30.6163 25.4531 31.7812C25.4531 32.9462 26.3975 33.8906 27.5625 33.8906Z" fill="url(#paint0_linear_9660_5923)"/>
<path d="M44.4375 50.7656C43.2745 50.7656 42.3281 51.712 42.3281 52.875C42.3281 54.038 43.2745 54.9844 44.4375 54.9844C45.6005 54.9844 46.5469 54.038 46.5469 52.875C46.5469 51.712 45.6005 50.7656 44.4375 50.7656ZM44.4375 50.7656C43.2745 50.7656 42.3281 51.712 42.3281 52.875C42.3281 54.038 43.2745 54.9844 44.4375 54.9844C45.6005 54.9844 46.5469 54.038 46.5469 52.875C46.5469 51.712 45.6005 50.7656 44.4375 50.7656ZM19.125 50.7656C17.962 50.7656 17.0156 51.712 17.0156 52.875C17.0156 54.038 17.962 54.9844 19.125 54.9844C20.288 54.9844 21.2344 54.038 21.2344 52.875C21.2344 51.712 20.288 50.7656 19.125 50.7656ZM44.4375 50.7656C43.2745 50.7656 42.3281 51.712 42.3281 52.875C42.3281 54.038 43.2745 54.9844 44.4375 54.9844C45.6005 54.9844 46.5469 54.038 46.5469 52.875C46.5469 51.712 45.6005 50.7656 44.4375 50.7656ZM44.4375 50.7656C43.2745 50.7656 42.3281 51.712 42.3281 52.875C42.3281 54.038 43.2745 54.9844 44.4375 54.9844C45.6005 54.9844 46.5469 54.038 46.5469 52.875C46.5469 51.712 45.6005 50.7656 44.4375 50.7656ZM19.125 50.7656C17.962 50.7656 17.0156 51.712 17.0156 52.875C17.0156 54.038 17.962 54.9844 19.125 54.9844C20.288 54.9844 21.2344 54.038 21.2344 52.875C21.2344 51.712 20.288 50.7656 19.125 50.7656ZM52.875 8.4375V16.875H19.125V8.4375H0V72H72V8.4375H52.875ZM53.0466 38.7717L50.5941 35.3377L52.6205 33.8906H33.5278C33.3745 34.3237 33.1748 34.7358 32.9344 35.1211L42.3577 46.8984C43.0102 46.6706 43.7091 46.5469 44.4375 46.5469C47.9264 46.5469 50.7656 49.3861 50.7656 52.875C50.7656 56.3639 47.9264 59.2031 44.4375 59.2031C41.6883 59.2031 39.3412 57.4397 38.4722 54.9844H25.0903C24.2213 57.4397 21.8742 59.2031 19.125 59.2031C15.6361 59.2031 12.7969 56.3639 12.7969 52.875C12.7969 49.3861 15.6361 46.5469 19.125 46.5469C21.8742 46.5469 24.2213 48.3103 25.0903 50.7656H38.4722C38.6255 50.3325 38.8252 49.9205 39.0656 49.5352L29.6423 37.7578C28.9898 37.9856 28.2909 38.1094 27.5625 38.1094C24.0736 38.1094 21.2344 35.2702 21.2344 31.7812C21.2344 28.2923 24.0736 25.4531 27.5625 25.4531C30.3117 25.4531 32.6587 27.2166 33.5278 29.6719H52.6205L50.5941 28.2248L53.0466 24.7908L62.8327 31.7812L53.0466 38.7717ZM44.4375 54.9844C45.6005 54.9844 46.5469 54.038 46.5469 52.875C46.5469 51.712 45.6005 50.7656 44.4375 50.7656C43.2745 50.7656 42.3281 51.712 42.3281 52.875C42.3281 54.038 43.2745 54.9844 44.4375 54.9844ZM19.125 50.7656C17.962 50.7656 17.0156 51.712 17.0156 52.875C17.0156 54.038 17.962 54.9844 19.125 54.9844C20.288 54.9844 21.2344 54.038 21.2344 52.875C21.2344 51.712 20.288 50.7656 19.125 50.7656ZM19.125 50.7656C17.962 50.7656 17.0156 51.712 17.0156 52.875C17.0156 54.038 17.962 54.9844 19.125 54.9844C20.288 54.9844 21.2344 54.038 21.2344 52.875C21.2344 51.712 20.288 50.7656 19.125 50.7656ZM44.4375 50.7656C43.2745 50.7656 42.3281 51.712 42.3281 52.875C42.3281 54.038 43.2745 54.9844 44.4375 54.9844C45.6005 54.9844 46.5469 54.038 46.5469 52.875C46.5469 51.712 45.6005 50.7656 44.4375 50.7656ZM44.4375 50.7656C43.2745 50.7656 42.3281 51.712 42.3281 52.875C42.3281 54.038 43.2745 54.9844 44.4375 54.9844C45.6005 54.9844 46.5469 54.038 46.5469 52.875C46.5469 51.712 45.6005 50.7656 44.4375 50.7656ZM19.125 50.7656C17.962 50.7656 17.0156 51.712 17.0156 52.875C17.0156 54.038 17.962 54.9844 19.125 54.9844C20.288 54.9844 21.2344 54.038 21.2344 52.875C21.2344 51.712 20.288 50.7656 19.125 50.7656ZM44.4375 50.7656C43.2745 50.7656 42.3281 51.712 42.3281 52.875C42.3281 54.038 43.2745 54.9844 44.4375 54.9844C45.6005 54.9844 46.5469 54.038 46.5469 52.875C46.5469 51.712 45.6005 50.7656 44.4375 50.7656ZM44.4375 50.7656C43.2745 50.7656 42.3281 51.712 42.3281 52.875C42.3281 54.038 43.2745 54.9844 44.4375 54.9844C45.6005 54.9844 46.5469 54.038 46.5469 52.875C46.5469 51.712 45.6005 50.7656 44.4375 50.7656Z" fill="url(#paint1_linear_9660_5923)"/>
<path d="M40.2188 4.21875C40.2188 1.88873 38.33 0 36 0C33.67 0 31.7812 1.88873 31.7812 4.21875H23.3438V12.6562H48.6562V4.21875H40.2188Z" fill="url(#paint2_linear_9660_5923)"/>
</g>
<defs>
<linearGradient id="paint0_linear_9660_5923" x1="25.8366" y1="32.8359" x2="29.1925" y2="30.7266" gradientUnits="userSpaceOnUse">
<stop stop-color="#03159D"/>
<stop offset="1" stop-color="#7084FF"/>
</linearGradient>
<linearGradient id="paint1_linear_9660_5923" x1="6.54545" y1="56.1094" x2="59.567" y2="18.3575" gradientUnits="userSpaceOnUse">
<stop stop-color="#03159D"/>
<stop offset="1" stop-color="#7084FF"/>
</linearGradient>
<linearGradient id="paint2_linear_9660_5923" x1="25.6449" y1="9.49219" x2="36.5309" y2="-4.19306" gradientUnits="userSpaceOnUse">
<stop stop-color="#03159D"/>
<stop offset="1" stop-color="#7084FF"/>
</linearGradient>
<clipPath id="clip0_9660_5923">
<rect width="72" height="72" fill="white"/>
</clipPath>
</defs>
</svg>
