<svg width="48" height="48" viewBox="0 0 48 48" fill="none" xmlns="http://www.w3.org/2000/svg">
<g filter="url(#filter0_i_8951_7837)">
<rect width="48" height="48" rx="12" fill="#020E6A"/>
<rect width="48" height="48" rx="12" fill="url(#paint0_linear_8951_7837)"/>
<path d="M34 19L25.009 24.727C24.7039 24.9042 24.3573 24.9976 24.0045 24.9976C23.6517 24.9976 23.3051 24.9042 23 24.727L14 19" stroke="white" stroke-width="2" stroke-linecap="round" stroke-linejoin="round"/>
<path d="M32 16H16C14.8954 16 14 16.8954 14 18V30C14 31.1046 14.8954 32 16 32H32C33.1046 32 34 31.1046 34 30V18C34 16.8954 33.1046 16 32 16Z" stroke="white" stroke-width="2" stroke-linecap="round" stroke-linejoin="round"/>
</g>
<defs>
<filter id="filter0_i_8951_7837" x="0" y="0" width="48" height="49" filterUnits="userSpaceOnUse" color-interpolation-filters="sRGB">
<feFlood flood-opacity="0" result="BackgroundImageFix"/>
<feBlend mode="normal" in="SourceGraphic" in2="BackgroundImageFix" result="shape"/>
<feColorMatrix in="SourceAlpha" type="matrix" values="0 0 0 0 0 0 0 0 0 0 0 0 0 0 0 0 0 0 127 0" result="hardAlpha"/>
<feOffset dy="1"/>
<feGaussianBlur stdDeviation="0.5"/>
<feComposite in2="hardAlpha" operator="arithmetic" k2="-1" k3="1"/>
<feColorMatrix type="matrix" values="0 0 0 0 0.811765 0 0 0 0 0.905882 0 0 0 0 1 0 0 0 0.2 0"/>
<feBlend mode="normal" in2="shape" result="effect1_innerShadow_8951_7837"/>
</filter>
<linearGradient id="paint0_linear_8951_7837" x1="0" y1="24" x2="48" y2="24" gradientUnits="userSpaceOnUse">
<stop stop-color="#7084FF"/>
<stop offset="1" stop-color="#03159D"/>
</linearGradient>
</defs>
</svg>
