<svg width="48" height="48" viewBox="0 0 48 48" fill="none" xmlns="http://www.w3.org/2000/svg">
<g filter="url(#filter0_i_8949_9433)">
<rect width="48" height="48" rx="12" fill="#020E6A"/>
<rect width="48" height="48" rx="12" fill="url(#paint0_linear_8949_9433)"/>
<path d="M21.9355 27.4998C21.8462 27.1537 21.6658 26.8379 21.4131 26.5851C21.1604 26.3324 20.8445 26.152 20.4985 26.0628L14.3635 24.4808C14.2588 24.4511 14.1667 24.388 14.1011 24.3012C14.0355 24.2144 14 24.1086 14 23.9998C14 23.891 14.0355 23.7851 14.1011 23.6983C14.1667 23.6115 14.2588 23.5485 14.3635 23.5188L20.4985 21.9358C20.8444 21.8466 21.1602 21.6663 21.4129 21.4138C21.6656 21.1613 21.846 20.8456 21.9355 20.4998L23.5175 14.3648C23.5469 14.2597 23.6099 14.1671 23.6968 14.1012C23.7837 14.0352 23.8899 13.9995 23.999 13.9995C24.1081 13.9995 24.2142 14.0352 24.3012 14.1012C24.3881 14.1671 24.4511 14.2597 24.4805 14.3648L26.0615 20.4998C26.1508 20.8458 26.3311 21.1617 26.5839 21.4144C26.8366 21.6671 27.1524 21.8475 27.4985 21.9368L33.6335 23.5178C33.739 23.5469 33.832 23.6098 33.8983 23.6968C33.9646 23.7839 34.0005 23.8903 34.0005 23.9998C34.0005 24.1092 33.9646 24.2156 33.8983 24.3027C33.832 24.3898 33.739 24.4527 33.6335 24.4818L27.4985 26.0628C27.1524 26.152 26.8366 26.3324 26.5839 26.5851C26.3311 26.8379 26.1508 27.1537 26.0615 27.4998L24.4795 33.6348C24.4501 33.7398 24.3871 33.8324 24.3002 33.8984C24.2132 33.9643 24.1071 34 23.998 34C23.8889 34 23.7827 33.9643 23.6958 33.8984C23.6089 33.8324 23.5459 33.7398 23.5165 33.6348L21.9355 27.4998Z" stroke="white" stroke-width="2" stroke-linecap="round" stroke-linejoin="round"/>
<path d="M32 15V19" stroke="white" stroke-width="2" stroke-linecap="round" stroke-linejoin="round"/>
<path d="M34 17H30" stroke="white" stroke-width="2" stroke-linecap="round" stroke-linejoin="round"/>
<path d="M16 29V31" stroke="white" stroke-width="2" stroke-linecap="round" stroke-linejoin="round"/>
<path d="M17 30H15" stroke="white" stroke-width="2" stroke-linecap="round" stroke-linejoin="round"/>
</g>
<defs>
<filter id="filter0_i_8949_9433" x="0" y="0" width="48" height="49" filterUnits="userSpaceOnUse" color-interpolation-filters="sRGB">
<feFlood flood-opacity="0" result="BackgroundImageFix"/>
<feBlend mode="normal" in="SourceGraphic" in2="BackgroundImageFix" result="shape"/>
<feColorMatrix in="SourceAlpha" type="matrix" values="0 0 0 0 0 0 0 0 0 0 0 0 0 0 0 0 0 0 127 0" result="hardAlpha"/>
<feOffset dy="1"/>
<feGaussianBlur stdDeviation="0.5"/>
<feComposite in2="hardAlpha" operator="arithmetic" k2="-1" k3="1"/>
<feColorMatrix type="matrix" values="0 0 0 0 0.811765 0 0 0 0 0.905882 0 0 0 0 1 0 0 0 0.2 0"/>
<feBlend mode="normal" in2="shape" result="effect1_innerShadow_8949_9433"/>
</filter>
<linearGradient id="paint0_linear_8949_9433" x1="0" y1="24" x2="48" y2="24" gradientUnits="userSpaceOnUse">
<stop stop-color="#7084FF"/>
<stop offset="1" stop-color="#03159D"/>
</linearGradient>
</defs>
</svg>
