<svg width="48" height="48" viewBox="0 0 48 48" fill="none" xmlns="http://www.w3.org/2000/svg">
<g filter="url(#filter0_i_8949_9372)">
<rect width="48" height="48" rx="12" fill="#020E6A"/>
<rect width="48" height="48" rx="12" fill="url(#paint0_linear_8949_9372)"/>
<path d="M27 33V25C27 24.7348 26.8946 24.4804 26.7071 24.2929C26.5196 24.1054 26.2652 24 26 24H22C21.7348 24 21.4804 24.1054 21.2929 24.2929C21.1054 24.4804 21 24.7348 21 25V33" stroke="white" stroke-width="2" stroke-linecap="round" stroke-linejoin="round"/>
<path d="M15 22C14.9999 21.709 15.0633 21.4216 15.1858 21.1577C15.3082 20.8938 15.4868 20.6598 15.709 20.472L22.709 14.473C23.07 14.1679 23.5274 14.0005 24 14.0005C24.4726 14.0005 24.93 14.1679 25.291 14.473L32.291 20.472C32.5132 20.6598 32.6918 20.8938 32.8142 21.1577C32.9367 21.4216 33.0001 21.709 33 22V31C33 31.5304 32.7893 32.0391 32.4142 32.4142C32.0391 32.7893 31.5304 33 31 33H17C16.4696 33 15.9609 32.7893 15.5858 32.4142C15.2107 32.0391 15 31.5304 15 31V22Z" stroke="white" stroke-width="2" stroke-linecap="round" stroke-linejoin="round"/>
</g>
<defs>
<filter id="filter0_i_8949_9372" x="0" y="0" width="48" height="49" filterUnits="userSpaceOnUse" color-interpolation-filters="sRGB">
<feFlood flood-opacity="0" result="BackgroundImageFix"/>
<feBlend mode="normal" in="SourceGraphic" in2="BackgroundImageFix" result="shape"/>
<feColorMatrix in="SourceAlpha" type="matrix" values="0 0 0 0 0 0 0 0 0 0 0 0 0 0 0 0 0 0 127 0" result="hardAlpha"/>
<feOffset dy="1"/>
<feGaussianBlur stdDeviation="0.5"/>
<feComposite in2="hardAlpha" operator="arithmetic" k2="-1" k3="1"/>
<feColorMatrix type="matrix" values="0 0 0 0 0.811765 0 0 0 0 0.905882 0 0 0 0 1 0 0 0 0.2 0"/>
<feBlend mode="normal" in2="shape" result="effect1_innerShadow_8949_9372"/>
</filter>
<linearGradient id="paint0_linear_8949_9372" x1="0" y1="24" x2="48" y2="24" gradientUnits="userSpaceOnUse">
<stop stop-color="#7084FF"/>
<stop offset="1" stop-color="#03159D"/>
</linearGradient>
</defs>
</svg>
