<svg width="48" height="48" viewBox="0 0 48 48" fill="none" xmlns="http://www.w3.org/2000/svg">
<g filter="url(#filter0_i_8949_9389)">
<rect width="48" height="48" rx="12" fill="#020E6A"/>
<rect width="48" height="48" rx="12" fill="url(#paint0_linear_8949_9389)"/>
<path d="M27 14H18C17.4696 14 16.9609 14.2107 16.5858 14.5858C16.2107 14.9609 16 15.4696 16 16V32C16 32.5304 16.2107 33.0391 16.5858 33.4142C16.9609 33.7893 17.4696 34 18 34H30C30.5304 34 31.0391 33.7893 31.4142 33.4142C31.7893 33.0391 32 32.5304 32 32V19L27 14Z" stroke="white" stroke-width="2" stroke-linecap="round" stroke-linejoin="round"/>
<path d="M26 14V18C26 18.5304 26.2107 19.0391 26.5858 19.4142C26.9609 19.7893 27.4696 20 28 20H32" stroke="white" stroke-width="2" stroke-linecap="round" stroke-linejoin="round"/>
<path d="M26.5 24.5L21.5 29.5" stroke="white" stroke-width="2" stroke-linecap="round" stroke-linejoin="round"/>
<path d="M21.5 24.5L26.5 29.5" stroke="white" stroke-width="2" stroke-linecap="round" stroke-linejoin="round"/>
</g>
<defs>
<filter id="filter0_i_8949_9389" x="0" y="0" width="48" height="49" filterUnits="userSpaceOnUse" color-interpolation-filters="sRGB">
<feFlood flood-opacity="0" result="BackgroundImageFix"/>
<feBlend mode="normal" in="SourceGraphic" in2="BackgroundImageFix" result="shape"/>
<feColorMatrix in="SourceAlpha" type="matrix" values="0 0 0 0 0 0 0 0 0 0 0 0 0 0 0 0 0 0 127 0" result="hardAlpha"/>
<feOffset dy="1"/>
<feGaussianBlur stdDeviation="0.5"/>
<feComposite in2="hardAlpha" operator="arithmetic" k2="-1" k3="1"/>
<feColorMatrix type="matrix" values="0 0 0 0 0.811765 0 0 0 0 0.905882 0 0 0 0 1 0 0 0 0.2 0"/>
<feBlend mode="normal" in2="shape" result="effect1_innerShadow_8949_9389"/>
</filter>
<linearGradient id="paint0_linear_8949_9389" x1="0" y1="24" x2="48" y2="24" gradientUnits="userSpaceOnUse">
<stop stop-color="#7084FF"/>
<stop offset="1" stop-color="#03159D"/>
</linearGradient>
</defs>
</svg>
