<svg width="72" height="72" viewBox="0 0 72 72" fill="none" xmlns="http://www.w3.org/2000/svg">
<path d="M50.7375 9H21.2625C21.0403 10.0802 20.5062 11.0716 19.7264 11.8514C18.9466 12.6312 17.9552 13.1653 16.875 13.3875V58.6125C17.9552 58.8347 18.9466 59.3688 19.7264 60.1486C20.5062 60.9284 21.0403 61.9198 21.2625 63H50.7375C50.9597 61.9198 51.4938 60.9284 52.2736 60.1486C53.0534 59.3688 54.0448 58.8347 55.125 58.6125V13.3875C54.0448 13.1653 53.0534 12.6312 52.2736 11.8514C51.4938 11.0716 50.9597 10.0802 50.7375 9ZM25.875 14.625H46.125C46.4234 14.625 46.7095 14.7435 46.9205 14.9545C47.1315 15.1655 47.25 15.4516 47.25 15.75C47.25 16.0484 47.1315 16.3345 46.9205 16.5455C46.7095 16.7565 46.4234 16.875 46.125 16.875H25.875C25.5766 16.875 25.2905 16.7565 25.0795 16.5455C24.8685 16.3345 24.75 16.0484 24.75 15.75C24.75 15.4516 24.8685 15.1655 25.0795 14.9545C25.2905 14.7435 25.5766 14.625 25.875 14.625ZM20.25 32.625C20.25 32.3266 20.3685 32.0405 20.5795 31.8295C20.7905 31.6185 21.0766 31.5 21.375 31.5H37.125C37.4234 31.5 37.7095 31.6185 37.9205 31.8295C38.1315 32.0405 38.25 32.3266 38.25 32.625C38.25 32.9234 38.1315 33.2095 37.9205 33.4205C37.7095 33.6315 37.4234 33.75 37.125 33.75H21.375C21.0766 33.75 20.7905 33.6315 20.5795 33.4205C20.3685 33.2095 20.25 32.9234 20.25 32.625ZM42.75 59.625H29.25C28.9516 59.625 28.6655 59.5065 28.4545 59.2955C28.2435 59.0845 28.125 58.7984 28.125 58.5C28.125 58.2016 28.2435 57.9155 28.4545 57.7045C28.6655 57.4935 28.9516 57.375 29.25 57.375H33.8625L29.709 51.3349C28.9209 50.1884 28.461 48.8484 28.379 47.4596C28.297 46.0708 28.596 44.686 29.2438 43.4547C29.8915 42.2235 30.8633 41.1926 32.0542 40.4735C33.2451 39.7543 34.6099 39.3742 36.0011 39.3742C37.3923 39.3742 38.7571 39.7543 39.948 40.4735C41.139 41.1926 42.1108 42.2235 42.7585 43.4547C43.4062 44.686 43.7052 46.0708 43.6232 47.4596C43.5412 48.8484 43.0814 50.1884 42.2933 51.3349L38.1375 57.375H42.75C43.0484 57.375 43.3345 57.4935 43.5455 57.7045C43.7565 57.9155 43.875 58.2016 43.875 58.5C43.875 58.7984 43.7565 59.0845 43.5455 59.2955C43.3345 59.5065 43.0484 59.625 42.75 59.625ZM50.625 28.125H21.375C21.0766 28.125 20.7905 28.0065 20.5795 27.7955C20.3685 27.5845 20.25 27.2984 20.25 27C20.25 26.7016 20.3685 26.4155 20.5795 26.2045C20.7905 25.9935 21.0766 25.875 21.375 25.875H50.625C50.9234 25.875 51.2095 25.9935 51.4205 26.2045C51.6315 26.4155 51.75 26.7016 51.75 27C51.75 27.2984 51.6315 27.5845 51.4205 27.7955C51.2095 28.0065 50.9234 28.125 50.625 28.125ZM50.625 22.5H21.375C21.0766 22.5 20.7905 22.3815 20.5795 22.1705C20.3685 21.9595 20.25 21.6734 20.25 21.375C20.25 21.0766 20.3685 20.7905 20.5795 20.5795C20.7905 20.3685 21.0766 20.25 21.375 20.25H50.625C50.9234 20.25 51.2095 20.3685 51.4205 20.5795C51.6315 20.7905 51.75 21.0766 51.75 21.375C51.75 21.6734 51.6315 21.9595 51.4205 22.1705C51.2095 22.3815 50.9234 22.5 50.625 22.5Z" fill="url(#paint0_linear_9660_3322)"/>
<path d="M36 48.375C36.6213 48.375 37.125 47.8713 37.125 47.25C37.125 46.6287 36.6213 46.125 36 46.125C35.3787 46.125 34.875 46.6287 34.875 47.25C34.875 47.8713 35.3787 48.375 36 48.375Z" fill="url(#paint1_linear_9660_3322)"/>
<path d="M40.7675 44.5029C40.4261 43.8532 39.9553 43.2801 39.3843 42.8189C38.8132 42.3578 38.1539 42.0182 37.4468 41.8212C36.7398 41.6241 35.9999 41.5737 35.2726 41.6731C34.5453 41.7725 33.8461 42.0195 33.2178 42.399C32.5895 42.7784 32.0454 43.2824 31.619 43.8798C31.1925 44.4773 30.8928 45.1556 30.7381 45.8732C30.5834 46.5907 30.5771 47.3323 30.7195 48.0523C30.8619 48.7724 31.15 49.4558 31.5662 50.0604L36.0032 56.5145L40.4402 50.0627C41.0053 49.2576 41.3352 48.3112 41.393 47.3293C41.4508 46.3474 41.2343 45.3687 40.7675 44.5029ZM36.0032 50.6252C35.3357 50.6252 34.6831 50.4272 34.1281 50.0564C33.5731 49.6855 33.1405 49.1584 32.8851 48.5417C32.6296 47.925 32.5628 47.2464 32.693 46.5917C32.8232 45.937 33.1447 45.3357 33.6167 44.8637C34.0887 44.3917 34.6901 44.0702 35.3447 43.94C35.9994 43.8098 36.678 43.8766 37.2947 44.1321C37.9114 44.3875 38.4385 44.8201 38.8094 45.3751C39.1802 45.9301 39.3782 46.5826 39.3782 47.2502C39.3782 48.1453 39.0226 49.0037 38.3897 49.6366C37.7567 50.2696 36.8983 50.6252 36.0032 50.6252Z" fill="url(#paint2_linear_9660_3322)"/>
<path d="M56.25 2.25H15.75C14.2587 2.25179 12.829 2.84499 11.7745 3.8995C10.72 4.954 10.1268 6.38371 10.125 7.875V64.125C10.1268 65.6163 10.72 67.046 11.7745 68.1005C12.829 69.155 14.2587 69.7482 15.75 69.75H56.25C57.7413 69.7482 59.171 69.155 60.2255 68.1005C61.28 67.046 61.8732 65.6163 61.875 64.125V7.875C61.8732 6.38371 61.28 4.954 60.2255 3.8995C59.171 2.84499 57.7413 2.25179 56.25 2.25ZM57.375 59.625C57.375 59.9234 57.2565 60.2095 57.0455 60.4205C56.8345 60.6315 56.5484 60.75 56.25 60.75C55.3549 60.75 54.4965 61.1056 53.8635 61.7385C53.2306 62.3715 52.875 63.2299 52.875 64.125C52.875 64.4234 52.7565 64.7095 52.5455 64.9205C52.3345 65.1315 52.0484 65.25 51.75 65.25H20.25C19.9516 65.25 19.6655 65.1315 19.4545 64.9205C19.2435 64.7095 19.125 64.4234 19.125 64.125C19.125 63.2299 18.7694 62.3715 18.1365 61.7385C17.5036 61.1056 16.6451 60.75 15.75 60.75C15.4516 60.75 15.1655 60.6315 14.9545 60.4205C14.7435 60.2095 14.625 59.9234 14.625 59.625V12.375C14.625 12.0766 14.7435 11.7905 14.9545 11.5795C15.1655 11.3685 15.4516 11.25 15.75 11.25C16.6451 11.25 17.5036 10.8944 18.1365 10.2615C18.7694 9.62855 19.125 8.77011 19.125 7.875C19.125 7.57663 19.2435 7.29048 19.4545 7.0795C19.6655 6.86853 19.9516 6.75 20.25 6.75H51.75C52.0484 6.75 52.3345 6.86853 52.5455 7.0795C52.7565 7.29048 52.875 7.57663 52.875 7.875C52.875 8.77011 53.2306 9.62855 53.8635 10.2615C54.4965 10.8944 55.3549 11.25 56.25 11.25C56.5484 11.25 56.8345 11.3685 57.0455 11.5795C57.2565 11.7905 57.375 12.0766 57.375 12.375V59.625Z" fill="url(#paint3_linear_9660_3322)"/>
<defs>
<linearGradient id="paint0_linear_9660_3322" x1="20.3523" y1="49.5" x2="55.7773" y2="33.7274" gradientUnits="userSpaceOnUse">
<stop stop-color="#03159D"/>
<stop offset="1" stop-color="#7084FF"/>
</linearGradient>
<linearGradient id="paint1_linear_9660_3322" x1="35.0795" y1="47.8125" x2="36.8693" y2="46.6875" gradientUnits="userSpaceOnUse">
<stop stop-color="#03159D"/>
<stop offset="1" stop-color="#7084FF"/>
</linearGradient>
<linearGradient id="paint2_linear_9660_3322" x1="31.5976" y1="52.7918" x2="41.5115" y2="48.2785" gradientUnits="userSpaceOnUse">
<stop stop-color="#03159D"/>
<stop offset="1" stop-color="#7084FF"/>
</linearGradient>
<linearGradient id="paint3_linear_9660_3322" x1="14.8295" y1="52.875" x2="61.4353" y2="30.4155" gradientUnits="userSpaceOnUse">
<stop stop-color="#03159D"/>
<stop offset="1" stop-color="#7084FF"/>
</linearGradient>
</defs>
</svg>
