<svg width="72" height="72" viewBox="0 0 72 72" fill="none" xmlns="http://www.w3.org/2000/svg">
<path d="M56.0474 5.15576H21.0464C17.9515 5.15576 15.4158 7.48339 15.0389 10.4691C12.1139 10.9203 9.85938 13.4301 9.85938 16.4654V60.7521C9.85938 64.1159 12.5898 66.8451 15.9524 66.8451H50.9523C54.0471 66.8451 56.5829 64.5175 56.9721 61.5318C59.8847 61.093 62.1393 58.582 62.1393 55.5355V11.2488C62.1404 7.88501 59.4111 5.15576 56.0474 5.15576ZM54.6085 60.4101V60.4225V60.7521C54.6085 62.7625 52.975 64.4084 50.9523 64.4084H15.9524C13.9296 64.4084 12.2961 62.7636 12.2961 60.7521V16.4643C12.2961 14.4539 13.9296 12.808 15.9524 12.808H40.9724C40.9476 12.9543 40.9116 13.0881 40.9116 13.2344V22.0454C40.9116 24.5069 42.922 26.5184 45.3846 26.5184H54.208C54.3419 26.5184 54.4757 26.4824 54.6096 26.4576L54.6085 60.4101ZM54.5849 23.8251C54.5365 23.923 54.4386 24.0805 54.2069 24.0805H45.3835C44.2619 24.0805 43.3484 23.167 43.3484 22.0454V13.2344C43.3484 12.9903 43.507 12.8935 43.6037 12.844C43.6409 12.8316 43.7016 12.8193 43.7624 12.8193C43.8479 12.8193 43.9457 12.844 44.0425 12.9408L54.487 23.3853C54.658 23.5574 54.6209 23.7396 54.5849 23.8251Z" fill="url(#paint0_linear_9660_1616)"/>
<path d="M21.6598 16.8062C18.0767 16.8062 15.1641 19.7188 15.1641 23.3019C15.1641 27.4577 20.2097 32.8194 20.7823 33.4292C21.0141 33.6609 21.3302 33.7948 21.6598 33.7948C21.9894 33.7948 22.3179 33.6609 22.5373 33.4292C23.1223 32.8194 28.1679 27.4577 28.1679 23.3019C28.1679 19.7188 25.2429 16.8062 21.6598 16.8062ZM21.6598 24.8488C20.6732 24.8488 19.8688 24.0444 19.8688 23.0578C19.8688 22.0712 20.6732 21.2668 21.6598 21.2668C22.6464 21.2668 23.4508 22.0712 23.4508 23.0578C23.4508 24.0444 22.6464 24.8488 21.6598 24.8488Z" fill="url(#paint1_linear_9660_1616)"/>
<path d="M50.8538 56.1209C50.8538 59.4115 48.1729 62.0924 44.8823 62.0924C41.5793 62.0924 38.8984 59.4115 38.8984 56.1209C38.8984 52.8303 41.5793 50.1494 44.8823 50.1494C48.1729 50.1494 50.8538 52.8303 50.8538 56.1209Z" fill="url(#paint2_linear_9660_1616)"/>
<path d="M21.6559 35.4912C20.9831 35.4912 20.4375 36.0368 20.4375 36.7096V39.1475C20.4375 39.8213 20.9831 40.3658 21.6559 40.3658C22.3286 40.3658 22.8743 39.8202 22.8743 39.1475V36.7096C22.8743 36.0368 22.3286 35.4912 21.6559 35.4912Z" fill="url(#paint3_linear_9660_1616)"/>
<path d="M22.8743 43.7569C22.8743 43.0831 22.3286 42.5386 21.6559 42.5386C20.9831 42.5386 20.4375 43.0842 20.4375 43.7569V48.3661C20.4375 49.0399 20.9831 49.5653 21.6559 49.5653C22.3286 49.5653 22.8743 49.0017 22.8743 48.3278V43.7569Z" fill="url(#paint4_linear_9660_1616)"/>
<path d="M27.7055 51.5892C26.6469 52.0156 25.3892 51.8896 24.4363 51.2483C23.8772 50.8737 23.1212 51.0233 22.7454 51.5825C22.3708 52.1416 22.5204 52.8987 23.0795 53.2733C24.0594 53.9292 25.2035 54.278 26.3893 54.2791C27.161 54.2791 27.9103 54.134 28.619 53.8471C29.2423 53.5951 29.5438 52.8841 29.2918 52.2608C29.0409 51.6398 28.3333 51.3372 27.7055 51.5892Z" fill="url(#paint5_linear_9660_1616)"/>
<path d="M39.2942 34.305C39.7769 33.8348 39.787 33.0641 39.3179 32.5815C37.9161 31.1426 35.7887 30.5858 33.8661 31.137C33.2192 31.3226 32.8457 31.9988 33.0325 32.6445C33.2192 33.2914 33.8931 33.666 34.5411 33.4793C35.6054 33.1733 36.7911 33.4815 37.5707 34.2814C37.8104 34.5266 38.1276 34.6504 38.4437 34.6504C38.7509 34.6493 39.058 34.5356 39.2942 34.305Z" fill="url(#paint6_linear_9660_1616)"/>
<path d="M41.2174 42.6359C41.3288 42.6686 41.4413 42.6821 41.5515 42.6821C42.0825 42.6821 42.5708 42.3322 42.7226 41.7967C42.906 41.1498 42.5314 40.4748 41.8834 40.2914C41.2894 40.1227 40.8743 39.5726 40.8743 38.9527V37.7208C40.8743 37.0469 40.3286 36.5024 39.6559 36.5024C38.9831 36.5024 38.4375 37.0481 38.4375 37.7208V38.9527C38.4375 40.6559 39.5805 42.1702 41.2174 42.6359Z" fill="url(#paint7_linear_9660_1616)"/>
<path d="M31.1216 43.5103C30.4488 43.5103 29.9032 44.0559 29.9032 44.7286V48.3275C29.9032 48.5784 29.8762 48.8293 29.8245 49.0745C29.6827 49.7326 30.1012 50.3795 30.7593 50.5213C30.846 50.5404 30.9315 50.5483 31.017 50.5483C31.5783 50.5483 32.0846 50.1579 32.2072 49.5853C32.2961 49.1735 32.3411 48.7483 32.3411 48.3264V44.7298C32.34 44.0559 31.7943 43.5103 31.1216 43.5103Z" fill="url(#paint8_linear_9660_1616)"/>
<path d="M31.4711 34.3272C30.8119 34.1888 30.165 34.6084 30.0255 35.2665C29.9467 35.6378 29.9062 36.0214 29.9062 36.4062V40.122C29.9062 40.7959 30.4519 41.3404 31.1246 41.3404C31.7974 41.3404 32.343 40.7948 32.343 40.122V36.4062C32.343 36.1913 32.3655 35.9775 32.4082 35.7728C32.55 35.1147 32.1293 34.4667 31.4711 34.3272Z" fill="url(#paint9_linear_9660_1616)"/>
<path d="M44.8779 47.6786C45.5506 47.6786 46.0963 47.133 46.0963 46.4602V44.1753C46.0963 44.1 46.094 44.028 46.0895 43.9526C46.0501 43.2799 45.4843 42.8152 44.8025 42.8467C44.1309 42.8861 43.619 43.5026 43.6584 44.1753V46.4602C43.6595 47.133 44.2051 47.6786 44.8779 47.6786Z" fill="url(#paint10_linear_9660_1616)"/>
<defs>
<linearGradient id="paint0_linear_9660_1616" x1="14.6121" y1="51.4228" x2="59.805" y2="27.3487" gradientUnits="userSpaceOnUse">
<stop stop-color="#03159D"/>
<stop offset="1" stop-color="#7084FF"/>
</linearGradient>
<linearGradient id="paint1_linear_9660_1616" x1="16.3462" y1="29.5476" x2="28.0645" y2="23.9095" gradientUnits="userSpaceOnUse">
<stop stop-color="#03159D"/>
<stop offset="1" stop-color="#7084FF"/>
</linearGradient>
<linearGradient id="paint2_linear_9660_1616" x1="39.9853" y1="59.1067" x2="49.4897" y2="53.1263" gradientUnits="userSpaceOnUse">
<stop stop-color="#03159D"/>
<stop offset="1" stop-color="#7084FF"/>
</linearGradient>
<linearGradient id="paint3_linear_9660_1616" x1="20.659" y1="39.1472" x2="23.1202" y2="38.3738" gradientUnits="userSpaceOnUse">
<stop stop-color="#03159D"/>
<stop offset="1" stop-color="#7084FF"/>
</linearGradient>
<linearGradient id="paint4_linear_9660_1616" x1="20.659" y1="47.8086" x2="23.2405" y2="47.2459" gradientUnits="userSpaceOnUse">
<stop stop-color="#03159D"/>
<stop offset="1" stop-color="#7084FF"/>
</linearGradient>
<linearGradient id="paint5_linear_9660_1616" x1="23.161" y1="53.4698" x2="25.907" y2="49.8217" gradientUnits="userSpaceOnUse">
<stop stop-color="#03159D"/>
<stop offset="1" stop-color="#7084FF"/>
</linearGradient>
<linearGradient id="paint6_linear_9660_1616" x1="33.5915" y1="33.7197" x2="36.8541" y2="30.0405" gradientUnits="userSpaceOnUse">
<stop stop-color="#03159D"/>
<stop offset="1" stop-color="#7084FF"/>
</linearGradient>
<linearGradient id="paint7_linear_9660_1616" x1="38.8313" y1="41.1372" x2="42.8568" y2="39.3635" gradientUnits="userSpaceOnUse">
<stop stop-color="#03159D"/>
<stop offset="1" stop-color="#7084FF"/>
</linearGradient>
<linearGradient id="paint8_linear_9660_1616" x1="30.0282" y1="48.7888" x2="32.713" y2="48.1787" gradientUnits="userSpaceOnUse">
<stop stop-color="#03159D"/>
<stop offset="1" stop-color="#7084FF"/>
</linearGradient>
<linearGradient id="paint9_linear_9660_1616" x1="30.1362" y1="39.5805" x2="32.807" y2="38.9773" gradientUnits="userSpaceOnUse">
<stop stop-color="#03159D"/>
<stop offset="1" stop-color="#7084FF"/>
</linearGradient>
<linearGradient id="paint10_linear_9660_1616" x1="43.8781" y1="46.4703" x2="46.3381" y2="45.6896" gradientUnits="userSpaceOnUse">
<stop stop-color="#03159D"/>
<stop offset="1" stop-color="#7084FF"/>
</linearGradient>
</defs>
</svg>
