<svg width="72" height="72" viewBox="0 0 72 72" fill="none" xmlns="http://www.w3.org/2000/svg">
<path d="M26.2822 42.8624L3.78219 50.3549C2.94969 50.6249 2.36469 51.3674 2.25219 52.2449C2.13969 53.1224 2.56719 53.9774 3.33219 54.4274L12.2197 59.7599L17.5522 68.6474C17.9572 69.3224 18.6997 69.7499 19.4872 69.7499H19.7347C20.6122 69.6599 21.3547 69.0524 21.6247 68.2199L29.1172 45.7199C29.3872 44.9099 29.1847 44.0099 28.5772 43.4249C27.9697 42.8174 27.0922 42.6149 26.2822 42.8849V42.8624Z" fill="url(#paint0_linear_9660_1473)"/>
<path d="M69.75 11.25C69.75 6.2775 65.7225 2.25 60.75 2.25C55.7775 2.25 51.75 6.2775 51.75 11.25C51.75 15.435 54.63 18.9225 58.5 19.935V24.66C56.52 25.5375 55.125 27.5175 55.125 29.8125C55.125 32.9175 57.645 35.4375 60.75 35.4375C63.855 35.4375 66.375 32.9175 66.375 29.8125C66.375 27.5175 64.98 25.5375 63 24.66V19.935C66.87 18.9225 69.75 15.435 69.75 11.25Z" fill="url(#paint1_linear_9660_1473)"/>
<path d="M53.9984 41.8724H42.7484C40.2734 41.8724 38.2484 39.8474 38.2484 37.3724V30.4199C38.2484 27.9449 40.2734 25.9199 42.7484 25.9199H50.0609C51.2984 25.9199 52.3109 24.9074 52.3109 23.6699C52.3109 22.4324 51.2984 21.4199 50.0609 21.4199H42.7484C37.7759 21.4199 33.7484 25.4474 33.7484 30.4199V37.3724C33.7484 42.3449 37.7759 46.3724 42.7484 46.3724H53.9984C56.4734 46.3724 58.4984 48.3974 58.4984 50.8724V52.9199C58.4984 55.3949 56.4734 57.4199 53.9984 57.4199H32.3984C31.1609 57.4199 30.1484 58.4324 30.1484 59.6699C30.1484 60.9074 31.1609 61.9199 32.3984 61.9199H53.9984C58.9709 61.9199 62.9984 57.8924 62.9984 52.9199V50.8724C62.9984 45.8999 58.9709 41.8724 53.9984 41.8724Z" fill="url(#paint2_linear_9660_1473)"/>
<defs>
<linearGradient id="paint0_linear_9660_1473" x1="4.68893" y1="63.0043" x2="26.1583" y2="49.5004" gradientUnits="userSpaceOnUse">
<stop stop-color="#03159D"/>
<stop offset="1" stop-color="#7084FF"/>
</linearGradient>
<linearGradient id="paint1_linear_9660_1473" x1="53.3864" y1="27.1406" x2="71.2818" y2="21.0397" gradientUnits="userSpaceOnUse">
<stop stop-color="#03159D"/>
<stop offset="1" stop-color="#7084FF"/>
</linearGradient>
<linearGradient id="paint2_linear_9660_1473" x1="33.1348" y1="51.7949" x2="62.0687" y2="37.0432" gradientUnits="userSpaceOnUse">
<stop stop-color="#03159D"/>
<stop offset="1" stop-color="#7084FF"/>
</linearGradient>
</defs>
</svg>
