<svg width="72" height="72" viewBox="0 0 72 72" fill="none" xmlns="http://www.w3.org/2000/svg">
<path fill-rule="evenodd" clip-rule="evenodd" d="M36.6292 20.5075C33.4715 17.3498 28.3509 17.3498 25.1932 20.5075C22.0353 23.6654 22.0353 28.7858 25.1932 31.9437C28.351 35.1016 33.4713 35.1016 36.6292 31.9437C39.7871 28.7858 39.7871 23.6654 36.6292 20.5075ZM10.0971 32.3164L16.219 39.8608C16.8319 40.6152 16.1756 41.4186 15.2715 41.4186H13.676C16.1452 51.6297 25.3266 58.9666 35.9999 58.9666C46.7299 58.9666 55.9571 51.5581 58.3626 41.2524C58.5389 40.4972 59.5364 40.214 60.0693 40.9128L62.6562 44.1006L64.2366 42.1531C64.886 41.3535 66.1562 41.9278 65.8564 43.1798C62.5742 56.8746 50.2771 66.7054 35.9999 66.7054C21.0564 66.7054 8.36161 55.949 5.77326 41.4187H3.20784C2.42934 41.4187 1.90832 40.4929 2.51526 39.8028L8.6039 32.2996C8.99175 31.8221 9.72482 31.838 10.0971 32.3164ZM35.9999 5.29443C51.0237 5.29443 63.765 16.166 66.2621 30.8011H68.792C69.5706 30.8011 70.0915 31.7269 69.4845 32.4171L63.3959 39.9202C63.0047 40.4019 62.2799 40.3781 61.9027 39.9034L55.7806 32.3591C55.2148 31.6625 55.7766 30.8013 56.6504 30.8013H58.3781C55.9907 20.4842 46.7584 13.0332 35.9999 13.0332C25.2135 13.0332 15.9367 20.5342 13.5968 30.9104C13.4217 31.6869 12.4234 31.9225 11.9191 31.2932L9.34359 28.1193L7.69307 30.1534C7.0642 30.9277 5.77875 30.3305 6.03342 29.301C7.57565 22.3726 11.4561 16.3273 16.803 12.038C22.0627 7.81865 28.7379 5.29443 35.9999 5.29443ZM28.4139 52.5124H48.9397C49.4678 52.5124 49.896 52.0842 49.896 51.556C49.896 51.0278 49.4678 50.5996 48.9397 50.5996H28.4139C27.8857 50.5996 27.4575 51.0278 27.4575 51.556C27.4575 52.0842 27.8857 52.5124 28.4139 52.5124ZM45.8549 30.8958C45.3267 30.8958 44.8985 31.324 44.8985 31.8522V47.7753C44.8985 48.3035 45.3267 48.7317 45.8549 48.7317H48.9397C49.4678 48.7317 49.896 48.3035 49.896 47.7753V31.8522C49.896 31.324 49.4678 30.8958 48.9397 30.8958H45.8549ZM39.992 34.4235H43.0767C43.6049 34.4235 44.0331 34.8517 44.0331 35.3799V47.7753C44.0331 48.3035 43.6049 48.7317 43.0767 48.7317H39.992C39.4638 48.7317 39.0356 48.3035 39.0356 47.7753V35.3799C39.0356 34.8517 39.4638 34.4235 39.992 34.4235ZM34.1747 37.2744C33.6465 37.2744 33.2183 37.7026 33.2183 38.2308V47.7753C33.2183 48.3035 33.6465 48.7317 34.1747 48.7317H37.2595C37.7877 48.7317 38.2159 48.3035 38.2159 47.7753V38.2308C38.2159 37.7026 37.7877 37.2744 37.2595 37.2744H34.1747ZM28.4139 41.797C27.8857 41.797 27.4575 42.2252 27.4575 42.7534V47.7753C27.4575 48.3035 27.8857 48.7317 28.4139 48.7317H31.4986C32.0268 48.7317 32.455 48.3035 32.455 47.7753V42.7534C32.455 42.2252 32.0268 41.797 31.4986 41.797H28.4139ZM29.7687 29.3396C29.2405 29.3396 28.8123 28.9114 28.8123 28.3832C28.8123 27.855 29.2405 27.4268 29.7687 27.4268H31.2492C31.4092 27.4268 31.4091 27.182 31.2492 27.182C30.4364 27.182 29.7947 27.2444 29.1352 26.5849C28.0637 25.5136 28.5028 23.7105 29.9094 23.223V23.0074C29.9094 22.4792 30.3376 22.051 30.8658 22.051C31.394 22.051 31.8222 22.4792 31.8222 23.0074V23.1115H32.0537C32.5819 23.1115 33.0101 23.5397 33.0101 24.0679C33.0101 24.5961 32.5819 25.0243 32.0537 25.0243H30.5732C30.413 25.0243 30.4132 25.2689 30.5732 25.2689C31.3859 25.2689 32.0275 25.2065 32.6871 25.866C33.7884 26.9673 33.2884 28.8251 31.8222 29.2569V29.4435C31.8222 29.9717 31.394 30.3999 30.8658 30.3999C30.3376 30.3999 29.9094 29.9717 29.9094 29.4435V29.3393H29.7687V29.3396ZM34.4252 22.7115C36.3658 24.652 36.3657 27.7991 34.4252 29.7396C32.4846 31.6802 29.3378 31.6802 27.3972 29.7396C25.4567 27.7989 25.4565 24.6522 27.3972 22.7115C29.3377 20.7711 32.4846 20.7711 34.4252 22.7115ZM30.9111 19.3434C34.7118 19.3434 37.7934 22.4249 37.7934 26.2256C37.7934 30.0263 34.7119 33.108 30.9111 33.108C27.1104 33.108 24.0288 30.0263 24.0288 26.2256C24.0288 22.4249 27.1104 19.3434 30.9111 19.3434Z" fill="url(#paint0_linear_9660_7869)"/>
<defs>
<linearGradient id="paint0_linear_9660_7869" x1="8.38635" y1="51.3526" x2="59.0907" y2="16.3213" gradientUnits="userSpaceOnUse">
<stop stop-color="#03159D"/>
<stop offset="1" stop-color="#7084FF"/>
</linearGradient>
</defs>
</svg>
