<svg width="72" height="72" viewBox="0 0 72 72" fill="none" xmlns="http://www.w3.org/2000/svg">
<path fill-rule="evenodd" clip-rule="evenodd" d="M65.2335 71.9949H6.76557C6.26082 71.9949 5.85156 71.5858 5.85156 71.0809V58.2626C5.85156 57.7579 6.26082 57.3486 6.76557 57.3486H65.2335C65.7383 57.3486 66.1475 57.7579 66.1475 58.2626V71.0809C66.1475 71.5858 65.7383 71.9949 65.2335 71.9949Z" fill="url(#paint0_linear_9660_6957)"/>
<path fill-rule="evenodd" clip-rule="evenodd" d="M29.0163 55.5208V27.6942H20.4997V36.2251C20.4997 37.5968 19.3836 38.7128 18.0116 38.7128H12.1647C10.7926 38.7128 9.67644 37.5966 9.67644 36.2251V27.694L6.76748 27.6942C5.27166 27.6942 4.05469 26.4772 4.05469 24.9814V20.2582C4.05469 18.7622 5.27165 17.5454 6.76748 17.5454H9.67644V9.01438C9.67644 7.64245 10.7926 6.52647 12.1647 6.52647H18.0116C19.3836 6.52647 20.4997 7.64262 20.4997 9.01438V17.5454H29.0163V0.918893C29.0163 0.413971 29.4254 0.00488281 29.9303 0.00488281H42.0735C42.5783 0.00488281 42.9876 0.413969 42.9876 0.918893V17.5454H51.5041V9.01438C51.5041 7.64245 52.6203 6.52647 53.9919 6.52647H59.8392C61.2111 6.52647 62.3271 7.64262 62.3271 9.01438V17.5454H65.2362C66.732 17.5454 67.9488 18.7622 67.9488 20.258V24.9812C67.9488 26.4772 66.732 27.694 65.2362 27.694H62.3271V36.2249C62.3271 37.5967 61.2109 38.7126 59.8392 38.7126H53.9919C52.6201 38.7126 51.5041 37.5965 51.5041 36.2249V27.6942H42.9876V55.5208L29.0163 55.5208ZM36.002 12.9294C35.4973 12.9294 35.0882 12.5201 35.0882 12.0154V6.3154C35.0882 5.81048 35.4973 5.40139 36.002 5.40139C36.5068 5.40139 36.916 5.81048 36.916 6.3154V12.0154C36.916 12.5201 36.5068 12.9294 36.002 12.9294ZM36.002 53.78C35.4973 53.78 35.0882 53.3709 35.0882 52.8661V47.1661C35.0882 46.6612 35.4973 46.2521 36.002 46.2521C36.5068 46.2521 36.916 46.6612 36.916 47.1661V52.8661C36.916 53.3709 36.5068 53.78 36.002 53.78ZM36.002 40.163C35.4973 40.163 35.0882 39.7539 35.0882 39.2492V33.5493C35.0882 33.0446 35.4973 32.6355 36.002 32.6355C36.5068 32.6355 36.916 33.0446 36.916 33.5493V39.2492C36.916 39.7539 36.5068 40.163 36.002 40.163ZM36.002 26.5462C35.4973 26.5462 35.0882 26.1371 35.0882 25.6324V19.9324C35.0882 19.4276 35.4973 19.0185 36.002 19.0185C36.5068 19.0185 36.916 19.4276 36.916 19.9324V25.6324C36.916 26.1371 36.5068 26.5462 36.002 26.5462Z" fill="url(#paint1_linear_9660_6957)"/>
<defs>
<linearGradient id="paint0_linear_9660_6957" x1="11.333" y1="68.3333" x2="20.0272" y2="45.8352" gradientUnits="userSpaceOnUse">
<stop stop-color="#03159D"/>
<stop offset="1" stop-color="#7084FF"/>
</linearGradient>
<linearGradient id="paint1_linear_9660_6957" x1="9.86325" y1="41.6418" x2="56.4091" y2="7.96898" gradientUnits="userSpaceOnUse">
<stop stop-color="#03159D"/>
<stop offset="1" stop-color="#7084FF"/>
</linearGradient>
</defs>
</svg>
